<?xml version="1.0" standalone="no"?>
<!DOCTYPE svg PUBLIC "-//W3C//DTD SVG 1.1//EN" "http://www.w3.org/Graphics/SVG/1.1/DTD/svg11.dtd" >
<svg xmlns="http://www.w3.org/2000/svg">
<metadata></metadata>
<defs>
<font id="centrale_sansxthin" horiz-adv-x="1243" >
<font-face units-per-em="2048" ascent="1536" descent="-512" />
<missing-glyph horiz-adv-x="542" />
<glyph unicode="&#xfb01;" horiz-adv-x="1034" d="M78 1030v27l127 8v109q0 147 80.5 242t234.5 95q151 0 301 -94l-18 -31q-144 89 -285 89q-64 0 -113 -19.5t-78.5 -51t-48 -75t-25.5 -86t-7 -90.5v-88h598v-1065h-41v1030h-557v-1030h-41v1030h-127z" />
<glyph unicode="&#xfb02;" horiz-adv-x="1093" d="M76 1030v27l127 8v96q0 172 86 261t225 89q140 0 228.5 -93t88.5 -265v-1022q0 -104 82 -104q48 0 97 12v-37q-44 -12 -99 -12q-67 0 -93.5 35.5t-26.5 101.5v1047q0 141 -76.5 221t-202.5 80q-130 0 -199 -82t-69 -232v-96h307v-35h-307v-1030h-41v1030h-127z" />
<glyph unicode="&#xfb03;" horiz-adv-x="1552" d="M78 1030v27l127 8v149q0 147 58.5 222t197.5 75q75 0 133 -18l-6 -35q-66 17 -127 17q-118 0 -166.5 -65.5t-48.5 -190.5v-154h477v119q0 147 80.5 242.5t234.5 95.5q150 0 301 -95l-18 -30q-142 88 -285 88q-64 0 -113 -19.5t-78.5 -51t-48 -75t-25.5 -86t-7 -90.5v-98 h598v-1065h-41v1030h-557v-1030h-41v1030h-477v-1030h-41v1030h-127z" />
<glyph unicode="&#xfb04;" horiz-adv-x="1585" d="M82 1030v25l125 10v149q0 147 58.5 222t197.5 75q75 0 133 -18l-6 -35q-66 17 -127 17q-118 0 -166.5 -65.5t-48.5 -190.5v-154h446v106q0 172 86.5 261.5t225.5 89.5q140 0 228.5 -93.5t88.5 -265.5v-1032q0 -104 82 -104q47 0 96 12v-37q-43 -12 -98 -12 q-68 0 -94.5 35.5t-26.5 101.5v1057q0 141 -76 221t-202 80q-130 0 -199.5 -82t-69.5 -232v-106h307v-35h-307v-1030h-41v1030h-446v-1030h-41v1030h-125z" />
<glyph horiz-adv-x="0" />
<glyph horiz-adv-x="0" />
<glyph horiz-adv-x="682" />
<glyph unicode="&#xd;" horiz-adv-x="577" />
<glyph unicode=" "  horiz-adv-x="542" />
<glyph unicode="&#x09;" horiz-adv-x="542" />
<glyph unicode="&#xa0;" horiz-adv-x="542" />
<glyph unicode="!" horiz-adv-x="522" d="M207 39q0 25 14 39t37 14q24 0 38.5 -14.5t14.5 -38.5q0 -22 -14.5 -35.5t-38.5 -13.5q-23 0 -37 13.5t-14 35.5zM227 1434h58l-15 -1115h-30z" />
<glyph unicode="&#x22;" horiz-adv-x="716" d="M203 989l37 445h55l-80 -445h-12zM442 989l37 445h56l-80 -445h-13z" />
<glyph unicode="#" horiz-adv-x="1566" d="M123 358l8 39h307l109 619h-307l6 41h309l70 377h39l-68 -377h506l69 377h41l-69 -377h301l-8 -41h-299l-109 -619h307l-6 -39h-309l-68 -358h-39l66 358h-506l-67 -358h-41l67 358h-309zM479 397h508l109 619h-508z" />
<glyph unicode="$" horiz-adv-x="1181" d="M150 98l10 35q40 -19 92.5 -38.5t158.5 -42.5t203 -23q193 0 298.5 83.5t105.5 235.5q0 73 -29.5 129t-79 92t-114 64t-136 50t-143 44.5t-136 53t-114 70.5t-79 101.5t-29.5 141.5q0 160 111 253t313 97v166h34v-166q195 -5 375 -82l-12 -39q-22 9 -59 22.5t-139.5 36.5 t-190.5 23q-81 0 -150.5 -18t-124 -53.5t-85.5 -95.5t-31 -138q0 -75 29.5 -133t79 -95t114 -65.5t136 -50.5t143 -44.5t136 -52.5t114 -69t79 -99.5t29.5 -138.5q0 -168 -117 -264.5t-326 -97.5v-150h-34v150q-97 4 -196 27t-149.5 42.5t-86.5 38.5z" />
<glyph unicode="%" horiz-adv-x="1585" d="M104 1094q0 150 87 250t225 100q139 0 225 -100t86 -250q0 -149 -86 -247.5t-225 -98.5q-138 0 -225 99t-87 247zM150 1096q0 -132 74.5 -221t193.5 -89q120 0 192 87t72 219q0 134 -74 223.5t-194 89.5q-119 0 -191.5 -88t-72.5 -221zM348 0l826 1434h55l-828 -1434h-53 zM860 336q0 150 86 250t225 100t225.5 -100t86.5 -250q0 -149 -86.5 -247.5t-225.5 -98.5t-225 98.5t-86 247.5zM903 338q0 -132 75 -220.5t196 -88.5q120 0 192 86.5t72 218.5q0 134 -74.5 223.5t-194.5 89.5q-121 0 -193.5 -88t-72.5 -221z" />
<glyph unicode="&#x26;" horiz-adv-x="1310" d="M113 383q0 74 25.5 136.5t78 115t108.5 92t142 88.5q-17 21 -54 62.5t-57.5 66.5t-45 62t-35.5 73.5t-11 75.5q0 127 88 208t209 81q124 0 213.5 -76.5t89.5 -204.5q0 -50 -23 -98t-54 -82t-82.5 -70.5t-88 -57.5t-90.5 -48l486 -539q8 13 19 36t30 95t20 144h43 q0 -78 -21 -155t-42 -114l-21 -38l205 -236h-49l-182 207q-96 -112 -208 -164.5t-249 -52.5q-83 0 -161 25.5t-142 73t-102.5 124t-38.5 170.5zM154 383q0 -83 34.5 -152t91.5 -112.5t128.5 -67.5t148.5 -24q133 0 236 53t194 156l-495 550q-81 -44 -137 -82.5t-104.5 -87.5 t-72.5 -107t-24 -126zM305 1155q0 -19 3 -37.5t11.5 -38.5t14.5 -34.5t22.5 -37t23.5 -33t29 -36t28.5 -33t33 -36t31.5 -33.5q56 29 90.5 49t83.5 54t77 64.5t49 73t21 86.5q0 115 -76.5 179.5t-185.5 64.5q-107 0 -181.5 -69.5t-74.5 -182.5z" />
<glyph unicode="'" horiz-adv-x="432" d="M176 989l45 445h55l-88 -445h-12z" />
<glyph unicode="(" horiz-adv-x="677" d="M127 596q0 143 39 277.5t104.5 240.5t137.5 187t153 143l23 -27q-44 -39 -77.5 -71t-78.5 -82.5t-78 -98t-68 -112.5t-57.5 -132t-36.5 -151t-14 -174t14.5 -173.5t36.5 -149.5t58.5 -131t68.5 -110.5t79 -96.5t79 -81t78 -71l-27 -35q-81 62 -153 143t-137.5 187 t-104.5 240.5t-39 277.5z" />
<glyph unicode=")" horiz-adv-x="675" d="M90 -217q46 41 78 71t79 81t79 96.5t68.5 110.5t58.5 131t36.5 149.5t14.5 173.5t-14 174t-36.5 151t-57.5 132t-68 112.5t-78 98t-78.5 82.5t-77.5 71l23 27q81 -62 153 -143t137.5 -187t104.5 -240.5t39 -277.5t-39 -277.5t-104.5 -240.5t-137.5 -187t-153 -143z" />
<glyph unicode="*" horiz-adv-x="890" d="M170 1104l258 133l-258 133l25 39l241 -156l-12 287h45l-12 -287l241 156l25 -39l-258 -133l258 -133l-25 -39l-241 156l12 -287h-45l12 287l-241 -156z" />
<glyph unicode="+" horiz-adv-x="1087" d="M158 616v43h364v365h43v-365h365v-43h-365v-364h-43v364h-364z" />
<glyph unicode="," horiz-adv-x="487" d="M154 -199q63 37 100.5 102t7.5 124q-12 -27 -47 -27q-28 0 -38.5 17t-10.5 34q0 27 22 44.5t45 17.5q42 0 67.5 -40.5t25.5 -84.5q0 -66 -47.5 -120t-114.5 -85z" />
<glyph unicode="-" horiz-adv-x="1058" d="M172 616v43h715v-43h-715z" />
<glyph unicode="." horiz-adv-x="468" d="M170 61q0 28 18.5 47t44.5 19q28 0 47 -19t19 -47q0 -26 -19 -43.5t-47 -17.5q-26 0 -44.5 18t-18.5 43z" />
<glyph unicode="/" horiz-adv-x="960" d="M88 -66l739 1565h45l-737 -1565h-47z" />
<glyph unicode="0" horiz-adv-x="1402" d="M145 717q0 119 22.5 226.5t68.5 199t111 158.5t156.5 105t198.5 38q133 0 240.5 -58t176 -157.5t105 -230t36.5 -279.5q0 -119 -22.5 -227.5t-69 -200t-112.5 -158.5t-157 -105t-199 -38q-132 0 -239 58t-175 158t-104.5 230.5t-36.5 280.5zM186 717q0 -111 21 -213 t64 -189t104 -151t145.5 -100.5t184.5 -36.5q123 0 222 55t162 149.5t96.5 218.5t33.5 265t-34 265t-97.5 220t-163.5 151.5t-224 55.5q-123 0 -222 -55t-162 -150t-96.5 -219t-33.5 -266z" />
<glyph unicode="1" horiz-adv-x="591" d="M94 1300l232 134h34v-1434h-41v1384l-208 -112z" />
<glyph unicode="2" horiz-adv-x="1132" d="M109 0v37l493 489q311 305 311 523q0 168 -110 263t-291 95q-147 0 -317 -100l-19 30q63 40 158.5 73.5t185.5 33.5q192 0 313 -105.5t121 -287.5q0 -50 -15 -104t-33.5 -96.5t-54 -94.5t-58 -81.5t-65 -75t-54 -57t-45.5 -44.5l-465 -461h831v-37h-886z" />
<glyph unicode="3" horiz-adv-x="1138" d="M152 80l14 29q67 -33 162 -57.5t190 -24.5q90 0 169.5 23t142 67t99 115.5t36.5 162.5q0 87 -39.5 158t-104.5 115t-144.5 68t-164.5 24h-117v31h148q63 0 124.5 19.5t114.5 57.5t86 101.5t33 142.5q0 77 -29.5 135t-82 92t-118.5 51t-145 17q-149 0 -313 -53l-12 30 q174 60 336 60q112 0 201 -34.5t145.5 -111.5t56.5 -186q0 -72 -27 -133.5t-71.5 -102t-96.5 -66.5t-108 -36q163 -30 266 -127.5t103 -255.5q0 -128 -65.5 -220t-174 -136.5t-246.5 -44.5q-99 0 -198 27t-170 63z" />
<glyph unicode="4" horiz-adv-x="1222" d="M96 395v39l801 1000h31v-1002h192v-37h-192v-395h-41v395h-791zM143 432h744v928z" />
<glyph unicode="5" horiz-adv-x="1181" d="M147 90l15 29q206 -92 383 -92q210 0 340.5 121.5t130.5 308.5q0 178 -120.5 294.5t-307.5 116.5q-184 0 -348 -116l-33 14l86 668h713v-37h-680l-76 -598q164 104 344 104q201 0 332 -125.5t131 -320.5q0 -212 -144 -339.5t-366 -127.5q-185 0 -400 100z" />
<glyph unicode="6" horiz-adv-x="1277" d="M145 641q0 74 6 144.5t23 153t44 152.5t73 136.5t105.5 113t146 75t190.5 28.5q162 0 350 -72l-14 -35q-186 70 -342 70q-86 0 -161.5 -23t-145.5 -78.5t-121 -138.5t-81.5 -211.5t-31.5 -289.5l4 -142q13 92 61 168.5t115.5 124t144 73t151.5 25.5q97 0 182.5 -28 t154 -82.5t108.5 -145t40 -206.5q0 -89 -31.5 -171t-89.5 -147.5t-151.5 -105t-208.5 -39.5q-238 0 -379.5 168t-141.5 483zM215 446q0 -79 33 -154.5t90 -134t143 -94.5t185 -36q131 0 232.5 59.5t153.5 156t52 210.5q0 107 -36 190.5t-98 134t-140 76t-168 25.5 q-83 0 -163 -32t-143 -88t-102 -138t-39 -175z" />
<glyph unicode="7" horiz-adv-x="1071" d="M115 1397v37h893v-35l-627 -1399h-45l627 1397h-848z" />
<glyph unicode="8" horiz-adv-x="1204" d="M129 381q0 151 100.5 251.5t266.5 127.5q-146 30 -226 122.5t-80 213.5q0 156 118.5 252t291.5 96q175 0 295.5 -96t120.5 -252q0 -122 -78 -213.5t-221 -122.5q165 -28 261.5 -127.5t96.5 -251.5q0 -93 -38 -168t-103.5 -123t-150.5 -74t-181 -26t-181 26t-150.5 74 t-103.5 123t-38 168zM170 385q0 -154 118.5 -256t313.5 -102q196 0 314 101.5t118 256.5q0 152 -118.5 252t-313.5 100q-196 0 -314 -100t-118 -252zM231 1092q0 -130 101 -220t268 -90q168 0 271.5 90t103.5 220q0 96 -53 169t-137.5 109.5t-184.5 36.5q-152 0 -260.5 -86 t-108.5 -229z" />
<glyph unicode="9" horiz-adv-x="1282" d="M133 981q0 89 31.5 171t89.5 147.5t151.5 105t208.5 39.5q238 0 379.5 -168t141.5 -483q0 -60 -3 -115t-12 -119.5t-23 -121t-38 -115t-55 -106.5t-76 -91t-99.5 -72t-126 -46t-155.5 -17q-164 0 -350 71l14 35q183 -69 342 -69q90 0 166.5 22t146.5 76t119 137t78.5 212 t30.5 294l-4 141q-10 -95 -56.5 -173t-114 -126t-145.5 -74t-156 -26q-97 0 -182.5 28t-154 83.5t-108.5 148t-40 211.5zM176 981q0 -110 36 -195t98 -136t140 -77t168 -26q86 0 166.5 31t143 86.5t100 139.5t37.5 183q0 79 -33 154.5t-90 134.5t-143 95t-185 36 q-131 0 -232.5 -59.5t-153.5 -156t-52 -210.5z" />
<glyph unicode=":" horiz-adv-x="473" d="M172 61q0 28 19 47t45 19q28 0 46.5 -19t18.5 -47q0 -26 -18.5 -43.5t-46.5 -17.5q-26 0 -45 18t-19 43zM172 881q0 27 19 46t45 19q28 0 46.5 -18.5t18.5 -46.5q0 -26 -18.5 -44t-46.5 -18q-26 0 -45 18.5t-19 43.5z" />
<glyph unicode=";" horiz-adv-x="550" d="M188 -199q63 38 101 102.5t8 123.5q-12 -27 -47 -27q-28 0 -38.5 17t-10.5 34q0 27 22 44.5t45 17.5q42 0 67 -40.5t25 -84.5q0 -66 -47 -120t-114 -85zM201 881q0 28 18.5 46.5t44.5 18.5q28 0 47 -18.5t19 -46.5q0 -26 -19 -44t-47 -18q-26 0 -44.5 18.5t-18.5 43.5z " />
<glyph unicode="&#x3c;" horiz-adv-x="919" d="M147 657v48l572 296v-57l-533 -262l535 -260v-62z" />
<glyph unicode="=" horiz-adv-x="1042" d="M180 479v43h682v-43h-682zM180 788v43h682v-43h-682z" />
<glyph unicode="&#x3e;" horiz-adv-x="917" d="M197 360v62l534 260l-532 262v57l571 -296v-48z" />
<glyph unicode="?" horiz-adv-x="950" d="M121 1348q58 44 147 70t170 26q114 0 204 -35.5t146 -112.5t56 -186q0 -59 -22.5 -110.5t-58.5 -90t-79.5 -74l-87 -71t-79.5 -73.5t-58.5 -88.5t-22.5 -108.5v-175h-39v175q0 65 22.5 119.5t58 93.5t78.5 74t86 69.5t78.5 70.5t58 85.5t22.5 107.5q0 95 -54 162.5 t-133.5 97t-173.5 29.5q-74 0 -154.5 -23t-142.5 -63zM365 39q0 25 14 39t37 14q24 0 38.5 -14.5t14.5 -38.5q0 -22 -14.5 -35.5t-38.5 -13.5q-23 0 -37 13.5t-14 35.5z" />
<glyph unicode="@" horiz-adv-x="1923" d="M127 610q0 169 66 321t179 262.5t273.5 175.5t341.5 65q121 0 236.5 -27t223.5 -87t189 -146.5t130 -216t49 -285.5q0 -97 -18.5 -178.5t-57 -147.5t-105.5 -103.5t-157 -37.5q-113 0 -173.5 50.5t-62.5 137.5q-38 -84 -123.5 -136t-183.5 -52q-82 0 -147 27t-106.5 86.5 t-41.5 144.5q0 69 32.5 117.5t86 71.5t105 32.5t106.5 9.5q32 0 65 -3.5t57.5 -8t51 -11.5t41 -11.5t32.5 -11t21 -7.5v123q0 130 -62 181.5t-192 51.5q-116 0 -246 -39l-12 37q156 39 266 39q149 0 218 -64.5t69 -209.5v-348q0 -85 55.5 -125.5t147.5 -40.5 q83 0 142.5 37.5t91 101.5t45.5 135.5t14 153.5q0 150 -47 273.5t-124 205t-180.5 137.5t-212.5 80.5t-223 24.5q-173 0 -326 -62.5t-260 -168.5t-169 -251t-62 -305q0 -173 57 -321t159 -252.5t248.5 -163.5t319.5 -59q153 0 281 49l10 -37q-145 -53 -293 -53 q-236 0 -424 105.5t-294.5 297.5t-106.5 436zM678 463q0 -104 73 -161.5t183 -57.5q119 0 211 83t92 191v84q-13 6 -43 16.5t-96.5 23.5t-130.5 13q-52 0 -98 -8.5t-91.5 -28t-72.5 -59.5t-27 -96z" />
<glyph unicode="A" horiz-adv-x="1333" d="M82 0l555 1444h57l557 -1444h-45l-166 426h-749l-164 -426h-45zM305 461h721l-358 944h-4z" />
<glyph unicode="B" horiz-adv-x="1349" d="M229 0v1434h543q163 0 268 -105t105 -276q0 -110 -49.5 -196.5t-141.5 -123.5q118 -41 193.5 -133.5t75.5 -224.5q0 -172 -106.5 -273.5t-276.5 -101.5h-611zM270 37h572q142 0 240 91t98 243q0 145 -96 241.5t-242 96.5h-572v-672zM270 745h537q132 0 213.5 79.5 t81.5 217.5q0 166 -94.5 260.5t-239.5 94.5h-498v-652z" />
<glyph unicode="C" horiz-adv-x="1372" d="M127 717q0 203 97 370.5t262 262t360 94.5q203 0 414 -98l-15 -31q-21 10 -57.5 25.5t-140 41t-195.5 25.5q-190 0 -347 -90.5t-247 -249t-90 -350.5t90 -350.5t247 -249t347 -90.5q92 0 190 23t150 46l53 23l15 -31q-211 -98 -414 -98q-195 0 -360 94.5t-262 262 t-97 370.5z" />
<glyph unicode="D" horiz-adv-x="1462" d="M229 0v1434h473q25 0 58 -3.5t109 -25.5t145 -62q161 -94 236 -259t75 -367t-75 -367.5t-236 -259.5q-157 -90 -312 -90h-473zM270 37h432q22 0 53.5 3.5t103.5 25t136 59.5q146 85 217.5 239t71.5 353t-71.5 353t-217.5 239q-64 38 -136 59.5t-103.5 25t-53.5 3.5h-432 v-1360z" />
<glyph unicode="E" horiz-adv-x="1331" d="M229 0v1434h953v-37h-912v-684h785v-35h-785v-641h953v-37h-994z" />
<glyph unicode="F" horiz-adv-x="1251" d="M229 0v1434h953v-37h-912v-690h785v-37h-785v-670h-41z" />
<glyph unicode="G" horiz-adv-x="1540" d="M129 715q0 152 56 287t153 232t233.5 153.5t290.5 56.5q212 0 438 -105l-14 -30q-2 0 -28 10.5t-66.5 25t-91 28.5t-113.5 24t-121 10q-195 0 -355 -91.5t-250.5 -249.5t-90.5 -349q0 -143 53.5 -271t145 -219.5t218 -145.5t267.5 -54q286 0 506 198v406h-420v35h461 v-449q-230 -227 -553 -227q-145 0 -277 56.5t-229.5 152.5t-155 231t-57.5 285z" />
<glyph unicode="H" horiz-adv-x="1521" d="M229 0v1434h41v-697h981v697h41v-1434h-41v702h-981v-702h-41z" />
<glyph unicode="I" horiz-adv-x="499" d="M229 0v1434h41v-1434h-41z" />
<glyph unicode="J" horiz-adv-x="1064" d="M47 238l35 14q39 -96 132 -160.5t218 -64.5q75 0 142.5 26t120.5 75.5t84.5 129t31.5 178.5v998h41v-863v-141q-1 -140 -58.5 -241.5t-150.5 -150t-211 -48.5q-138 0 -240 71.5t-145 176.5z" />
<glyph unicode="K" horiz-adv-x="1241" d="M229 0v1434h41l-2 -971l815 971h52l-533 -641l617 -793h-52l-594 766l-303 -354v-412h-41z" />
<glyph unicode="L" horiz-adv-x="1132" d="M229 0v1434h41v-1397h824v-37h-865z" />
<glyph unicode="M" horiz-adv-x="1820" d="M229 0v1434h64l614 -1297h4l617 1297h63v-1434h-41v1384h-2l-620 -1300h-37l-619 1305h-2v-1389h-41z" />
<glyph unicode="N" horiz-adv-x="1484" d="M229 0v1434h41l496 -719l448 -658h3l-3 553v824h41v-1434h-47l-499 727l-439 645h-2l2 -555v-817h-41z" />
<glyph unicode="O" horiz-adv-x="1699" d="M127 717q0 154 57.5 289.5t154.5 231t230 151t279 55.5q147 0 280 -55.5t230.5 -151t155 -231t57.5 -289.5t-57.5 -289.5t-155 -231t-230.5 -151t-280 -55.5q-146 0 -279 55.5t-230 151t-154.5 231t-57.5 289.5zM168 717q0 -146 54 -275t146 -219.5t217 -143t263 -52.5 q186 0 342 89t248 248t92 353t-92 353t-248 248t-342 89q-138 0 -263 -52.5t-217 -143t-146 -219.5t-54 -275z" />
<glyph unicode="P" horiz-adv-x="1284" d="M229 0v1434h580q164 0 276.5 -120t112.5 -288q0 -166 -110 -285.5t-271 -119.5h-547v-621h-41zM270 657h539q147 0 247.5 108t100.5 259q0 153 -100.5 263t-247.5 110h-539v-740z" />
<glyph unicode="Q" horiz-adv-x="1701" d="M129 717q0 154 57.5 289.5t154.5 231t230 151t279 55.5q147 0 280 -55.5t230.5 -151t155 -231t57.5 -289.5q0 -135 -44.5 -257t-122 -214t-184 -155.5t-229.5 -86.5q85 -55 207 -105.5t197.5 -74t81.5 -23.5l-15 -37q-23 6 -85.5 26.5t-196.5 79t-244 126.5 q-44 -6 -88 -6q-146 0 -279 55.5t-230 151t-154.5 231t-57.5 289.5zM170 717q0 -146 54 -275t146 -219.5t217 -143t263 -52.5q186 0 342 89t248 248t92 353t-92 353t-248 248t-342 89q-138 0 -263 -52.5t-217 -143t-146 -219.5t-54 -275z" />
<glyph unicode="R" horiz-adv-x="1361" d="M229 0v1434h596q165 0 276 -109.5t111 -273.5q0 -149 -93 -256t-236 -127l385 -668h-49l-381 664h-568v-664h-41zM270 700h555q145 0 245.5 101.5t100.5 249.5t-99 247t-247 99h-555v-697z" />
<glyph unicode="S" horiz-adv-x="1200" d="M131 98l12 31q240 -102 475 -102q206 0 317.5 84t111.5 239q0 37 -8.5 70.5t-21 59.5t-36 50t-44 41t-56 34.5t-61 28.5t-69 25.5t-69.5 22t-74 20.5q-49 14 -78 22.5t-74.5 24t-73 28t-64.5 32t-59.5 38.5t-47.5 46t-38.5 56t-22.5 66t-9 79q0 165 121.5 257.5 t339.5 92.5q119 0 230 -26t184 -56l-12 -33q-23 9 -62.5 22t-145 34.5t-192.5 21.5q-121 0 -213.5 -31.5t-150.5 -102.5t-58 -175q0 -48 14 -89.5t33.5 -71.5t57 -57.5t68.5 -45t84.5 -37t89 -30.5t96.5 -28q51 -15 77 -22.5t73 -23.5t72.5 -27.5t63.5 -31t59.5 -38t47 -45 t38.5 -55t22 -65t9 -77.5q0 -176 -125.5 -270t-345.5 -94q-107 0 -219.5 23.5t-169.5 44.5t-96 40z" />
<glyph unicode="T" horiz-adv-x="1189" d="M27 1397v37h1136v-37h-549v-1397h-41v1397h-546z" />
<glyph unicode="U" horiz-adv-x="1449" d="M215 438v996h41v-1002q0 -163 138 -284t331 -121t331 121t138 284v1002h41v-996q0 -124 -69.5 -227.5t-186.5 -162t-254 -58.5q-138 0 -255 58.5t-186 162t-69 227.5z" />
<glyph unicode="V" horiz-adv-x="1304" d="M80 1434h41l528 -1379h4l527 1379h43l-547 -1434h-49z" />
<glyph unicode="W" horiz-adv-x="1931" d="M98 1434h41l402 -1362h4l399 1362h45l400 -1362h4l401 1362h41l-426 -1434h-39l-403 1366l-404 -1366h-39z" />
<glyph unicode="X" horiz-adv-x="1269" d="M57 0l553 709l-553 725h49l527 -689h4l526 689h49l-553 -725l553 -709h-49l-526 672h-4l-527 -672h-49z" />
<glyph unicode="Y" horiz-adv-x="1202" d="M74 1434h45l483 -803h4l479 803h45l-505 -842v-592h-41v592z" />
<glyph unicode="Z" horiz-adv-x="1216" d="M78 0v37l1014 1358l-2 4l-357 -2h-633v37h1033v-50l-1004 -1345l2 -4l358 2h644v-37h-1055z" />
<glyph unicode="[" horiz-adv-x="571" d="M209 -365v1815h258v-41h-219v-1733h219v-41h-258z" />
<glyph unicode="\" horiz-adv-x="960" d="M88 1499h45l739 -1565h-47z" />
<glyph unicode="]" horiz-adv-x="571" d="M104 -324h220v1733h-220v41h258v-1815h-258v41z" />
<glyph unicode="_" horiz-adv-x="1099" d="M172 -209h756v-39h-756v39z" />
<glyph unicode="`" horiz-adv-x="514" d="M184 1450l41 23l123 -277h-33z" />
<glyph unicode="a" horiz-adv-x="1142" d="M92 307q0 73 25.5 129t67.5 91t102.5 57.5t124.5 31.5t139 9q82 0 170.5 -10.5t136.5 -20.5l47 -10v161q0 162 -89 227.5t-263 65.5q-194 0 -348 -49l-10 33q191 53 366 53q201 0 293 -76.5t92 -259.5v-651q0 -53 68 -53l65 4v-35q-28 -8 -82 -8q-43 0 -67.5 25.5 t-24.5 68.5v164q-48 -120 -165 -192t-271 -72q-71 0 -135.5 17t-120 52.5t-88.5 99t-33 148.5zM133 305q0 -59 20 -107t52.5 -79.5t77 -52.5t91 -30t95.5 -9q178 0 307 108t129 258v152q-172 43 -352 43q-67 0 -124.5 -8t-113 -28t-95 -51t-63.5 -81t-24 -115z" />
<glyph unicode="b" horiz-adv-x="1314" d="M193 0v1499h40v-737q56 138 182.5 225.5t278.5 87.5q147 0 263 -72.5t178.5 -196t62.5 -274.5q0 -231 -141 -386.5t-363 -155.5q-163 0 -286 88t-175 233l-10 -311h-30zM231 532q0 -214 130 -359.5t331 -145.5q200 0 332.5 145t132.5 360t-132.5 360.5t-332.5 145.5 q-192 0 -326.5 -144t-134.5 -362z" />
<glyph unicode="c" horiz-adv-x="1064" d="M115 532q0 152 72 276t200 195.5t285 71.5q147 0 291 -61l-15 -31q-14 6 -39 15t-96 24.5t-135 15.5q-111 0 -209 -40t-166 -108t-107.5 -161.5t-39.5 -196.5q0 -138 66.5 -253.5t187 -183.5t268.5 -68q64 0 131.5 13.5t102.5 27.5l36 14l15 -31q-144 -61 -291 -61 q-118 0 -221.5 42t-177 114t-116 172.5t-42.5 213.5z" />
<glyph unicode="d" horiz-adv-x="1314" d="M117 532q0 151 62.5 274.5t178.5 196t263 72.5q152 0 278 -87.5t182 -225.5v737h41v-1499h-30l-11 311q-52 -145 -174.5 -233t-285.5 -88q-222 0 -363 155.5t-141 386.5zM158 532q0 -215 132.5 -360t332.5 -145q201 0 330.5 145.5t129.5 359.5q0 218 -134 362t-326 144 q-200 0 -332.5 -145.5t-132.5 -360.5z" />
<glyph unicode="e" horiz-adv-x="1193" d="M115 532q0 110 38 209t104.5 173t164 117.5t209.5 43.5q117 0 208 -41.5t146.5 -114t84 -165t28.5 -199.5l-2 -41h-940q7 -135 68.5 -244t176 -176t263.5 -67q162 0 342 82l14 -29q-54 -25 -87 -39t-111.5 -32.5t-155.5 -18.5q-125 0 -230 43.5t-174.5 118t-108 173 t-38.5 207.5zM156 549h901v13q0 90 -25 172q-27 88 -79 156t-135 108t-187 40q-133 0 -241.5 -68t-169 -179.5t-64.5 -241.5z" />
<glyph unicode="f" horiz-adv-x="624" d="M76 1030v27l127 8v149q0 147 58.5 222t197.5 75q59 0 133 -16l-2 -35q-66 15 -127 15q-119 0 -169 -67.5t-50 -193.5v-149h329v-35h-329v-1030h-41v1030h-127z" />
<glyph unicode="g" horiz-adv-x="1073" d="M113 -66q0 154 147 248q-92 45 -92 140q0 92 115 172q-56 40 -85.5 108t-29.5 148q0 154 103 239.5t276 85.5q57 0 115 -10h307v-16l-211 -17q168 -84 168 -284q0 -150 -97.5 -236t-283.5 -86q-142 0 -230 49q-106 -64 -106 -153q0 -24 9.5 -44t22.5 -32t26 -21t23 -13 l9 -3q37 -13 91.5 -19.5t97.5 -8.5t124 -3q180 -2 272.5 -56t92.5 -188q0 -282 -434 -282q-97 0 -172 14t-134.5 45.5t-91.5 87.5t-32 135zM150 -61q0 -245 393 -250q54 0 102.5 5t104.5 21.5t96 42.5t67 72.5t27 108.5q0 115 -85 158.5t-261 43.5q-192 0 -295 25 q-149 -84 -149 -227zM207 748q0 -131 88 -207t254 -76q164 0 251 76t87 207q0 139 -91.5 213.5t-246.5 74.5q-158 0 -250 -74.5t-92 -213.5z" />
<glyph unicode="h" d="M193 0v1499h40v-739q7 30 26 68t55.5 82.5t83 80.5t115 60t144.5 24q205 0 306.5 -125t101.5 -338v-612h-41v618q0 195 -91 307.5t-271 112.5q-87 0 -160.5 -30.5t-122 -78.5t-82.5 -108.5t-49 -119.5t-15 -113v-588h-40z" />
<glyph unicode="i" horiz-adv-x="468" d="M127 1038v27h141v-1065h-41v1018zM176 1309q0 23 15.5 39t37.5 16q23 0 38.5 -16t15.5 -39q0 -22 -15.5 -38t-38.5 -16q-22 0 -37.5 16t-15.5 38z" />
<glyph unicode="j" horiz-adv-x="452" d="M-74 -334l11 33l7 -2q6 -2 16.5 -4.5t23.5 -5t29.5 -4.5t31.5 -2q162 0 162 190v1147l-101 20v27h142v-1192q0 -29 -3.5 -56t-16 -59.5t-32.5 -56.5t-56.5 -40.5t-84.5 -16.5q-75 0 -129 22zM154 1309q0 23 15.5 39t37.5 16q23 0 39 -16t16 -39q0 -22 -16 -38t-39 -16 q-22 0 -37.5 16t-15.5 38z" />
<glyph unicode="k" horiz-adv-x="944" d="M193 0v1499h40l-2 -1110l590 676h53l-428 -487l443 -578h-49l-418 549l-189 -215v-334h-40z" />
<glyph unicode="l" horiz-adv-x="507" d="M201 127v1372h41v-1368q0 -104 82 -104q47 0 96 12v-37q-44 -12 -98 -12q-68 0 -94.5 35.5t-26.5 101.5z" />
<glyph unicode="m" horiz-adv-x="1843" d="M193 0v1065h30l10 -229q22 64 63.5 112.5t91.5 75t99.5 39t98.5 12.5q143 0 228.5 -68.5t121.5 -175.5q34 98 136 171t226 73q94 0 165.5 -28t114.5 -79t64 -117.5t21 -148.5v-702h-41v719q0 160 -88.5 239.5t-235.5 79.5q-149 0 -250.5 -103t-101.5 -257v-678h-41v719 q0 82 -26 144.5t-71.5 100t-102 56t-121.5 18.5q-146 0 -248.5 -104.5t-102.5 -255.5v-678h-40z" />
<glyph unicode="n" d="M193 0v1065h30l10 -305q7 30 26 68t55.5 82.5t83 80.5t115 60t144.5 24q205 0 306.5 -125t101.5 -338v-612h-41v618q0 194 -92 307t-270 113q-86 0 -159 -29t-121.5 -76t-83 -107t-50 -120.5t-15.5 -117.5v-588h-40z" />
<glyph unicode="o" horiz-adv-x="1316" d="M113 530q0 240 154.5 392.5t387.5 152.5q154 0 278.5 -68t195.5 -193t71 -284q0 -237 -155 -388.5t-390 -151.5q-152 0 -275.5 68t-195 191.5t-71.5 280.5zM154 530q0 -222 142.5 -362.5t358.5 -140.5q217 0 360.5 141t143.5 362q0 147 -66 263.5t-181 180.5t-257 64 q-215 0 -358 -143t-143 -365z" />
<glyph unicode="p" horiz-adv-x="1312" d="M190 -348v1413h31l10 -320q61 154 181 242t274 88q142 0 259.5 -73t184 -200t66.5 -280q0 -145 -62.5 -265.5t-181 -193.5t-268.5 -73q-152 0 -278.5 89.5t-174.5 225.5v-653h-41zM227 528q0 -218 132.5 -359.5t324.5 -141.5q206 0 338.5 141t132.5 354q0 143 -61 261 t-168 186.5t-238 68.5q-133 0 -239.5 -70t-164 -186t-57.5 -254z" />
<glyph unicode="q" horiz-adv-x="1314" d="M117 532q0 152 68.5 277t186 195.5t259.5 70.5q154 0 272.5 -84.5t177.5 -234.5l11 309h30v-1413h-41v653q-48 -138 -172.5 -226.5t-279.5 -88.5q-114 0 -211.5 44t-162.5 118t-101.5 172.5t-36.5 207.5zM158 532q0 -215 131.5 -360t337.5 -145q193 0 325.5 144 t132.5 361q0 138 -56.5 253t-161.5 184t-238 69q-130 0 -238.5 -67.5t-170.5 -184t-62 -254.5z" />
<glyph unicode="r" horiz-adv-x="626" d="M193 0v1065h28l12 -221q31 102 127 162.5t205 60.5v-37q-136 0 -234 -89.5t-98 -244.5v-696h-40z" />
<glyph unicode="s" horiz-adv-x="956" d="M119 72l10 32q178 -77 360 -77q154 0 239 60.5t85 172.5q0 70 -38 119t-98.5 76t-133.5 47.5t-146 42t-133.5 51.5t-98.5 84t-38 131q0 124 92.5 194t261.5 70q92 0 180.5 -19.5t141.5 -41.5l-12 -35q-16 7 -44.5 16.5t-110 26t-155.5 16.5q-141 0 -227 -57.5t-86 -169.5 q0 -68 38 -116t98.5 -74.5t133.5 -47t146 -43t133.5 -52.5t98.5 -85t38 -133q0 -127 -97 -198.5t-268 -71.5q-188 0 -370 82z" />
<glyph unicode="t" horiz-adv-x="628" d="M53 1030v27l172 8l11 307h30v-307h336v-35h-336v-702q0 -66 3.5 -108.5t14.5 -82.5t31.5 -62t55.5 -35t86 -13q66 0 143 22l4 -37q-82 -22 -164 -22q-58 0 -98 16.5t-63 42t-35 71.5t-15.5 90t-3.5 112v708h-172z" />
<glyph unicode="u" d="M178 432v633h41v-619q0 -202 92.5 -310.5t306.5 -108.5q157 0 274.5 121t117.5 282v635h41v-1065h-31l-10 264q-45 -123 -156 -198.5t-236 -75.5q-223 0 -331.5 113.5t-108.5 328.5z" />
<glyph unicode="v" horiz-adv-x="1052" d="M98 1065h43l383 -1012h4l383 1012h43l-403 -1065h-49z" />
<glyph unicode="w" horiz-adv-x="1626" d="M102 1065h41l336 -993h4l308 993h45l307 -993h4l336 993h41l-361 -1065h-39l-311 997l-311 -997h-39z" />
<glyph unicode="x" horiz-adv-x="1024" d="M63 0l424 535l-424 530h54l395 -502h4l395 502h47l-417 -530l417 -535h-53l-389 506h-4l-395 -506h-54z" />
<glyph unicode="y" horiz-adv-x="1089" d="M96 1065h43l406 -1012h4l397 1012h45l-428 -1081q-56 -140 -93 -198q-86 -134 -204 -134q-66 0 -147 31l12 32q73 -26 129 -26q42 0 79.5 20t62.5 46.5t51 74t40 81t35 89.5z" />
<glyph unicode="z" horiz-adv-x="1030" d="M82 0v31l809 997l-2 4l-357 -2h-428v35h840v-33l-805 -995l2 -4l357 2h446v-35h-862z" />
<glyph unicode="{" horiz-adv-x="659" d="M92 520v45q84 0 123 41t39 127v469q0 132 63.5 190t202.5 58h35v-43h-35q-119 0 -170 -45t-51 -156v-467q0 -79 -21 -128t-81 -68q59 -19 80.5 -68.5t21.5 -128.5v-467q0 -111 51 -156t170 -45h35v-43h-35q-139 0 -202.5 58t-63.5 190v469q0 86 -39 127t-123 41z" />
<glyph unicode="|" horiz-adv-x="452" d="M207 -293v1931h39v-1931h-39z" />
<glyph unicode="}" horiz-adv-x="659" d="M102 -322h35q119 0 170 45t51 156v467q0 79 21.5 128.5t81.5 68.5q-60 19 -81.5 68t-21.5 128v467q0 111 -51 156t-170 45h-35v43h35q139 0 202.5 -58t63.5 -190v-469q0 -86 39 -127t123 -41v-45q-84 0 -123 -41t-39 -127v-469q0 -132 -63.5 -190t-202.5 -58h-35v43z" />
<glyph unicode="&#xa1;" horiz-adv-x="477" d="M184 1026q0 22 14.5 35.5t37.5 13.5q24 0 38.5 -13.5t14.5 -35.5q0 -24 -14.5 -38.5t-38.5 -14.5t-38 14.5t-14 38.5zM205 -379l12 1124h31l14 -1124h-57z" />
<glyph unicode="&#xa2;" horiz-adv-x="1179" d="M111 702q0 220 145.5 373t368.5 168v174h30v-172h13q146 0 290 -61l-14 -31q-14 6 -39 15t-96 24.5t-135 15.5q-111 0 -209 -40t-166 -108t-107.5 -161.5t-39.5 -196.5q0 -138 66.5 -253.5t187 -183.5t268.5 -68q64 0 131.5 13.5t102.5 27.5l36 14l14 -31 q-144 -61 -290 -61h-13v-170h-30v172q-223 15 -368.5 167.5t-145.5 372.5z" />
<glyph unicode="&#xa3;" horiz-adv-x="1175" d="M123 0v39q5 2 13 7t28.5 24t36 41t28.5 59.5t13 79.5v414h-119v34h119v338q0 179 110.5 293.5t280.5 114.5q96 0 178 -43t139 -117l-28 -22q-51 67 -126 106t-163 39q-151 0 -250.5 -104.5t-99.5 -266.5v-338h561v-34h-561v-414q0 -40 -10 -76.5t-23 -59t-29.5 -41 t-25.5 -25.5t-15 -11h844v-37h-901z" />
<glyph unicode="&#xa5;" horiz-adv-x="1212" d="M78 1434h45l483 -803h4l480 803h45l-506 -842v-80h293v-31h-293v-129h293v-33h-293v-319h-41v319h-293v33h293v129h-293v31h293v80z" />
<glyph unicode="&#xa7;" horiz-adv-x="1224" d="M145 588q0 164 189 319q6 4 8 6q-180 86 -180 226q0 152 116 223.5t351 71.5q192 0 413 -91l-14 -34q-226 90 -397 90q-96 0 -170 -12.5t-134.5 -41t-93 -80t-32.5 -124.5q0 -34 12.5 -64.5t30.5 -53t52.5 -44.5t62.5 -36.5t77.5 -32.5t81 -27.5t88.5 -26.5 q198 -60 272 -95q168 -79 197 -202q6 -29 6 -59q0 -46 -17.5 -94t-40.5 -83t-53.5 -69t-50.5 -51t-36 -29q180 -83 180 -225q0 -152 -116.5 -224.5t-350.5 -72.5q-186 0 -414 90l15 35q109 -43 202.5 -66.5t202.5 -23.5q424 0 424 260q0 34 -12.5 64.5t-31.5 53.5 t-52.5 44.5t-64.5 36.5t-78 32t-83 28t-90 27l-51 15q-54 16 -91 28t-84.5 31t-79 37t-65 44t-53.5 54t-32.5 65.5t-12.5 80.5zM180 590q0 -54 23 -98.5t66 -77.5t93.5 -59t116.5 -48t124 -38.5t128 -37.5t117 -38q82 62 140.5 141.5t58.5 165.5q0 61 -33 111t-82.5 82.5 t-124.5 63t-141.5 49t-151.5 44t-137 45.5q-197 -146 -197 -305z" />
<glyph unicode="&#xa8;" horiz-adv-x="819" d="M199 1284q0 17 13 30t30 13t30 -13t13 -30t-13 -30t-30 -13t-30 13t-13 30zM530 1284q0 17 13 30t30 13t29 -13t12 -30t-12 -30t-29 -13t-30 13t-13 30z" />
<glyph unicode="&#xa9;" horiz-adv-x="1710" d="M141 715q0 146 57 279.5t153 229.5t228 153t277 57t277 -57t228 -153t153 -229.5t57 -279.5q0 -115 -36.5 -224t-103 -197t-154.5 -154.5t-197 -103t-224 -36.5t-224 36.5t-197 103t-154.5 154.5t-103 197t-36.5 224zM182 715q0 -182 90.5 -338t246 -247t337.5 -91 t337.5 91t246 247t90.5 338q0 140 -52.5 266.5t-142.5 217t-215 143.5t-264 53t-264 -53t-215 -143.5t-142.5 -217t-52.5 -266.5zM530 721q0 148 96 244t242 96q117 0 209 -76l-22 -31q-85 66 -185 66q-130 0 -210 -84t-80 -217q0 -130 80 -213.5t208 -83.5q101 0 189 63 l18 -30q-81 -72 -207 -72q-148 0 -243 94.5t-95 243.5z" />
<glyph unicode="&#xaa;" horiz-adv-x="1005" d="M180 952q0 64 26 110.5t71.5 71t97.5 35.5t114 11q105 0 224 -41v88q0 61 -8.5 101.5t-32 73.5t-70 48.5t-117.5 15.5q-115 0 -241 -36l-11 32q134 41 261 41q135 0 197.5 -59t62.5 -189v-464q0 -21 28 -21q8 0 24 1t17 1v-33q-32 -8 -57 -8q-53 0 -53 49v101 q-32 -74 -106.5 -115t-157.5 -41q-120 0 -194.5 57.5t-74.5 169.5zM184 479v37h633v-37h-633zM221 952q0 -94 62.5 -142t165.5 -48q109 0 186.5 70.5t77.5 166.5v99q-116 45 -228 45q-72 0 -128.5 -16.5t-96 -61t-39.5 -113.5z" />
<glyph unicode="&#xab;" horiz-adv-x="1036" d="M121 532v3l403 448l25 -25l-365 -426l363 -428l-23 -22zM471 532v3l403 448l23 -25l-365 -426l363 -428l-21 -22z" />
<glyph unicode="&#xad;" horiz-adv-x="1058" d="M172 616v43h715v-43h-715z" />
<glyph unicode="&#xae;" horiz-adv-x="1259" d="M176 971q0 193 133.5 328t321.5 135t321 -135t133 -328q0 -188 -133.5 -321.5t-320.5 -133.5t-321 134t-134 321zM207 973q0 -175 124.5 -299.5t299.5 -124.5t299.5 124.5t124.5 299.5q0 178 -124.5 303t-299.5 125t-299.5 -125t-124.5 -303zM485 741v469h191 q54 0 91.5 -37.5t37.5 -91.5q0 -46 -30 -82t-75 -43l123 -215h-32l-123 211h-154v-211h-29zM514 981h162q41 0 69.5 30t28.5 70q0 44 -30.5 72.5t-73.5 28.5h-156v-201z" />
<glyph unicode="&#xaf;" horiz-adv-x="919" d="M172 1257v35h584v-35h-584z" />
<glyph unicode="&#xb0;" horiz-adv-x="692" d="M164 1278q0 77 52.5 126.5t129.5 49.5t129.5 -49.5t52.5 -126.5q0 -76 -52.5 -125t-129.5 -49t-129.5 49t-52.5 125zM207 1278q0 -65 41 -102t98 -37q55 0 97 37t42 102q0 68 -41.5 104.5t-97.5 36.5q-57 0 -98 -36.5t-41 -104.5z" />
<glyph unicode="&#xb1;" horiz-adv-x="970" d="M178 279v40h615v-40h-615zM178 760v41h287v266h41v-266h287v-41h-287v-266h-41v266h-287z" />
<glyph unicode="&#xb4;" horiz-adv-x="514" d="M168 1219l123 276l41 -22l-131 -254h-33z" />
<glyph unicode="&#xb5;" horiz-adv-x="1247" d="M205 -348v1413h41v-649q0 -177 108.5 -283t276.5 -106q199 0 306 102t107 299v637h41v-1065h-34l-11 207q-55 -110 -161.5 -163.5t-245.5 -53.5q-138 0 -244 64.5t-143 168.5v-571h-41z" />
<glyph unicode="&#xb6;" horiz-adv-x="905" d="M96 1063q0 156 96 263.5t248 107.5h238v-1608h-41v1567h-92v-1567h-41v844h-74q-156 6 -245 120.5t-89 272.5z" />
<glyph unicode="&#xb7;" horiz-adv-x="512" d="M170 608q0 35 25 59.5t59 24.5q35 0 60.5 -24.5t25.5 -59.5t-25.5 -59.5t-60.5 -24.5q-34 0 -59 24.5t-25 59.5z" />
<glyph unicode="&#xb8;" horiz-adv-x="622" d="M162 -369l8 27q40 -8 92 -8q154 0 154 94q0 41 -29.5 65.5t-77.5 24.5q-25 0 -43 -6l-20 29l47 133h37l-41 -127q12 2 20 2q61 0 105.5 -28t44.5 -91q0 -68 -50.5 -99.5t-125.5 -31.5q-68 0 -121 16z" />
<glyph unicode="&#xba;" horiz-adv-x="1169" d="M182 1112q0 165 110.5 278t289.5 113q180 0 290.5 -112.5t110.5 -278.5q0 -165 -111.5 -276t-289.5 -111t-289 111t-111 276zM203 479v37h758v-37h-758zM223 1112q0 -147 102 -248.5t257 -101.5q156 0 258 101.5t102 248.5q0 149 -102.5 251.5t-257.5 102.5 q-154 0 -256.5 -102.5t-102.5 -251.5z" />
<glyph unicode="&#xbb;" horiz-adv-x="1036" d="M139 958l21 25l405 -448v-3l-405 -450l-19 22l363 428zM489 958l25 25l404 -448v-3l-404 -450l-22 22l362 428z" />
<glyph unicode="&#xbf;" horiz-adv-x="919" d="M96 -49q0 58 22.5 109t58 89t78.5 73l86 70t78.5 72.5t58 87.5t22.5 107v186h39v-186q0 -64 -22 -118t-57.5 -92.5t-78 -73t-85 -68.5t-78 -69.5t-57.5 -84.5t-22 -106q0 -71 30.5 -127t81.5 -89.5t113.5 -51t131.5 -17.5q72 0 151 22.5t141 61.5l23 -29 q-58 -44 -145.5 -70t-167.5 -26q-113 0 -202.5 35.5t-144.5 111.5t-55 183zM467 1026q0 22 14.5 35.5t38.5 13.5q22 0 35.5 -13.5t13.5 -35.5q0 -24 -13.5 -37.5t-35.5 -13.5q-24 0 -38.5 13.5t-14.5 37.5z" />
<glyph unicode="&#xc0;" horiz-adv-x="1333" d="M82 0l555 1444h57l557 -1444h-45l-166 426h-749l-164 -426h-45zM305 461h721l-358 944h-4zM514 1769l41 23l123 -276h-33z" />
<glyph unicode="&#xc1;" horiz-adv-x="1333" d="M82 0l555 1444h57l557 -1444h-45l-166 426h-749l-164 -426h-45zM305 461h721l-358 944h-4zM655 1516l123 276l41 -23l-131 -253h-33z" />
<glyph unicode="&#xc2;" horiz-adv-x="1333" d="M82 0l555 1444h57l557 -1444h-45l-166 426h-749l-164 -426h-45zM305 461h721l-358 944h-4zM473 1524l180 192h29l180 -192h-49l-145 153l-146 -153h-49z" />
<glyph unicode="&#xc3;" horiz-adv-x="1333" d="M82 0l555 1444h57l557 -1444h-45l-166 426h-749l-164 -426h-45zM305 461h721l-358 944h-4zM395 1550q52 84 152 84q43 0 121 -40t127 -40q65 0 118 74l25 -16q-27 -46 -68 -71t-86 -25q-44 0 -123.5 39.5t-128.5 39.5q-39 0 -63 -15.5t-49 -45.5z" />
<glyph unicode="&#xc4;" horiz-adv-x="1333" d="M82 0l555 1444h57l557 -1444h-45l-166 426h-749l-164 -426h-45zM305 461h721l-358 944h-4zM457 1567q0 17 13 30t30 13t30 -13t13 -30t-13 -30t-30 -13t-30 13t-13 30zM788 1567q0 17 13 30t30 13t29 -13t12 -30t-12 -30t-29 -13t-30 13t-13 30z" />
<glyph unicode="&#xc5;" horiz-adv-x="1333" d="M82 0l555 1444h57l557 -1444h-45l-166 426h-749l-164 -426h-45zM305 461h721l-358 944h-4zM512 1669q0 65 43.5 106.5t108.5 41.5q67 0 110 -41.5t43 -106.5q0 -64 -43.5 -104.5t-109.5 -40.5q-65 0 -108.5 40.5t-43.5 104.5zM551 1669q0 -52 34 -82.5t79 -30.5 t79.5 30.5t34.5 82.5q0 55 -34.5 85t-79.5 30t-79 -30t-34 -85z" />
<glyph unicode="&#xc6;" horiz-adv-x="1949" d="M59 0l676 1434h1069v-37h-911v-684h784v-35h-784v-641h952v-37h-993v426h-547l-201 -426h-45zM319 461h533v936h-92z" />
<glyph unicode="&#xc7;" horiz-adv-x="1374" d="M129 717q0 203 97 370.5t262 262t360 94.5q203 0 414 -98l-15 -31q-21 10 -57.5 25.5t-140 41t-195.5 25.5q-190 0 -347 -90.5t-247 -249t-90 -350.5t90 -350.5t247 -249t347 -90.5q92 0 190 23t150 46l53 23l15 -31q-205 -95 -410 -98l-41 -127q11 2 23 2q61 0 105 -28 t44 -91q0 -68 -51.5 -99.5t-126.5 -31.5q-66 0 -119 16l8 27q40 -8 97 -8q149 0 149 94q0 41 -29 65.5t-77 24.5q-31 0 -43 -4l-21 27l47 135q-141 5 -268 63t-219.5 153t-146.5 228t-54 281z" />
<glyph unicode="&#xc8;" horiz-adv-x="1331" d="M229 0v1434h953v-37h-912v-684h785v-35h-785v-641h953v-37h-994zM602 1769l41 23l123 -276h-33z" />
<glyph unicode="&#xc9;" horiz-adv-x="1331" d="M229 0v1434h953v-37h-912v-684h785v-35h-785v-641h953v-37h-994zM657 1516l123 276l41 -23l-131 -253h-33z" />
<glyph unicode="&#xca;" horiz-adv-x="1331" d="M229 0v1434h953v-37h-912v-684h785v-35h-785v-641h953v-37h-994zM543 1524l180 192h29l180 -192h-49l-146 153l-145 -153h-49z" />
<glyph unicode="&#xcb;" horiz-adv-x="1331" d="M229 0v1434h953v-37h-912v-682h785v-37h-785v-641h953v-37h-994zM524 1567q0 17 13 30t30 13t30 -13t13 -30t-13 -30t-30 -13t-30 13t-13 30zM856 1567q0 17 13 30t30 13t29 -13t12 -30t-12 -30t-29 -13t-30 13t-13 30z" />
<glyph unicode="&#xcc;" horiz-adv-x="497" d="M100 1769l41 23l123 -276h-33zM227 0v1434h41v-1434h-41z" />
<glyph unicode="&#xcd;" horiz-adv-x="503" d="M229 0v1434h41v-1434h-41zM233 1516l123 276l41 -23l-131 -253h-33z" />
<glyph unicode="&#xce;" horiz-adv-x="499" d="M55 1524l181 192h28l180 -192h-49l-145 153l-146 -153h-49zM227 0v1434h41v-1434h-41z" />
<glyph unicode="&#xcf;" horiz-adv-x="505" d="M43 1567q0 17 13 30t30 13t30 -13t13 -30t-13 -30t-30 -13t-30 13t-13 30zM233 0v1434h41v-1434h-41zM375 1567q0 17 13 30t30 13t29 -13t12 -30t-12 -30t-29 -13t-30 13t-13 30z" />
<glyph unicode="&#xd0;" horiz-adv-x="1462" d="M35 705v30h196v699h474q25 0 57.5 -3.5t108.5 -25.5t145 -62q161 -94 236 -259t75 -367t-75 -367.5t-236 -259.5q-158 -90 -311 -90h-474v705h-196zM272 37h433q22 0 53.5 3.5t103 25t135.5 59.5q146 85 217.5 239t71.5 353t-71.5 353t-217.5 239q-64 38 -135.5 59.5 t-103 25t-53.5 3.5h-433v-662h396v-30h-396v-668z" />
<glyph unicode="&#xd1;" horiz-adv-x="1484" d="M229 0v1434h41l496 -719l448 -658h3l-3 553v824h41v-1434h-47l-499 727l-439 645h-2l2 -555v-817h-41zM485 1550q52 84 152 84q43 0 121 -40t127 -40q66 0 119 74l24 -16q-27 -46 -68 -71t-86 -25q-44 0 -123 39.5t-128 39.5q-39 0 -64 -15.5t-49 -45.5z" />
<glyph unicode="&#xd2;" horiz-adv-x="1701" d="M129 717q0 154 57.5 289.5t154.5 231t230 151t279 55.5q147 0 280 -55.5t230.5 -151t155 -231t57.5 -289.5t-57.5 -289.5t-155 -231t-230.5 -151t-280 -55.5q-146 0 -279 55.5t-230 151t-154.5 231t-57.5 289.5zM170 717q0 -146 54 -275t146 -219.5t217 -143t263 -52.5 q186 0 342 89t248 248t92 353t-92 353t-248 248t-342 89q-138 0 -263 -52.5t-217 -143t-146 -219.5t-54 -275zM743 1769l41 23l123 -276h-33z" />
<glyph unicode="&#xd3;" horiz-adv-x="1699" d="M127 717q0 154 57.5 289.5t154.5 231t230 151t279 55.5q147 0 280 -55.5t230.5 -151t155 -231t57.5 -289.5t-57.5 -289.5t-155 -231t-230.5 -151t-280 -55.5q-146 0 -279 55.5t-230 151t-154.5 231t-57.5 289.5zM168 717q0 -146 54 -275t146 -219.5t217 -143t263 -52.5 q186 0 342 89t248 248t92 353t-92 353t-248 248t-342 89q-138 0 -263 -52.5t-217 -143t-146 -219.5t-54 -275zM786 1516l123 276l41 -23l-131 -253h-33z" />
<glyph unicode="&#xd4;" horiz-adv-x="1701" d="M129 717q0 154 57.5 289.5t154.5 231t230 151t279 55.5q147 0 280 -55.5t230.5 -151t155 -231t57.5 -289.5t-57.5 -289.5t-155 -231t-230.5 -151t-280 -55.5q-146 0 -279 55.5t-230 151t-154.5 231t-57.5 289.5zM170 717q0 -146 54 -275t146 -219.5t217 -143t263 -52.5 q186 0 342 89t248 248t92 353t-92 353t-248 248t-342 89q-138 0 -263 -52.5t-217 -143t-146 -219.5t-54 -275zM657 1524l181 192h28l181 -192h-50l-145 153l-145 -153h-50z" />
<glyph unicode="&#xd5;" horiz-adv-x="1701" d="M129 717q0 154 57.5 289.5t154.5 231t230 151t279 55.5q147 0 280 -55.5t230.5 -151t155 -231t57.5 -289.5t-57.5 -289.5t-155 -231t-230.5 -151t-280 -55.5q-146 0 -279 55.5t-230 151t-154.5 231t-57.5 289.5zM170 717q0 -146 54 -275t146 -219.5t217 -143t263 -52.5 q186 0 342 89t248 248t92 353t-92 353t-248 248t-342 89q-138 0 -263 -52.5t-217 -143t-146 -219.5t-54 -275zM590 1550q52 84 151 84q43 0 121 -40t127 -40q66 0 119 74l25 -16q-27 -46 -68 -71t-86 -25q-44 0 -123.5 39.5t-128.5 39.5q-39 0 -64 -15.5t-49 -45.5z" />
<glyph unicode="&#xd6;" horiz-adv-x="1701" d="M129 717q0 154 57.5 289.5t154.5 231t230 151t279 55.5q147 0 280 -55.5t230.5 -151t155 -231t57.5 -289.5t-57.5 -289.5t-155 -231t-230.5 -151t-280 -55.5q-146 0 -279 55.5t-230 151t-154.5 231t-57.5 289.5zM170 717q0 -146 54 -275t146 -219.5t217 -143t263 -52.5 q186 0 342 89t248 248t92 353t-92 353t-248 248t-342 89q-138 0 -263 -52.5t-217 -143t-146 -219.5t-54 -275zM639 1567q0 17 13 30t30 13t30 -13t13 -30t-13 -30t-30 -13t-30 13t-13 30zM971 1567q0 17 13 30t30 13t29 -13t12 -30t-12 -30t-29 -13t-30 13t-13 30z" />
<glyph unicode="&#xd7;" horiz-adv-x="901" d="M178 422l240 240l-240 241l29 29l242 -240l243 244l31 -31l-244 -243l242 -240l-31 -31l-241 242l-240 -242z" />
<glyph unicode="&#xd8;" horiz-adv-x="1699" d="M127 717q0 154 57.5 289.5t154.5 231t230 151t279 55.5q200 0 377 -105l96 150h43l-109 -168q146 -99 231 -257t85 -347q0 -154 -57.5 -289.5t-155 -231t-230.5 -151t-280 -55.5q-210 0 -377 104l-96 -149h-45l108 170q-144 97 -227.5 254.5t-83.5 347.5zM168 717 q0 -179 78 -328t213 -242l745 1162q-162 98 -356 98q-138 0 -263 -52.5t-217 -143t-146 -219.5t-54 -275zM492 125q159 -98 356 -98q186 0 342 89t248 248t92 353q0 179 -79 327.5t-216 243.5z" />
<glyph unicode="&#xd9;" horiz-adv-x="1449" d="M215 438v996h41v-1002q0 -163 138 -284t331 -121t331 121t138 284v1002h41v-996q0 -124 -69.5 -227.5t-186.5 -162t-254 -58.5q-138 0 -255 58.5t-186 162t-69 227.5zM618 1769l41 23l123 -276h-32z" />
<glyph unicode="&#xda;" horiz-adv-x="1449" d="M215 438v996h41v-1002q0 -163 138 -284t331 -121t331 121t138 284v1002h41v-996q0 -124 -69.5 -227.5t-186.5 -162t-254 -58.5q-138 0 -255 58.5t-186 162t-69 227.5zM672 1516l123 276l41 -23l-131 -253h-33z" />
<glyph unicode="&#xdb;" horiz-adv-x="1449" d="M215 438v996h41v-1002q0 -163 138 -284t331 -121t331 121t138 284v1002h41v-996q0 -124 -69.5 -227.5t-186.5 -162t-254 -58.5q-138 0 -255 58.5t-186 162t-69 227.5zM532 1524l181 192h28l181 -192h-50l-145 153l-145 -153h-50z" />
<glyph unicode="&#xdc;" horiz-adv-x="1449" d="M215 438v996h41v-1002q0 -163 138 -284t331 -121t331 121t138 284v1002h41v-996q0 -124 -69.5 -227.5t-186.5 -162t-254 -58.5q-138 0 -255 58.5t-186 162t-69 227.5zM514 1567q0 17 13 30t30 13t30 -13t13 -30t-13 -30t-30 -13t-30 13t-13 30zM846 1567q0 17 13 30 t30 13t29 -13t12 -30t-12 -30t-29 -13t-30 13t-13 30z" />
<glyph unicode="&#xdd;" horiz-adv-x="1202" d="M74 1434h45l483 -803h4l479 803h45l-505 -842v-592h-41v592zM545 1516l123 276l41 -23l-131 -253h-33z" />
<glyph unicode="&#xde;" horiz-adv-x="1292" d="M229 0v1434h41v-299h539q165 0 277 -119.5t112 -286.5q0 -166 -110 -289t-271 -123h-547v-317h-41zM270 354h539q148 0 248 111t100 262q0 152 -100 261.5t-248 109.5h-539v-744z" />
<glyph unicode="&#xdf;" horiz-adv-x="1130" d="M193 0v1026q0 83 16 150.5t39.5 110t57.5 74t64.5 47t67 24.5t56 10.5t41.5 1.5q165 0 257.5 -85t92.5 -243q0 -56 -21 -111t-46.5 -93t-46.5 -94t-21 -113q0 -38 16 -70t42 -56.5t57.5 -48t63 -50.5t57.5 -57t42 -73.5t16 -95.5q0 -143 -83 -224t-238 -81q-92 0 -183 22 t-120 37l12 37l8 -3q8 -4 22 -9t33.5 -11t45.5 -12.5t53.5 -11.5t62 -8.5t68.5 -3.5q128 0 202 71t74 195q0 55 -21.5 100t-54 73t-70.5 58.5t-70.5 57.5t-54 69.5t-21.5 94.5q0 58 21 115.5t46.5 96.5t46.5 92t21 103q0 134 -75 214.5t-232 80.5q-15 0 -29.5 -1t-47 -8.5 t-60 -21t-60 -42t-54.5 -66.5t-37.5 -100t-15.5 -138v-1030h-40z" />
<glyph unicode="&#xe0;" horiz-adv-x="1142" d="M92 307q0 73 25.5 129t67.5 91t102.5 57.5t124.5 31.5t139 9q82 0 170.5 -10.5t136.5 -20.5l47 -10v161q0 162 -89 227.5t-263 65.5q-194 0 -348 -49l-10 33q191 53 366 53q201 0 293 -76.5t92 -259.5v-651q0 -53 68 -53l65 4v-35q-28 -8 -82 -8q-43 0 -67.5 25.5 t-24.5 68.5v164q-48 -120 -165 -192t-271 -72q-71 0 -135.5 17t-120 52.5t-88.5 99t-33 148.5zM133 305q0 -59 20 -107t52.5 -79.5t77 -52.5t91 -30t95.5 -9q178 0 307 108t129 258v152q-172 43 -352 43q-67 0 -124.5 -8t-113 -28t-95 -51t-63.5 -81t-24 -115zM463 1450 l41 23l123 -277h-33z" />
<glyph unicode="&#xe1;" horiz-adv-x="1142" d="M92 307q0 73 25.5 129t67.5 91t102.5 57.5t124.5 31.5t139 9q82 0 170.5 -10.5t136.5 -20.5l47 -10v161q0 162 -89 227.5t-263 65.5q-194 0 -348 -49l-10 33q191 53 366 53q201 0 293 -76.5t92 -259.5v-651q0 -53 68 -53l65 4v-35q-28 -8 -82 -8q-43 0 -67.5 25.5 t-24.5 68.5v164q-48 -120 -165 -192t-271 -72q-71 0 -135.5 17t-120 52.5t-88.5 99t-33 148.5zM133 305q0 -59 20 -107t52.5 -79.5t77 -52.5t91 -30t95.5 -9q178 0 307 108t129 258v152q-172 43 -352 43q-67 0 -124.5 -8t-113 -28t-95 -51t-63.5 -81t-24 -115zM498 1196 l123 277l41 -23l-132 -254h-32z" />
<glyph unicode="&#xe2;" horiz-adv-x="1142" d="M92 307q0 73 25.5 129t67.5 91t102.5 57.5t124.5 31.5t139 9q82 0 170.5 -10.5t136.5 -20.5l47 -10v161q0 162 -89 227.5t-263 65.5q-194 0 -348 -49l-10 33q191 53 366 53q201 0 293 -76.5t92 -259.5v-651q0 -53 68 -53l65 4v-35q-28 -8 -82 -8q-43 0 -67.5 25.5 t-24.5 68.5v164q-48 -120 -165 -192t-271 -72q-71 0 -135.5 17t-120 52.5t-88.5 99t-33 148.5zM133 305q0 -59 20 -107t52.5 -79.5t77 -52.5t91 -30t95.5 -9q178 0 307 108t129 258v152q-172 43 -352 43q-67 0 -124.5 -8t-113 -28t-95 -51t-63.5 -81t-24 -115zM383 1196 l180 193h29l180 -193h-49l-145 154l-146 -154h-49z" />
<glyph unicode="&#xe3;" horiz-adv-x="1142" d="M92 307q0 73 25.5 129t67.5 91t102.5 57.5t124.5 31.5t139 9q82 0 170.5 -10.5t136.5 -20.5l47 -10v161q0 162 -89 227.5t-263 65.5q-194 0 -348 -49l-10 33q191 53 366 53q201 0 293 -76.5t92 -259.5v-651q0 -53 68 -53l65 4v-35q-28 -8 -82 -8q-43 0 -67.5 25.5 t-24.5 68.5v164q-48 -120 -165 -192t-271 -72q-71 0 -135.5 17t-120 52.5t-88.5 99t-33 148.5zM133 305q0 -59 20 -107t52.5 -79.5t77 -52.5t91 -30t95.5 -9q178 0 307 108t129 258v152q-172 43 -352 43q-67 0 -124.5 -8t-113 -28t-95 -51t-63.5 -81t-24 -115zM297 1223 q52 84 152 84q43 0 120.5 -40t126.5 -40q67 0 119 73l25 -16q-27 -46 -68 -71t-86 -25q-44 0 -123.5 40t-128.5 40q-39 0 -63 -15.5t-49 -46.5z" />
<glyph unicode="&#xe4;" horiz-adv-x="1142" d="M92 307q0 73 25.5 129t67.5 91t102.5 57.5t124.5 31.5t139 9q82 0 170.5 -10.5t136.5 -20.5l47 -10v161q0 162 -89 227.5t-263 65.5q-194 0 -348 -49l-10 33q191 53 366 53q201 0 293 -76.5t92 -259.5v-651q0 -53 68 -53l65 4v-35q-28 -8 -82 -8q-43 0 -67.5 25.5 t-24.5 68.5v164q-48 -120 -165 -192t-271 -72q-71 0 -135.5 17t-120 52.5t-88.5 99t-33 148.5zM133 305q0 -59 20 -107t52.5 -79.5t77 -52.5t91 -30t95.5 -9q178 0 307 108t129 258v152q-172 43 -352 43q-67 0 -124.5 -8t-113 -28t-95 -51t-63.5 -81t-24 -115zM379 1243 q0 17 13 30t30 13t30 -13t13 -30t-13 -30t-30 -13t-30 13t-13 30zM711 1243q0 17 13 30t30 13t29 -13t12 -30t-12 -30t-29 -13t-30 13t-13 30z" />
<glyph unicode="&#xe5;" horiz-adv-x="1142" d="M92 307q0 73 25.5 129t67.5 91t102.5 57.5t124.5 31.5t139 9q82 0 170.5 -10.5t136.5 -20.5l47 -10v161q0 162 -89 227.5t-263 65.5q-194 0 -348 -49l-10 33q191 53 366 53q201 0 293 -76.5t92 -259.5v-651q0 -53 68 -53l65 4v-35q-28 -8 -82 -8q-43 0 -67.5 25.5 t-24.5 68.5v164q-48 -120 -165 -192t-271 -72q-71 0 -135.5 17t-120 52.5t-88.5 99t-33 148.5zM133 305q0 -59 20 -107t52.5 -79.5t77 -52.5t91 -30t95.5 -9q178 0 307 108t129 258v152q-172 43 -352 43q-67 0 -124.5 -8t-113 -28t-95 -51t-63.5 -81t-24 -115zM432 1339 q0 65 43.5 106.5t108.5 41.5q67 0 110 -41.5t43 -106.5q0 -64 -43.5 -104.5t-109.5 -40.5q-65 0 -108.5 40.5t-43.5 104.5zM471 1339q0 -52 34 -82t79 -30t79.5 30t34.5 82q0 55 -34.5 85t-79.5 30t-79 -30t-34 -85z" />
<glyph unicode="&#xe6;" horiz-adv-x="1908" d="M94 307q0 73 25.5 129t68 91t103 57.5t125 31.5t139.5 9q110 0 262 -23q15 129 82 238q-24 108 -110 153t-232 45q-196 0 -350 -49l-10 33q191 53 366 53q158 0 247 -44.5t120 -147.5q71 90 173.5 141t225.5 51q89 0 167 -29.5t135 -81t98.5 -119t62 -144t20.5 -156.5 l-2 -31h-956q7 -135 68.5 -244t176 -176t263.5 -67q148 0 340 84l14 -29q-5 -2 -30.5 -14t-39.5 -17.5t-42.5 -16.5t-52 -17t-55 -13.5t-64.5 -10.5t-68 -3q-155 0 -275.5 65t-191.5 178q-54 -109 -168 -176t-258 -67q-71 0 -135.5 17t-120 52.5t-88.5 99t-33 148.5z M135 305q0 -73 30 -129t80 -87.5t106.5 -46.5t117.5 -15q138 0 251 67t159 172q-66 123 -66 266q0 21 2 31q-142 25 -264 25q-83 0 -152.5 -13.5t-131.5 -44t-97 -88t-35 -137.5zM854 549h918q0 70 -18.5 139.5t-56 132.5t-89 111.5t-124 77t-155.5 28.5q-133 0 -241.5 -68 t-169 -179.5t-64.5 -241.5z" />
<glyph unicode="&#xe7;" horiz-adv-x="1064" d="M115 532q0 152 72 276t200 195.5t285 71.5q147 0 291 -61l-15 -31q-14 6 -39 15t-96 24.5t-135 15.5q-111 0 -209 -40t-166 -108t-107.5 -161.5t-39.5 -196.5q0 -138 66.5 -253.5t187 -183.5t268.5 -68q64 0 131.5 13.5t102.5 27.5l36 14l15 -31q-144 -61 -291 -61 q-25 0 -35 2l-43 -127q14 2 24 2q60 0 104 -29t44 -92q0 -69 -51.5 -100t-128.5 -31q-51 0 -117 16l8 27q46 -8 98 -8q148 0 148 94q0 41 -29.5 65.5t-77.5 24.5q-25 0 -43 -6l-20 29l45 137q-213 25 -348 175t-135 363z" />
<glyph unicode="&#xe8;" horiz-adv-x="1193" d="M115 532q0 110 38 209t104.5 173t164 117.5t209.5 43.5q117 0 208 -41.5t146.5 -114t84 -165t28.5 -199.5l-2 -41h-940q7 -135 68.5 -244t176 -176t263.5 -67q162 0 342 82l14 -29q-54 -25 -87 -39t-111.5 -32.5t-155.5 -18.5q-125 0 -230 43.5t-174.5 118t-108 173 t-38.5 207.5zM156 549h901q2 98 -25 185.5t-79 155.5t-135 108t-187 40q-133 0 -241.5 -68t-169 -179.5t-64.5 -241.5zM526 1450l41 23l123 -277h-33z" />
<glyph unicode="&#xe9;" horiz-adv-x="1193" d="M115 532q0 110 38 209t104.5 173t164 117.5t209.5 43.5q117 0 208 -41.5t146.5 -114t84 -165t28.5 -199.5l-2 -41h-940q7 -135 68.5 -244t176 -176t263.5 -67q162 0 342 82l14 -29q-54 -25 -87 -39t-111.5 -32.5t-155.5 -18.5q-125 0 -230 43.5t-174.5 118t-108 173 t-38.5 207.5zM156 549h901q2 98 -25 185.5t-79 155.5t-135 108t-187 40q-133 0 -241.5 -68t-169 -179.5t-64.5 -241.5zM569 1196l123 277l41 -23l-131 -254h-33z" />
<glyph unicode="&#xea;" horiz-adv-x="1193" d="M115 532q0 110 38 209t104.5 173t164 117.5t209.5 43.5q117 0 208 -41.5t146.5 -114t84 -165t28.5 -199.5l-2 -41h-940q7 -135 68.5 -244t176 -176t263.5 -67q162 0 342 82l14 -29q-54 -25 -87 -39t-111.5 -32.5t-155.5 -18.5q-125 0 -230 43.5t-174.5 118t-108 173 t-38.5 207.5zM156 549h901q2 98 -25 185.5t-79 155.5t-135 108t-187 40q-133 0 -241.5 -68t-169 -179.5t-64.5 -241.5zM438 1196l180 193h29l180 -193h-49l-145 154l-146 -154h-49z" />
<glyph unicode="&#xeb;" horiz-adv-x="1193" d="M115 532q0 110 38 209t104.5 173t164 117.5t209.5 43.5q117 0 208 -41.5t146.5 -114t84 -165t28.5 -199.5l-2 -41h-940q7 -135 68.5 -244t176 -176t263.5 -67q162 0 342 82l14 -29q-54 -25 -87 -39t-111.5 -32.5t-155.5 -18.5q-125 0 -230 43.5t-174.5 118t-108 173 t-38.5 207.5zM156 549h901q2 98 -25 185.5t-79 155.5t-135 108t-187 40q-133 0 -241.5 -68t-169 -179.5t-64.5 -241.5zM424 1243q0 17 13 30t30 13t30 -13t13 -30t-13 -30t-30 -13t-30 13t-13 30zM756 1243q0 17 13 30t30 13t29 -13t12 -30t-12 -30t-29 -13t-30 13t-13 30z " />
<glyph unicode="&#xec;" horiz-adv-x="421" d="M47 1450l41 23l123 -277h-33zM88 1038v27h141v-1065h-41v1018z" />
<glyph unicode="&#xed;" horiz-adv-x="462" d="M127 1038v27h141v-1065h-41v1018zM205 1196l123 277l41 -23l-131 -254h-33z" />
<glyph unicode="&#xee;" horiz-adv-x="432" d="M-12 1196l180 193h29l180 -193h-49l-146 154l-145 -154h-49zM96 1038v27h142v-1065h-41v1018z" />
<glyph unicode="&#xef;" horiz-adv-x="440" d="M-31 1243q0 17 13 30t30 13t30 -13t13 -30t-13 -30t-30 -13t-30 13t-13 30zM111 1038v27h141v-1065h-41v1018zM301 1243q0 17 13 30t30 13t29 -13t12 -30t-12 -30t-29 -13t-30 13t-13 30z" />
<glyph unicode="&#xf0;" horiz-adv-x="1202" d="M98 502q0 208 137.5 339.5t342.5 131.5q158 0 288 -89t168 -247h4q-15 211 -100 391t-233 315l-213 -143l-17 25l207 139q-125 110 -289 184l10 23q169 -70 306 -189l202 138l17 -25l-197 -133q162 -148 252 -349t90 -427q0 -152 -37 -268t-105 -187t-158.5 -106 t-201.5 -35q-112 0 -203 40t-149.5 110t-89.5 162.5t-31 199.5zM139 502q0 -134 49 -240.5t148.5 -170.5t234.5 -64q202 0 325.5 122.5t123.5 362.5q0 101 -39 184t-102.5 134t-141 78.5t-159.5 27.5q-195 0 -317 -122.5t-122 -311.5z" />
<glyph unicode="&#xf1;" d="M193 0v1065h30l10 -305q7 30 26 68t55.5 82.5t83 80.5t115 60t144.5 24q205 0 306.5 -125t101.5 -338v-612h-41v618q0 194 -92 307t-270 113q-86 0 -159 -29t-121.5 -76t-83 -107t-50 -120.5t-15.5 -117.5v-588h-40zM352 1223q52 84 152 84q43 0 121 -40t127 -40 q66 0 118 73l25 -16q-27 -46 -68 -71t-86 -25q-44 0 -123.5 40t-128.5 40q-39 0 -63 -15.5t-49 -46.5z" />
<glyph unicode="&#xf2;" horiz-adv-x="1316" d="M113 530q0 240 154.5 392.5t387.5 152.5q154 0 278.5 -68t195.5 -193t71 -284q0 -237 -155 -388.5t-390 -151.5q-152 0 -275.5 68t-195 191.5t-71.5 280.5zM154 530q0 -222 142.5 -362.5t358.5 -140.5q217 0 360.5 141t143.5 362q0 147 -66 263.5t-181 180.5t-257 64 q-215 0 -358 -143t-143 -365zM575 1450l41 23l123 -277h-32z" />
<glyph unicode="&#xf3;" horiz-adv-x="1316" d="M113 530q0 240 154.5 392.5t387.5 152.5q154 0 278.5 -68t195.5 -193t71 -284q0 -237 -155 -388.5t-390 -151.5q-152 0 -275.5 68t-195 191.5t-71.5 280.5zM154 530q0 -222 142.5 -362.5t358.5 -140.5q217 0 360.5 141t143.5 362q0 147 -66 263.5t-181 180.5t-257 64 q-215 0 -358 -143t-143 -365zM582 1196l123 277l40 -23l-131 -254h-32z" />
<glyph unicode="&#xf4;" horiz-adv-x="1316" d="M113 530q0 240 154.5 392.5t387.5 152.5q154 0 278.5 -68t195.5 -193t71 -284q0 -237 -155 -388.5t-390 -151.5q-152 0 -275.5 68t-195 191.5t-71.5 280.5zM154 530q0 -222 142.5 -362.5t358.5 -140.5q217 0 360.5 141t143.5 362q0 147 -66 263.5t-181 180.5t-257 64 q-215 0 -358 -143t-143 -365zM461 1188l176 192h39l176 -192h-45l-150 145l-151 -145h-45z" />
<glyph unicode="&#xf5;" horiz-adv-x="1316" d="M113 530q0 240 154.5 392.5t387.5 152.5q154 0 278.5 -68t195.5 -193t71 -284q0 -237 -155 -388.5t-390 -151.5q-152 0 -275.5 68t-195 191.5t-71.5 280.5zM154 530q0 -222 142.5 -362.5t358.5 -140.5q217 0 360.5 141t143.5 362q0 147 -66 263.5t-181 180.5t-257 64 q-215 0 -358 -143t-143 -365zM385 1223q52 84 152 84q43 0 120.5 -40t126.5 -40q67 0 119 73l25 -16q-27 -46 -68 -71t-86 -25q-44 0 -123.5 40t-128.5 40q-39 0 -63 -15.5t-49 -46.5z" />
<glyph unicode="&#xf6;" horiz-adv-x="1316" d="M113 530q0 240 154.5 392.5t387.5 152.5q154 0 278.5 -68t195.5 -193t71 -284q0 -237 -155 -388.5t-390 -151.5q-152 0 -275.5 68t-195 191.5t-71.5 280.5zM154 530q0 -222 142.5 -362.5t358.5 -140.5q217 0 360.5 141t143.5 362q0 147 -66 263.5t-181 180.5t-257 64 q-215 0 -358 -143t-143 -365zM444 1243q0 17 13 30t30 13t30 -13t13 -30t-13 -30t-30 -13t-30 13t-13 30zM776 1243q0 17 13 30t30 13t29 -13t12 -30t-12 -30t-29 -13t-30 13t-13 30z" />
<glyph unicode="&#xf7;" horiz-adv-x="1161" d="M178 616v43h805v-43h-805zM512 330q0 29 20.5 49t49.5 20q28 0 47.5 -20t19.5 -49t-19.5 -49.5t-47.5 -20.5q-29 0 -49.5 19t-20.5 51zM512 948q0 29 20.5 49.5t49.5 20.5q28 0 47.5 -20.5t19.5 -49.5t-19.5 -49t-47.5 -20q-29 0 -49.5 18.5t-20.5 50.5z" />
<glyph unicode="&#xf8;" horiz-adv-x="1316" d="M113 530q0 240 154.5 392.5t387.5 152.5q158 0 281 -69l82 124h45l-94 -145q108 -72 169.5 -190t61.5 -265q0 -237 -155 -388.5t-390 -151.5q-155 0 -278 69l-80 -125h-47l92 146q-108 70 -168.5 186.5t-60.5 263.5zM154 530q0 -136 55 -243.5t153 -173.5l553 858 q-118 67 -260 67q-215 0 -358 -143t-143 -365zM397 92q112 -65 258 -65q217 0 360.5 141t143.5 362q0 134 -56 243.5t-155 176.5z" />
<glyph unicode="&#xf9;" d="M178 432v633h41v-619q0 -202 92.5 -310.5t306.5 -108.5q157 0 274.5 121t117.5 282v635h41v-1065h-31l-10 264q-45 -123 -156 -198.5t-236 -75.5q-223 0 -331.5 113.5t-108.5 328.5zM526 1450l41 23l123 -277h-33z" />
<glyph unicode="&#xfa;" d="M178 432v633h41v-619q0 -202 92.5 -310.5t306.5 -108.5q157 0 274.5 121t117.5 282v635h41v-1065h-31l-10 264q-45 -123 -156 -198.5t-236 -75.5q-223 0 -331.5 113.5t-108.5 328.5zM559 1196l123 277l41 -23l-131 -254h-33z" />
<glyph unicode="&#xfb;" d="M178 432v633h41v-619q0 -202 92.5 -310.5t306.5 -108.5q157 0 274.5 121t117.5 282v635h41v-1065h-31l-10 264q-45 -123 -156 -198.5t-236 -75.5q-223 0 -331.5 113.5t-108.5 328.5zM426 1196l180 193h29l180 -193h-49l-145 154l-146 -154h-49z" />
<glyph unicode="&#xfc;" d="M178 432v633h41v-619q0 -202 92.5 -310.5t306.5 -108.5q157 0 274.5 121t117.5 282v635h41v-1065h-31l-10 264q-45 -123 -156 -198.5t-236 -75.5q-223 0 -331.5 113.5t-108.5 328.5zM408 1243q0 17 13 30t30 13t30 -13t13 -30t-13 -30t-30 -13t-30 13t-13 30zM739 1243 q0 17 13 30t30 13t29 -13t12 -30t-12 -30t-29 -13t-30 13t-13 30z" />
<glyph unicode="&#xfd;" horiz-adv-x="1089" d="M96 1065h43l406 -1012h4l397 1012h45l-428 -1081q-56 -140 -93 -198q-86 -134 -204 -134q-66 0 -147 31l12 32q73 -26 129 -26q42 0 79.5 20t62.5 46.5t51 74t40 81t35 89.5zM494 1196l122 277l41 -23l-131 -254h-32z" />
<glyph unicode="&#xfe;" horiz-adv-x="1314" d="M193 -348v1782h40v-689q61 154 181.5 242t279.5 88q227 0 365.5 -153.5t138.5 -399.5q0 -140 -64 -261.5t-183 -196t-265 -74.5q-153 0 -279 88.5t-174 226.5v-653h-40zM229 528q0 -216 133 -358.5t324 -142.5q131 0 239.5 66.5t170 180t61.5 248.5q0 230 -125.5 373 t-335.5 143q-137 0 -244.5 -70t-165 -186t-57.5 -254z" />
<glyph unicode="&#xff;" horiz-adv-x="1089" d="M96 1065h43l406 -1012h4l397 1012h45l-428 -1081q-56 -140 -93 -198q-86 -134 -204 -134q-66 0 -147 31l12 32q73 -26 129 -26q42 0 79.5 20t62.5 46.5t51 74t40 81t35 89.5zM350 1243q0 17 13 30t30 13t30 -13t13 -30t-13 -30t-30 -13t-30 13t-13 30zM682 1243 q0 17 13 30t30 13t29 -13t12 -30t-12 -30t-29 -13t-30 13t-13 30z" />
<glyph unicode="&#x152;" horiz-adv-x="2635" d="M129 717q0 154 57.5 289.5t154.5 231t230 151t279 55.5q237 0 423.5 -135.5t258.5 -356.5v482h952v-37h-911v-684h784v-35h-784v-641h952v-37h-993v479q-72 -220 -258.5 -354.5t-423.5 -134.5q-146 0 -279 55.5t-230 151t-154.5 231t-57.5 289.5zM170 717q0 -146 54 -275 t146 -219.5t217 -143t263 -52.5q186 0 342 89t248 248t92 353t-92 353t-248 248t-342 89q-138 0 -263 -52.5t-217 -143t-146 -219.5t-54 -275z" />
<glyph unicode="&#x153;" horiz-adv-x="2254" d="M115 530q0 240 154.5 392.5t387.5 152.5q193 0 336 -106t189 -283q44 171 176.5 280t316.5 109q110 0 203.5 -45.5t153.5 -120.5t93.5 -169.5t33.5 -194.5l-2 -31h-957q7 -135 68.5 -244t176 -176t263.5 -67q148 0 340 84l14 -29q-5 -2 -30.5 -14t-39.5 -17.5 t-42.5 -16.5t-52 -17t-55 -13.5t-64.5 -10.5t-68 -3q-203 0 -342.5 108.5t-185.5 280.5q-44 -177 -187 -283t-338 -106q-152 0 -275.5 68t-195 191.5t-71.5 280.5zM156 530q0 -222 142.5 -362.5t358.5 -140.5q219 0 361.5 145t142.5 381q0 205 -146.5 345t-357.5 140 q-215 0 -358 -143t-143 -365zM1200 549h918q0 70 -18.5 139.5t-56 132.5t-89 111.5t-124 77t-155.5 28.5q-133 0 -241.5 -68t-169 -179.5t-64.5 -241.5z" />
<glyph unicode="&#x178;" horiz-adv-x="1202" d="M74 1434h45l483 -803h4l479 803h45l-505 -842v-592h-41v592zM391 1567q0 17 13 30t30 13t30 -13t13 -30t-13 -30t-30 -13t-30 13t-13 30zM723 1567q0 17 13 30t30 13t29 -13t12 -30t-12 -30t-29 -13t-30 13t-13 30z" />
<glyph unicode="&#x2c6;" horiz-adv-x="747" d="M182 1307l180 192h29l180 -192h-49l-145 153l-146 -153h-49z" />
<glyph unicode="&#x2dc;" horiz-adv-x="878" d="M172 1335q52 84 152 84q43 0 120.5 -40t126.5 -40q66 0 119 74l25 -16q-27 -47 -68 -72t-86 -25q-44 0 -123.5 40t-128.5 40q-39 0 -63 -15.5t-49 -45.5z" />
<glyph unicode="&#x2000;" horiz-adv-x="908" />
<glyph unicode="&#x2001;" horiz-adv-x="1817" />
<glyph unicode="&#x2002;" horiz-adv-x="908" />
<glyph unicode="&#x2003;" horiz-adv-x="1817" />
<glyph unicode="&#x2004;" horiz-adv-x="605" />
<glyph unicode="&#x2005;" horiz-adv-x="454" />
<glyph unicode="&#x2006;" horiz-adv-x="302" />
<glyph unicode="&#x2007;" horiz-adv-x="302" />
<glyph unicode="&#x2008;" horiz-adv-x="227" />
<glyph unicode="&#x2009;" horiz-adv-x="363" />
<glyph unicode="&#x200a;" horiz-adv-x="100" />
<glyph unicode="&#x2010;" horiz-adv-x="1058" d="M172 616v43h715v-43h-715z" />
<glyph unicode="&#x2011;" horiz-adv-x="1058" d="M172 616v43h715v-43h-715z" />
<glyph unicode="&#x2012;" horiz-adv-x="1058" d="M172 616v43h715v-43h-715z" />
<glyph unicode="&#x2013;" horiz-adv-x="1462" d="M172 616v43h1120v-43h-1120z" />
<glyph unicode="&#x2014;" horiz-adv-x="1464" d="M172 616v43h1120v-43h-1120z" />
<glyph unicode="&#x2018;" horiz-adv-x="509" d="M172 1239q0 62 48 116t114 85l8 -15q-44 -25 -77 -63t-45.5 -83t18.5 -85q1 3 3 7t13 11t27 7q27 0 37 -16.5t10 -35.5q0 -28 -22.5 -42.5t-45.5 -14.5q-39 0 -63.5 41t-24.5 88z" />
<glyph unicode="&#x2019;" horiz-adv-x="518" d="M182 1124q44 25 77.5 63t46 83.5t-18.5 85.5q-1 -3 -3 -7t-13 -11t-27 -7q-27 0 -37 16.5t-10 34.5q0 28 22 43t45 15q39 0 63.5 -41t24.5 -88q0 -62 -48 -116t-114 -85z" />
<glyph unicode="&#x201a;" horiz-adv-x="483" d="M154 -207q44 25 77 63t45.5 83.5t-18.5 85.5q-1 -3 -3 -7t-13 -11t-27 -7q-27 0 -37 16.5t-10 34.5q0 28 22.5 43t45.5 15q39 0 63.5 -41t24.5 -88q0 -62 -48 -116t-114 -85z" />
<glyph unicode="&#x201c;" horiz-adv-x="790" d="M174 1241q0 62 48 116t114 85l8 -15q-44 -25 -77 -63t-45.5 -83t18.5 -85q1 3 3 7t13 11t27 7q27 0 37 -16.5t10 -35.5q0 -28 -22.5 -42.5t-45.5 -14.5q-39 0 -63.5 41t-24.5 88zM453 1241q0 62 47.5 116t113.5 85l9 -15q-44 -25 -77.5 -63t-46 -83t18.5 -85q1 3 3 7 t13 11t27 7q27 0 37 -16.5t10 -35.5q0 -28 -22 -42.5t-45 -14.5q-39 0 -63.5 41t-24.5 88z" />
<glyph unicode="&#x201d;" horiz-adv-x="794" d="M182 1126q44 25 77.5 63t46 83.5t-18.5 85.5q-1 -3 -3 -7t-13 -11t-27 -7q-27 0 -37 16.5t-10 34.5q0 28 22 43t45 15q39 0 63.5 -41t24.5 -88q0 -62 -48 -116t-114 -85zM461 1126q44 25 77 63t45.5 83.5t-18.5 85.5q-1 -3 -3 -7t-13 -11t-27 -7q-27 0 -37 16.5t-10 34.5 q0 28 22.5 43t45.5 15q39 0 63.5 -41t24.5 -88q0 -62 -48 -116t-114 -85z" />
<glyph unicode="&#x201e;" horiz-adv-x="761" d="M154 -207q44 25 77 63t45.5 83.5t-18.5 85.5q-1 -3 -3 -7t-13 -11t-27 -7q-27 0 -37 16.5t-10 34.5q0 28 22.5 43t45.5 15q39 0 63.5 -41t24.5 -88q0 -62 -48 -116t-114 -85zM432 -207q44 25 77.5 63t46 83.5t-18.5 85.5q-1 -3 -3 -7t-13 -11t-27 -7q-27 0 -37.5 16.5 t-10.5 34.5q0 28 22.5 43t45.5 15q39 0 63.5 -41t24.5 -88q0 -62 -48 -116t-114 -85z" />
<glyph unicode="&#x2022;" horiz-adv-x="675" d="M219 725q0 48 35 82.5t84 34.5q50 0 84.5 -35t34.5 -86q0 -48 -35 -82.5t-84 -34.5q-50 0 -84.5 35t-34.5 86z" />
<glyph unicode="&#x2026;" horiz-adv-x="1148" d="M170 61q0 28 18.5 47t44.5 19q28 0 47 -19t19 -47q0 -26 -19 -43.5t-47 -17.5q-26 0 -44.5 18t-18.5 43zM508 61q0 28 18.5 47t44.5 19q28 0 47 -19t19 -47q0 -26 -19 -43.5t-47 -17.5q-26 0 -44.5 18t-18.5 43zM850 61q0 28 18.5 47t44.5 19q28 0 47 -19t19 -47 q0 -26 -19 -43.5t-47 -17.5q-26 0 -44.5 18t-18.5 43z" />
<glyph unicode="&#x202f;" horiz-adv-x="363" />
<glyph unicode="&#x2039;" horiz-adv-x="686" d="M121 535l403 448l23 -25l-365 -426l363 -428l-21 -22z" />
<glyph unicode="&#x203a;" horiz-adv-x="684" d="M139 958l25 25l401 -448l-401 -453l-23 22l363 428z" />
<glyph unicode="&#x205f;" horiz-adv-x="454" />
<glyph unicode="&#x20ac;" horiz-adv-x="1536" d="M137 823l13 33h149q41 265 221.5 426.5t437.5 161.5q216 0 394 -94l-15 -31q-6 4 -17.5 9.5t-50 21t-79.5 27t-104.5 21t-127.5 9.5q-240 0 -409 -152t-209 -399h764l-12 -33h-756q-6 -53 -6 -106q0 -55 6 -107h682l-10 -32h-668q42 -246 212.5 -398.5t410.5 -152.5 q202 0 376 82v-39q-173 -80 -381 -80q-257 0 -437.5 161.5t-221.5 426.5h-143l12 32h127q-6 53 -6 107q0 53 6 106h-158z" />
<glyph unicode="&#x2122;" horiz-adv-x="1562" d="M156 1399v35h465v-35h-211v-584h-39v584h-215zM807 815v619h47l236 -408l241 408h33v-619h-35v545l-225 -393h-25l-237 419v-571h-35z" />
<glyph unicode="&#x25fc;" horiz-adv-x="1064" d="M0 0v1065h1065v-1065h-1065z" />
</font>
</defs>
</svg>
