<?xml version="1.0" standalone="no"?>
<!DOCTYPE svg PUBLIC "-//W3C//DTD SVG 1.1//EN" "http://www.w3.org/Graphics/SVG/1.1/DTD/svg11.dtd" >
<svg xmlns="http://www.w3.org/2000/svg">
<metadata></metadata>
<defs>
<font id="centrale_sansmedium" horiz-adv-x="1380" >
<font-face units-per-em="2048" ascent="1536" descent="-512" />
<missing-glyph horiz-adv-x="542" />
<glyph unicode="&#xfb01;" horiz-adv-x="1177" d="M47 909v133l164 23v78q0 176 112 276.5t289 100.5q197 0 346 -93l-79 -149q-119 63 -256 63q-98 0 -144.5 -59.5t-46.5 -138.5v-78h598v-1065h-221v909h-377v-909h-221v909h-164z" />
<glyph unicode="&#xfb02;" horiz-adv-x="1275" d="M47 909v133l164 23v61q0 181 114 287.5t293 106.5q171 0 286.5 -107.5t115.5 -286.5v-868q0 -31 8.5 -52t24 -29.5t28.5 -11.5t29 -3q19 0 43.5 3t39.5 6l15 3v-172q-86 -22 -176 -22q-60 0 -103.5 16t-66.5 38t-37.5 60t-18.5 65.5t-7 71.5v928q0 88 -50.5 135 t-130.5 47q-76 0 -131 -47.5t-55 -134.5v-94h189v-156h-189v-909h-221v909h-164z" />
<glyph unicode="&#xfb03;" horiz-adv-x="1759" d="M47 909v133l164 23v111q0 169 73 256.5t244 87.5q69 0 142 -17l-23 -170q-47 8 -90 8q-40 0 -66.5 -13.5t-38.5 -39t-16 -49.5t-4 -57v-117h363v94q0 177 112 277t297 100q174 0 338 -92l-76 -150q-50 32 -122.5 48t-126.5 16q-56 0 -97 -18t-62.5 -48t-31.5 -63t-10 -70 v-94h598v-1065h-221v909h-377v-909h-221v909h-363v-909h-221v909h-164z" />
<glyph unicode="&#xfb04;" horiz-adv-x="1859" d="M47 909v133l164 23v111q0 166 72.5 255t242.5 89q74 0 144 -17l-23 -168q-49 6 -90 6t-67.5 -14t-38.5 -40t-15.5 -49.5t-3.5 -55.5v-117h363v78q0 181 114 287t293 106q171 0 286.5 -107t115.5 -286v-885q0 -31 8.5 -52t24 -29.5t28.5 -11.5t29 -3q19 0 43.5 3t39.5 6 l15 3v-172q-86 -22 -176 -22q-60 0 -103.5 16t-67 38t-38 60t-18.5 65.5t-7 71.5v945q0 88 -50 135t-130 47q-76 0 -131 -47.5t-55 -134.5v-111h188v-156h-188v-909h-221v909h-363v-909h-221v909h-164z" />
<glyph horiz-adv-x="0" />
<glyph horiz-adv-x="0" />
<glyph horiz-adv-x="682" />
<glyph unicode="&#xd;" horiz-adv-x="612" />
<glyph unicode=" "  horiz-adv-x="542" />
<glyph unicode="&#x09;" horiz-adv-x="542" />
<glyph unicode="&#xa0;" horiz-adv-x="542" />
<glyph unicode="!" horiz-adv-x="585" d="M158 113q0 57 40 95t99 38q57 0 95 -38t38 -95t-37.5 -95t-95.5 -38q-59 0 -99 37.5t-40 95.5zM160 1434h264l-45 -1020h-174z" />
<glyph unicode="&#x22;" horiz-adv-x="1110" d="M244 852l2 582h250l-111 -582h-141zM668 852l2 582h250l-111 -582h-141z" />
<glyph unicode="#" horiz-adv-x="1605" d="M92 324l35 182h262l74 405h-260l33 185h258l69 338h187l-68 -338h383l68 338h186l-68 -338h262l-34 -185h-256l-74 -405h262l-33 -182h-262l-65 -324h-185l66 324h-389l-64 -324h-188l67 324h-266zM578 506h385l71 405h-385z" />
<glyph unicode="$" horiz-adv-x="1191" d="M113 1047q0 190 113 290.5t306 114.5v199h144v-201q100 -9 198.5 -35t167.5 -59l-47 -176q-25 9 -66.5 22.5t-143.5 35.5t-173 22q-129 0 -198.5 -55.5t-69.5 -147.5q0 -33 9.5 -60.5t22.5 -48t39.5 -39.5t47 -30.5t59.5 -25.5t62 -21.5t69 -20.5q172 -55 244 -95 q175 -95 197 -267q4 -27 4 -56q0 -96 -31.5 -171t-89 -123.5t-133 -77t-168.5 -37.5v-201h-144v199q-118 6 -230.5 34.5t-184.5 65.5l51 178q210 -86 405 -86q152 0 222.5 57t70.5 154q0 52 -19.5 89.5t-67 64t-82 39.5t-109.5 35q-22 7 -33 10q-55 16 -93 28.5t-88 33.5 t-84 42.5t-70 54t-57.5 69.5t-35.5 87t-14 109z" />
<glyph unicode="%" horiz-adv-x="1671" d="M84 1104q0 153 92 251.5t240 98.5q147 0 238 -97.5t91 -250.5q0 -149 -92.5 -247.5t-240.5 -98.5q-145 0 -236.5 97.5t-91.5 246.5zM272 1106q0 -77 41 -126.5t103 -49.5q65 0 103 48.5t38 127.5t-40 128.5t-103 49.5q-65 0 -103.5 -49t-38.5 -129zM317 0l824 1434h209 l-822 -1434h-211zM928 324q0 153 92 251.5t240 98.5q147 0 238 -97.5t91 -250.5q0 -149 -93 -247.5t-241 -98.5q-145 0 -236 97.5t-91 246.5zM1116 326q0 -77 41 -126.5t103 -49.5q65 0 103 48.5t38 127.5t-40.5 128.5t-103.5 49.5q-65 0 -103 -49t-38 -129z" />
<glyph unicode="&#x26;" horiz-adv-x="1374" d="M94 399q0 63 16 118t40 94.5t65.5 79.5t78 67t91.5 63q-7 9 -31 38.5t-31.5 39.5t-25 35.5t-24 40.5t-16 39.5t-12.5 48.5t-3 51q0 152 100 246t248 94q140 0 241 -94t101 -234q0 -211 -254 -356l295 -340q6 10 16 28t26.5 74.5t18.5 112.5h176q-1 -59 -12.5 -117.5 t-27.5 -100t-32 -75t-27 -50.5l-11 -17l248 -285h-244l-117 139q-79 -74 -185 -116.5t-224 -42.5q-95 0 -180.5 27t-154 77.5t-109 132t-40.5 182.5zM311 403q0 -114 77.5 -174.5t211.5 -60.5q155 0 260 111l-358 405q-92 -51 -141.5 -116t-49.5 -165zM440 1106q0 -29 7 -53 t29 -54t33 -43t48 -53q79 38 129.5 92.5t50.5 122.5q0 65 -39 109.5t-108 44.5q-74 0 -112 -48.5t-38 -117.5z" />
<glyph unicode="'" horiz-adv-x="520" d="M158 852l4 582h250l-113 -584q-23 0 -70 1t-71 1z" />
<glyph unicode="(" horiz-adv-x="739" d="M94 602q0 125 32 243.5t81.5 209t115.5 171t127.5 134.5t124.5 94l101 -129q-43 -36 -67 -58t-66.5 -66t-68.5 -81.5t-58 -96t-50 -117.5t-31 -138.5t-13 -167.5q-1 -88 11.5 -168.5t30 -140.5t49.5 -119.5t58.5 -97.5t69 -83.5t67.5 -68t68 -59.5l-101 -131 q-63 41 -124.5 95t-127.5 136t-115.5 174t-81.5 214t-32 251z" />
<glyph unicode=")" horiz-adv-x="741" d="M63 -137q43 36 69 59.5t68 68t68.5 83t58.5 97.5t50.5 119.5t30.5 141t12 168.5t-13 167.5t-31 138.5t-50 117.5t-58 96t-68.5 81.5t-66.5 66t-67 58l98 129q63 -40 125 -94t128 -134.5t116 -171t82 -209t32 -243.5q0 -129 -32 -251t-81.5 -214t-116.5 -174t-128.5 -136 t-124.5 -95z" />
<glyph unicode="*" horiz-adv-x="890" d="M125 1106l235 104l-235 107l70 119l211 -152l-29 256h137l-27 -256l209 152l70 -119l-236 -107l236 -104l-70 -121l-209 152l27 -256h-137l29 256l-211 -152z" />
<glyph unicode="+" horiz-adv-x="1032" d="M115 606v150h323v325h154v-325h326v-150h-326v-327h-154v327h-323z" />
<glyph unicode="," horiz-adv-x="573" d="M137 113q0 56 39.5 94.5t95.5 38.5q79 0 126.5 -60.5t47.5 -140.5q0 -112 -69.5 -193.5t-175.5 -134.5l-58 90q11 7 30 21.5t51 42.5t54 65.5t21 71.5q-18 -18 -49 -18q-55 0 -84 33.5t-29 89.5z" />
<glyph unicode="-" horiz-adv-x="1028" d="M141 612v148h746v-148h-746z" />
<glyph unicode="." horiz-adv-x="534" d="M133 123q0 55 38.5 94t94.5 39q57 0 96 -38.5t39 -94.5q0 -55 -39.5 -94t-95.5 -39t-94.5 39t-38.5 94z" />
<glyph unicode="/" horiz-adv-x="1009" d="M68 -72l688 1571h184l-690 -1571h-182z" />
<glyph unicode="0" horiz-adv-x="1443" d="M113 715q0 220 74 387t213 259.5t325 92.5q279 0 443.5 -200.5t164.5 -532.5q0 -221 -73.5 -388.5t-212 -260t-324.5 -92.5q-280 0 -445 201t-165 534zM346 717q0 -257 99 -402t280 -145q180 0 277.5 144.5t97.5 400.5t-98.5 402.5t-278.5 146.5q-179 0 -278 -146 t-99 -401z" />
<glyph unicode="1" horiz-adv-x="741" d="M49 1243l338 191h166v-1434h-221v1186l-215 -90z" />
<glyph unicode="2" horiz-adv-x="1185" d="M106 0v180l488 453q50 49 78 80t64.5 81t53.5 102t17 110q0 121 -69.5 189.5t-200.5 68.5q-167 0 -359 -84l-63 166q231 108 458 108q206 0 342 -121t136 -317q0 -81 -25.5 -154t-81 -142.5t-91 -105.5t-106.5 -100q-16 -15 -24 -22l-354 -314h712v-178h-975z" />
<glyph unicode="3" horiz-adv-x="1155" d="M98 88l64 156q69 -31 165.5 -52.5t176.5 -21.5q135 0 223 69t88 187q0 67 -31 118.5t-82.5 80.5t-110.5 43t-122 14h-109v160h132q72 0 131.5 20t101 69t41.5 120q0 100 -74 156.5t-188 56.5q-65 0 -158 -15t-158 -35l-49 156q209 84 393 84q199 0 327 -103t128 -272 q0 -125 -70 -209t-178 -112q135 -22 221.5 -120t86.5 -245q0 -131 -72 -226t-190 -141t-267 -46q-123 0 -233 31t-187 77z" />
<glyph unicode="4" horiz-adv-x="1232" d="M66 336v147l729 951h188v-940h164v-158h-164v-336h-221v336h-696zM287 494h475v618z" />
<glyph unicode="5" horiz-adv-x="1189" d="M98 100l66 162q192 -92 383 -92q137 0 224 81.5t87 215.5q0 147 -76.5 227t-206.5 80q-152 0 -264 -94l-141 76l82 678h795v-189h-644l-45 -391q49 35 121 57.5t150 22.5q214 0 338.5 -124.5t124.5 -332.5q0 -154 -71 -268t-191.5 -171.5t-274.5 -57.5 q-130 0 -249.5 35.5t-207.5 84.5z" />
<glyph unicode="6" horiz-adv-x="1300" d="M113 672q0 71 7.5 142t27 149.5t49 148t77 133t108 109.5t145.5 73t186 27q111 0 222.5 -27.5t192.5 -78.5l-77 -154q-160 80 -330 80q-191 0 -298.5 -135t-107.5 -418q45 93 153.5 153t240.5 60q137 0 247 -53t177 -160.5t67 -253.5q0 -212 -146.5 -349.5t-375.5 -137.5 q-116 0 -210.5 36t-159.5 99t-109.5 150.5t-65 189.5t-20.5 217zM365 461q0 -130 81 -219.5t218 -89.5q142 0 226.5 89t84.5 220q0 133 -84 216t-227 83q-133 0 -216 -85.5t-83 -213.5z" />
<glyph unicode="7" horiz-adv-x="1103" d="M84 1245v189h967v-191l-580 -1243h-244l584 1245h-727z" />
<glyph unicode="8" horiz-adv-x="1236" d="M102 416q0 124 80.5 219t198.5 127q-98 29 -157.5 110.5t-59.5 184.5q0 125 63.5 217t164 136t222.5 44q125 0 226.5 -44t165 -136t63.5 -217q0 -104 -59.5 -185.5t-151.5 -111.5q125 -35 200 -128.5t75 -215.5q0 -107 -41.5 -191.5t-113 -137t-164.5 -80t-200 -27.5 q-103 0 -194 27t-163 79t-113.5 137t-41.5 193zM326 418q0 -114 79 -187t209 -73q134 0 214.5 73.5t80.5 186.5q0 110 -80 178t-215 68q-132 0 -210 -68t-78 -178zM379 1057q0 -97 63.5 -159t171.5 -62q112 0 176 62t64 159q0 108 -68.5 164.5t-171.5 56.5 q-98 0 -166.5 -56.5t-68.5 -164.5z" />
<glyph unicode="9" horiz-adv-x="1302" d="M100 967q0 212 142.5 349.5t367.5 137.5q119 0 216 -36t164 -99t112.5 -150.5t66.5 -189.5t21 -217q0 -74 -8 -146t-27.5 -150.5t-50 -147.5t-79.5 -132t-111 -108t-149 -71.5t-190 -26.5q-111 0 -218.5 26.5t-188.5 77.5l72 154q156 -78 323 -78q191 0 304.5 136.5 t113.5 416.5v12q-44 -104 -154.5 -166.5t-246.5 -62.5q-134 0 -241.5 53t-173 161.5t-65.5 256.5zM328 973q0 -133 79.5 -216t217.5 -83q133 0 218 85.5t85 213.5q0 132 -82.5 220.5t-220.5 88.5t-217.5 -87.5t-79.5 -221.5z" />
<glyph unicode=":" horiz-adv-x="552" d="M141 123q0 55 38.5 94t94.5 39q57 0 96.5 -38.5t39.5 -94.5q0 -54 -39.5 -93.5t-96.5 -39.5q-56 0 -94.5 39t-38.5 94zM141 834q0 56 38.5 94.5t94.5 38.5q57 0 96.5 -38.5t39.5 -94.5q0 -54 -39.5 -93t-96.5 -39q-55 0 -94 39t-39 93z" />
<glyph unicode=";" horiz-adv-x="614" d="M164 106q0 58 38.5 95t96.5 37q71 0 117.5 -60t46.5 -141q0 -105 -69 -186.5t-171 -129.5l-53 82q12 7 32.5 23.5t51 46t50.5 66.5t18 71q-17 -20 -54 -20q-47 0 -75.5 33t-28.5 83zM174 834q0 56 39 94.5t94 38.5t94 -38.5t39 -94.5q0 -54 -39 -93t-94 -39t-94 39 t-39 93z" />
<glyph unicode="&#x3c;" horiz-adv-x="878" d="M104 629v125l615 305v-168l-416 -201l416 -201v-174z" />
<glyph unicode="=" horiz-adv-x="1015" d="M150 442v152h716v-152h-716zM150 772v150h716v-150h-716z" />
<glyph unicode="&#x3e;" horiz-adv-x="880" d="M160 315v174l415 201l-415 201v168l614 -305v-125z" />
<glyph unicode="?" horiz-adv-x="1003" d="M88 1333q71 53 174 87t203 34q117 0 216.5 -41.5t163.5 -128.5t64 -203q0 -64 -21 -117.5t-54.5 -89.5t-73.5 -67.5t-80.5 -59t-74 -56t-54.5 -67t-21 -83.5v-127h-182v141q0 59 19 108t49.5 83t67.5 64t74 57.5t67.5 56t49.5 66.5t19 83q0 85 -68.5 139t-164.5 54 q-66 0 -146.5 -26t-128.5 -58zM307 113q0 57 40 95t99 38q58 0 96 -38t38 -95q0 -58 -37.5 -95.5t-96.5 -37.5t-99 37.5t-40 95.5z" />
<glyph unicode="@" horiz-adv-x="1861" d="M102 623q0 172 64 325.5t175.5 264.5t268.5 176t336 65q162 0 310.5 -55t264.5 -155.5t185.5 -256.5t69.5 -344q0 -213 -89 -339t-264 -126q-97 0 -164.5 36.5t-95.5 100.5q-40 -64 -107.5 -100.5t-158.5 -36.5q-138 0 -230 72.5t-92 198.5q0 59 22.5 106t57.5 74.5 t81 46t87.5 25t83.5 6.5q52 0 107.5 -7.5t85.5 -14.5l30 -7v67q0 103 -53.5 142t-152.5 39q-91 0 -250 -39l-35 112q164 54 315 54q164 0 250 -78t86 -217v-326q0 -58 33.5 -91t97.5 -32q54 2 94 30.5t62 77t32.5 104.5t10.5 122q0 130 -38.5 239.5t-104 185t-152.5 129 t-183 78.5t-196 25q-196 0 -354 -91t-246 -246t-88 -342q0 -198 82 -352.5t236 -242t356 -87.5q135 0 282 61l58 -137q-181 -78 -348 -78q-242 0 -430 108.5t-290 299t-102 430.5zM723 453q0 -71 52.5 -107.5t123.5 -36.5q90 0 160 53.5t71 133.5v63q-83 33 -206 33 q-53 0 -95.5 -12t-74 -44.5t-31.5 -82.5z" />
<glyph unicode="A" d="M31 0l518 1452h282l519 -1452h-240l-127 371h-586l-127 -371h-239zM459 559h463l-230 672h-4z" />
<glyph unicode="B" horiz-adv-x="1345" d="M182 0v1434h574q183 0 303.5 -108.5t120.5 -278.5q0 -129 -64 -209t-143 -103q114 -28 197 -115t83 -221q0 -189 -117.5 -294t-301.5 -105h-652zM408 199h426q86 0 140 59t54 156t-58 156t-155 59h-407v-430zM408 815h358q86 0 138 60t52 149q0 99 -57 155t-147 56h-344 v-420z" />
<glyph unicode="C" horiz-adv-x="1368" d="M92 717q0 154 57 289.5t156.5 234.5t242.5 156t308 57q117 0 237.5 -33t200.5 -80l-80 -165q-18 9 -50 22t-125.5 35t-180.5 22q-236 0 -380 -150t-144 -388q0 -239 143.5 -389t380.5 -150q87 0 176 20t134 40l46 20l80 -166q-80 -46 -200 -79t-238 -33q-165 0 -308 57 t-242.5 156t-156.5 234.5t-57 289.5z" />
<glyph unicode="D" horiz-adv-x="1449" d="M182 0v1434h498q193 0 344 -88q111 -64 185.5 -167.5t107.5 -219t33 -242.5q0 -196 -86.5 -364.5t-249.5 -262.5q-159 -90 -334 -90h-498zM408 199h231q154 0 274 73q197 119 197 445q0 145 -46.5 262t-150.5 182q-120 74 -274 74h-231v-1036z" />
<glyph unicode="E" horiz-adv-x="1300" d="M182 0v1434h1000v-199h-774v-440h661v-191h-661v-405h794v-199h-1020z" />
<glyph unicode="F" horiz-adv-x="1239" d="M182 0v1434h1000v-199h-774v-453h661v-192h-661v-590h-226z" />
<glyph unicode="G" horiz-adv-x="1505" d="M94 715q0 153 57 289t156 235t239 157t300 58q131 0 257 -32t220 -87l-86 -164q-1 0 -15 6t-26.5 11.5t-36.5 13.5t-46 15t-52.5 14t-60.5 12t-65.5 8.5t-70.5 3.5q-161 0 -281.5 -70t-183.5 -191t-63 -275q0 -237 143 -389t375 -152q199 0 332 113v293h-377v176h586 v-551q-133 -124 -260 -176.5t-275 -52.5q-168 0 -312.5 57.5t-243.5 156.5t-154.5 234t-55.5 287z" />
<glyph unicode="H" horiz-adv-x="1503" d="M182 0v1434h226v-617h690v617h225v-1434h-225v600h-690v-600h-226z" />
<glyph unicode="I" horiz-adv-x="589" d="M182 0v1434h226v-1434h-226z" />
<glyph unicode="J" horiz-adv-x="1105" d="M6 231l141 121q110 -174 285 -174q121 0 195.5 78t74.5 225v953h226v-883q0 -87 -8 -150q-25 -196 -153.5 -308.5t-320.5 -112.5q-78 0 -148.5 21t-118 51t-86.5 67t-58.5 64.5t-28.5 47.5z" />
<glyph unicode="K" horiz-adv-x="1329" d="M182 0v1434h226l-2 -430l-9 -312q1 0 2 -1t2 -1l623 744h254l-533 -637l582 -797h-274l-471 641l-174 -205v-436h-226z" />
<glyph unicode="L" horiz-adv-x="1142" d="M182 0v1434h226v-1235h700v-199h-926z" />
<glyph unicode="M" horiz-adv-x="1896" d="M182 0v1434h310l454 -1084h4l457 1084h307v-1434h-223v1092h-6l-436 -1008h-199l-436 1010h-4v-1094h-228z" />
<glyph unicode="N" horiz-adv-x="1505" d="M182 0v1434h234l436 -668l252 -412h4l-10 490v590h225v-1434h-231l-439 696l-252 396h-4l11 -406v-686h-226z" />
<glyph unicode="O" horiz-adv-x="1683" d="M92 717q0 162 60 301t161.5 234t238.5 148.5t288 53.5q152 0 289 -53.5t238.5 -148.5t161.5 -234t60 -301t-60 -301t-161.5 -234t-238.5 -148.5t-289 -53.5q-151 0 -288 53.5t-238.5 148.5t-161.5 234t-60 301zM330 717q0 -253 141 -396t369 -143q229 0 370.5 143 t141.5 396q0 252 -142 395t-370 143q-227 0 -368.5 -143t-141.5 -395z" />
<glyph unicode="P" horiz-adv-x="1286" d="M182 0v1434h611q181 0 308.5 -125t127.5 -320q0 -209 -125 -328.5t-318 -119.5h-378v-541h-226zM408 739h372q101 0 162.5 68.5t61.5 181.5q0 122 -74 184t-187 62h-335v-496z" />
<glyph unicode="Q" horiz-adv-x="1687" d="M94 717q0 162 60 301t161.5 234t238.5 148.5t288 53.5q152 0 289 -53.5t238.5 -148.5t161.5 -234t60 -301q0 -236 -120.5 -413.5t-319.5 -262.5v-4q115 -49 235 -85t185 -48l-76 -183q-276 59 -604 261q-8 0 -24.5 -1t-24.5 -1q-151 0 -288 53.5t-238.5 148.5t-161.5 234 t-60 301zM332 717q0 -253 141 -396t369 -143q229 0 370.5 143t141.5 396q0 252 -142 395t-370 143q-227 0 -368.5 -143t-141.5 -395z" />
<glyph unicode="R" horiz-adv-x="1361" d="M182 0v1434h637q179 0 302.5 -119.5t123.5 -308.5q0 -150 -79 -257t-205 -143l339 -606h-260l-311 580h-321v-580h-226zM408 778h411q87 0 146 62.5t59 167.5q0 80 -39 133t-95.5 73.5t-127.5 20.5h-354v-457z" />
<glyph unicode="S" horiz-adv-x="1218" d="M96 86l58 178q79 -33 195 -61.5t239 -28.5q158 0 230.5 56.5t72.5 152.5q0 43 -16 76t-39 54.5t-64.5 40.5t-76.5 30.5t-90 26.5q-8 2 -12.5 3.5t-11 3t-12.5 3.5q-61 17 -97.5 28.5t-91.5 32.5t-88.5 41.5t-73 53.5t-61 70t-36.5 89t-15 113q0 103 37.5 182t106 127 t158.5 72t200 24q124 0 252.5 -29t218.5 -69l-55 -185q-22 10 -60.5 25t-142.5 39.5t-192 24.5q-134 0 -205.5 -55t-71.5 -146q0 -43 18 -77t38 -54.5t68.5 -42.5t75.5 -30.5t93 -27.5q18 -5 27 -8q179 -53 258 -94q183 -97 204 -280q3 -26 3 -54q0 -85 -27 -154 t-74.5 -116.5t-115 -79.5t-146.5 -46.5t-170 -14.5q-149 0 -284 31.5t-224 74.5z" />
<glyph unicode="T" horiz-adv-x="1222" d="M31 1235v199h1161v-199h-467v-1235h-225v1235h-469z" />
<glyph unicode="U" horiz-adv-x="1468" d="M168 518v916h225v-922q0 -153 92 -243.5t248 -90.5t249 90t93 244v922h225v-916q0 -248 -148.5 -393t-416.5 -145q-260 0 -413.5 141t-153.5 397z" />
<glyph unicode="V" horiz-adv-x="1316" d="M29 1434h235l391 -1135h4l390 1135h237l-520 -1434h-217z" />
<glyph unicode="W" horiz-adv-x="2045" d="M47 1434h252l309 -1065h4l297 1065h228l297 -1065h4l305 1065h256l-447 -1434h-225l-303 1053l-305 -1053h-225z" />
<glyph unicode="X" horiz-adv-x="1368" d="M27 0l526 717l-524 717h266l385 -549h4l395 549h264l-528 -717l531 -717h-267l-393 545h-4l-391 -545h-264z" />
<glyph unicode="Y" horiz-adv-x="1259" d="M10 1434h248l371 -621h2l370 621h248l-506 -852v-582h-225v582z" />
<glyph unicode="Z" horiz-adv-x="1259" d="M72 0v158l813 1079l-2 4l-316 -6h-465v199h1074v-150l-805 -1089l2 -5l319 9h484v-199h-1104z" />
<glyph unicode="[" horiz-adv-x="638" d="M170 -369v1823h377v-166h-199v-1491h199v-166h-377z" />
<glyph unicode="\" horiz-adv-x="1009" d="M70 1499h184l688 -1571h-184z" />
<glyph unicode="]" horiz-adv-x="638" d="M92 -203h199v1491h-199v166h377v-1823h-377v166z" />
<glyph unicode="_" horiz-adv-x="1187" d="M141 -133h906v-156h-906v156z" />
<glyph unicode="`" horiz-adv-x="638" d="M172 1481l156 78l147 -361h-143z" />
<glyph unicode="a" horiz-adv-x="1146" d="M59 319q0 91 35.5 157.5t99.5 104.5t143.5 56t176.5 18q56 0 117.5 -5t94.5 -10l34 -5v65q0 60 -18 101.5t-52 63t-73 30t-91 8.5q-162 0 -331 -49l-41 164q76 26 190.5 46.5t218.5 20.5q198 0 305 -88t107 -262v-485q0 -60 57 -60q28 0 80 9v-179q-10 -6 -62 -17 t-94 -11q-71 0 -124 38t-56 117q-38 -79 -122 -123t-210 -44q-174 0 -279.5 89.5t-105.5 249.5zM272 328q0 -84 57.5 -128t143.5 -44q112 0 199.5 61.5t87.5 151.5v112q-107 19 -209 19q-279 0 -279 -172z" />
<glyph unicode="b" horiz-adv-x="1304" d="M150 0v1499h221v-571q115 157 336 157q123 0 222.5 -45t162 -123t96 -178.5t33.5 -214.5q0 -238 -138.5 -391t-375.5 -153q-118 0 -211 44.5t-142 137.5l-28 -162h-176zM346 532q0 -160 94 -262t240 -102q140 0 226.5 99.5t86.5 264.5t-86.5 265t-226.5 100 q-149 0 -241.5 -103.5t-92.5 -261.5z" />
<glyph unicode="c" horiz-adv-x="1046" d="M80 535q0 115 42 216t116.5 175t181.5 116.5t231 42.5q170 0 328 -81l-76 -160l-7 4l-16 6t-22.5 8.5t-29 9.5t-34 9t-39 8.5t-43 5.5t-46.5 2q-94 0 -166.5 -34t-113 -89.5t-60 -117t-19.5 -126.5q0 -66 21.5 -128t63 -115.5t112 -86t160.5 -32.5q120 0 239 51l68 -160 q-58 -36 -154 -57.5t-182 -21.5q-157 0 -284.5 73t-199 200t-71.5 282z" />
<glyph unicode="d" horiz-adv-x="1304" d="M84 532q0 114 35 213.5t99 175.5t162.5 120t219.5 44q222 0 334 -153v567h221v-1499h-176l-29 158q-48 -93 -140 -135.5t-210 -42.5q-155 0 -273.5 73.5t-180.5 198.5t-62 280zM311 532q0 -165 87.5 -264.5t228.5 -99.5q145 0 238 102t93 262q0 157 -92 261t-239 104 q-140 0 -228 -100t-88 -265z" />
<glyph unicode="e" horiz-adv-x="1208" d="M82 528q0 155 68 281.5t194 201t285 74.5q122 0 218.5 -42t156 -115t90 -168t30.5 -205q0 -43 -6 -96h-799q7 -129 106.5 -210t242.5 -81q98 0 168 18t151 54l78 -166q-75 -42 -184.5 -68t-218.5 -26q-257 0 -418.5 154t-161.5 394zM317 610h592q0 54 -15 103.5t-46 91.5 t-84.5 67t-122.5 25q-129 0 -218 -79t-106 -208z" />
<glyph unicode="f" horiz-adv-x="731" d="M47 909v133l164 23v109q0 173 73.5 259.5t250.5 86.5q95 0 182 -17l-23 -172q-52 10 -125 10t-105 -39.5t-32 -123.5v-113h256v-156h-256v-909h-221v909h-164z" />
<glyph unicode="g" horiz-adv-x="1116" d="M92 -61q0 69 30.5 116t88.5 84q-55 29 -82 75.5t-27 96.5q0 45 20.5 83.5t40 56t50.5 38.5q-90 97 -90 228q0 165 114 266.5t310 101.5q83 0 139 -20h375v-158l-150 -28q25 -20 46.5 -67.5t21.5 -100.5q0 -92 -36.5 -162t-98.5 -110.5t-136 -60.5t-157 -20 q-113 0 -199 45q-28 -11 -43.5 -32t-15.5 -41q0 -27 16 -47t43 -31t62 -18.5t72 -9.5t74 -3q19 -1 36.5 -1t32.5 1h30q173 0 271 -64.5t98 -199.5q0 -83 -42 -145t-113 -95.5t-149 -49t-165 -15.5q-68 0 -131 8.5t-125 29.5t-108 52.5t-74.5 82t-28.5 114.5zM297 -41v-2 q1 -36 27 -62.5t67.5 -39.5t83 -19t84.5 -6q45 0 86 5.5t83.5 18t67.5 38.5q27 28 27 69q0 42 -41 69q-44 29 -129 29q-132 0 -177.5 3t-102.5 14q-31 -14 -53.5 -47t-22.5 -70zM332 717q0 -92 58 -148.5t161 -56.5t161 56.5t58 148.5q0 91 -59 147t-160 56 q-102 0 -160.5 -56t-58.5 -147z" />
<glyph unicode="h" horiz-adv-x="1232" d="M150 0v1499h221v-581q17 27 40.5 52t62.5 53t96 45t124 17q84 0 155 -25.5t127 -78t88 -141t32 -205.5v-635h-222v627q0 132 -63 201t-172 69q-132 0 -200 -88t-68 -219v-590h-221z" />
<glyph unicode="i" horiz-adv-x="573" d="M84 909v156h340v-1065h-221v870zM166 1356q0 55 37.5 94t93.5 39q55 0 95 -39.5t40 -93.5q0 -55 -40 -94t-95 -39q-56 0 -93.5 38.5t-37.5 94.5z" />
<glyph unicode="j" horiz-adv-x="602" d="M-39 -315l37 168q51 -17 102 -17q133 0 133 144v890l-118 39v156h340v-1098q0 -138 -83.5 -226.5t-232.5 -88.5q-97 0 -178 33zM188 1356q0 55 37.5 94t93.5 39q55 0 95.5 -39.5t40.5 -93.5q0 -55 -40.5 -94t-95.5 -39q-56 0 -93.5 38.5t-37.5 94.5z" />
<glyph unicode="k" horiz-adv-x="1071" d="M150 0v1499h221v-950l411 516h262l-423 -498l413 -567h-246l-292 416l-125 -142v-274h-221z" />
<glyph unicode="l" horiz-adv-x="634" d="M158 231v1268h221v-1241q0 -31 8.5 -52t24 -29.5t28.5 -11.5t29 -3q19 0 43.5 3t39.5 6l15 3v-172q-86 -22 -176 -22q-60 0 -103.5 16t-66.5 38t-37.5 60t-18.5 65.5t-7 71.5z" />
<glyph unicode="m" horiz-adv-x="1845" d="M150 0v1065h172l36 -164q35 82 124 133t177 51q106 0 194.5 -57t125.5 -147q35 83 131 143.5t193 60.5q201 0 304 -107t103 -321v-657h-221v657q0 113 -54 176.5t-159 63.5q-114 0 -175 -78t-61 -205v-614h-221v668q0 105 -55 167t-154 62q-112 0 -175.5 -79t-63.5 -204 v-614h-221z" />
<glyph unicode="n" horiz-adv-x="1234" d="M150 0v1065h172l36 -182q2 9 14 30t39.5 51t64.5 56.5t96 45.5t126 19q84 0 155 -25.5t127 -78t88 -141t32 -205.5v-635h-221v627q0 132 -63.5 201t-172.5 69q-128 0 -200 -89t-72 -218v-590h-221z" />
<glyph unicode="o" horiz-adv-x="1320" d="M80 532q0 238 165 395.5t412 157.5q250 0 417 -157.5t167 -395.5q0 -158 -77 -285t-210.5 -197t-296.5 -70q-162 0 -293.5 70t-207.5 197t-76 285zM311 532q0 -157 92.5 -260.5t253.5 -103.5q164 0 258.5 104t94.5 260q0 159 -94.5 262t-258.5 103q-161 0 -253.5 -103 t-92.5 -262z" />
<glyph unicode="p" horiz-adv-x="1302" d="M147 -348v1413h177l28 -158q56 91 154 134.5t205 43.5q226 0 367 -156.5t141 -398.5q0 -111 -34.5 -210.5t-98.5 -175t-161.5 -120t-215.5 -44.5q-240 0 -340 151v-479h-222zM344 535q0 -161 91.5 -264t238.5 -103q135 0 226 104t91 263q0 160 -90.5 261t-226.5 101 q-141 0 -235.5 -99t-94.5 -263z" />
<glyph unicode="q" horiz-adv-x="1302" d="M84 530q0 242 141 398.5t367 156.5q107 0 204.5 -43.5t153.5 -134.5l29 158h176v-1413h-221v479q-100 -151 -340 -151q-118 0 -215.5 44.5t-161.5 120t-98.5 175t-34.5 210.5zM311 530q0 -158 91.5 -260t226.5 -102q147 0 238 101t91 261q0 164 -94 265.5t-235 101.5 q-134 0 -226 -104t-92 -263z" />
<glyph unicode="r" horiz-adv-x="761" d="M150 0v1065h174l30 -195q27 65 67 108t107.5 68t161.5 25h21v-194h-31q-309 0 -309 -316v-561h-221z" />
<glyph unicode="s" horiz-adv-x="966" d="M86 68l39 161q56 -23 151 -48t185 -25q223 0 223 135q0 37 -25.5 64.5t-66.5 43.5t-94 33t-108 32t-108 41.5t-94 60.5t-66.5 90t-25.5 128q0 96 55 166t140 102.5t188 32.5q99 0 199.5 -21.5t171.5 -51.5l-39 -164q-19 7 -51 17t-114.5 27t-145.5 17q-201 0 -201 -129 q0 -42 33 -70.5t85 -45.5t115.5 -33t127 -39.5t115.5 -57.5t85 -95t33 -144q0 -105 -55.5 -177.5t-146 -105t-208.5 -32.5q-109 0 -215 26.5t-182 61.5z" />
<glyph unicode="t" horiz-adv-x="737" d="M41 909v133l149 21l35 309h187v-307h280v-156h-280v-594q0 -85 33 -122t112 -37q36 0 131 22l8 -158q-99 -40 -207 -40q-164 0 -231.5 81t-67.5 265v583h-149z" />
<glyph unicode="u" horiz-adv-x="1228" d="M135 424v641h221v-649q0 -121 58 -184.5t174 -63.5q133 0 201.5 66.5t68.5 175.5v655h221v-1065h-176l-20 154q-102 -174 -338 -174q-202 0 -306 115t-104 329z" />
<glyph unicode="v" horiz-adv-x="1114" d="M61 1065h238l258 -817h4l258 817h238l-369 -1065h-258z" />
<glyph unicode="w" horiz-adv-x="1744" d="M63 1065h230l231 -807h6l226 807h235l226 -807h6l231 807h221l-329 -1065h-248l-226 772h-2l-225 -772h-252z" />
<glyph unicode="x" horiz-adv-x="1112" d="M37 0l381 532l-377 533h246l268 -383h4l268 383h246l-373 -533l377 -532h-252l-264 385h-4l-268 -385h-252z" />
<glyph unicode="y" horiz-adv-x="1193" d="M57 1065h242l301 -805h4l301 805h234l-449 -1120q-62 -150 -132 -221.5t-191 -71.5q-114 0 -217 33l34 180q90 -23 160 -23q47 0 77 43.5t54 114.5z" />
<glyph unicode="z" horiz-adv-x="1054" d="M72 0v166l635 723v4l-310 -6h-297v178h871v-170l-629 -721l2 -4l332 8h295v-178h-899z" />
<glyph unicode="{" horiz-adv-x="692" d="M78 469v147q63 6 87 20q40 25 40 85v426q1 56 8 98.5t26 83.5t51 67t85 42t125 16h102v-166h-102q-65 0 -91 -37t-26 -104v-457q0 -66 -27 -100.5t-90 -46.5q63 -12 90 -47t27 -99v-458q0 -68 26 -105t91 -37h102v-166h-102q-89 0 -149 23t-90.5 67.5t-42.5 95.5t-13 122 v426q0 27 -9 46.5t-18.5 29.5t-30.5 16.5t-29 7.5t-31 3q-6 1 -9 1z" />
<glyph unicode="|" horiz-adv-x="518" d="M168 -317v1939h182v-1939h-182z" />
<glyph unicode="}" horiz-adv-x="692" d="M90 -203h103q65 0 90.5 37t25.5 105v458q0 64 27 99t90 47q-63 12 -90 46.5t-27 100.5v457q0 68 -25.5 104.5t-90.5 36.5h-103v166h103q72 0 125 -16t84.5 -42t51 -67t26 -83.5t7.5 -98.5v-426q0 -27 9 -47t18.5 -29.5t31.5 -16.5t29 -8t31 -3q6 -1 8 -1v-147 q-62 -6 -85 -18q-42 -24 -42 -86v-426q-1 -71 -13 -122t-42 -95.5t-90 -67.5t-149 -23h-103v166z" />
<glyph unicode="&#xa1;" horiz-adv-x="548" d="M139 952q0 58 40.5 95.5t99.5 37.5q58 0 95.5 -38t37.5 -95t-38 -95t-95 -38q-59 0 -99.5 38t-40.5 95zM141 -369l45 1022h174l46 -1022h-265z" />
<glyph unicode="&#xa2;" horiz-adv-x="1138" d="M86 700q0 224 135.5 375t358.5 174v168h112v-164q149 -6 297 -73l-67 -156q-123 49 -236 49q-93 0 -166.5 -31.5t-117.5 -85t-66.5 -118.5t-22.5 -138q0 -159 98.5 -263.5t278.5 -104.5q116 0 244 53l61 -158q-163 -75 -303 -80v-167h-112v174q-222 25 -358 174t-136 372 z" />
<glyph unicode="&#xa3;" horiz-adv-x="1124" d="M96 0v182q4 2 11.5 7t26 23t32.5 39t25.5 57t11.5 75v240h-105v125h105v249q0 90 27 171t78 145.5t134 102.5t187 38t198 -45.5t158 -120.5l-129 -135q-40 48 -100 76t-127 28q-100 0 -152.5 -69.5t-52.5 -183.5v-256h444v-125h-444v-179q0 -77 -29.5 -153t-75.5 -107 h685v-184h-908z" />
<glyph unicode="&#xa5;" horiz-adv-x="1372" d="M68 1434h247l371 -621h2l371 621h248l-506 -852v-47h237v-121h-237v-76h237v-121h-237v-217h-226v217h-237v121h237v76h-237v121h237v47z" />
<glyph unicode="&#xa7;" horiz-adv-x="1228" d="M111 557q0 172 161 301q-151 95 -151 250q0 153 130 239.5t355 86.5q237 0 459 -97l-66 -168q-206 78 -370 78q-124 0 -194 -44.5t-70 -117.5q0 -54 41.5 -94t107.5 -64.5t146 -46.5t160.5 -48.5t146.5 -61.5t107.5 -95t41.5 -140q0 -69 -31.5 -136t-65 -104t-69.5 -66 q80 -46 118 -106t38 -141q0 -156 -130.5 -244t-357.5 -88q-239 0 -456 98l65 166q198 -76 367 -76q127 0 197.5 44.5t70.5 117.5q0 54 -41.5 93t-107.5 63t-146.5 45.5t-160.5 48.5t-146 63t-107.5 98t-41.5 146zM309 596q0 -41 20 -76t56 -61.5t77 -47t94.5 -37t95 -27.5 t91 -23t72.5 -19q100 95 100 182q0 40 -19.5 74.5t-55.5 60.5t-76.5 46.5t-94 37.5t-94.5 28t-92.5 23t-74.5 19q-99 -91 -99 -180z" />
<glyph unicode="&#xa8;" horiz-adv-x="1030" d="M174 1337q0 49 35 84t84 35t84 -35t35 -84t-34.5 -83.5t-84.5 -34.5t-84.5 34.5t-34.5 83.5zM616 1337q0 49 35 84t84 35t84 -35t35 -84t-34.5 -83.5t-84.5 -34.5t-84.5 34.5t-34.5 83.5z" />
<glyph unicode="&#xa9;" horiz-adv-x="1660" d="M109 717q0 145 57 277.5t153.5 229t230 153.5t279.5 57q148 0 282 -57t231 -153.5t154.5 -229t57.5 -277.5q0 -193 -97.5 -358.5t-264.5 -262t-363 -96.5q-145 0 -278.5 57t-230 153.5t-154 229t-57.5 277.5zM203 717q0 -126 49.5 -241.5t133 -199.5t199.5 -134t244 -50 q171 0 316.5 84.5t230 228.5t84.5 312q0 167 -85 311t-230.5 228.5t-315.5 84.5q-127 0 -243 -50t-200 -134t-133.5 -199.5t-49.5 -240.5zM459 717q0 165 110 272t277 107q144 0 254 -101l-78 -104q-73 55 -174 55q-100 0 -162.5 -66.5t-62.5 -164.5t62.5 -164t162.5 -66 q97 0 174 56l76 -105q-100 -100 -252 -100q-169 0 -278 107.5t-109 273.5z" />
<glyph unicode="&#xaa;" horiz-adv-x="1038" d="M143 475v135h748v-135h-748zM160 958q0 80 44 133t110 74t151 21q34 0 77 -4t69 -8l26 -3v29q0 82 -39 122t-141 40q-28 0 -61 -4.5t-54.5 -9t-49.5 -11.5t-34 -8l-29 119q49 19 128.5 35t142.5 16q136 0 214.5 -70t78.5 -198v-344q0 -23 8.5 -31t27.5 -8q22 0 54 8v-111 q-5 -3 -20.5 -9.5t-44.5 -13.5t-56 -7q-55 0 -88 28.5t-33 77.5q-64 -106 -211 -106q-113 0 -191.5 61t-78.5 182zM313 965q0 -62 41 -88.5t101 -26.5q73 0 127.5 44.5t54.5 115.5v53q-10 3 -60 7.5t-85 4.5q-179 0 -179 -110z" />
<glyph unicode="&#xab;" horiz-adv-x="1253" d="M88 510v45l432 479l113 -114l-297 -388l295 -389l-111 -114zM600 510v45l432 479l113 -114l-297 -388l295 -389l-111 -114z" />
<glyph unicode="&#xad;" horiz-adv-x="1028" d="M141 612v148h746v-148h-746z" />
<glyph unicode="&#xae;" horiz-adv-x="1214" d="M143 971q0 127 61.5 233.5t168.5 168t235 61.5q194 0 328.5 -135t134.5 -328q0 -188 -136 -323.5t-327 -135.5q-194 0 -329.5 134.5t-135.5 324.5zM225 971q0 -157 111.5 -267t271.5 -110q156 0 268.5 109.5t112.5 267.5q0 157 -111.5 270t-269.5 113 q-160 0 -271.5 -112.5t-111.5 -270.5zM426 715v514h231q63 0 108.5 -45.5t45.5 -108.5q0 -48 -28.5 -88t-73.5 -53l129 -219h-93l-124 209h-113v-209h-82zM508 1004h149q30 0 52 20.5t22 50.5q0 31 -22.5 53.5t-51.5 22.5h-149v-147z" />
<glyph unicode="&#xaf;" horiz-adv-x="960" d="M168 1223v131h627v-131h-627z" />
<glyph unicode="&#xb0;" horiz-adv-x="675" d="M123 1247q0 96 62.5 153.5t152.5 57.5q91 0 154 -57.5t63 -153.5q0 -94 -63 -150.5t-154 -56.5q-90 0 -152.5 56.5t-62.5 150.5zM217 1247q0 -59 33.5 -92t87.5 -33q55 0 89 33t34 92q0 61 -33.5 95t-89.5 34q-54 0 -87.5 -34t-33.5 -95z" />
<glyph unicode="&#xb1;" horiz-adv-x="1050" d="M141 653v142h312v282h145v-282h309v-142h-309v-284h-145v284h-312zM143 86v147h764v-147h-764z" />
<glyph unicode="&#xb4;" horiz-adv-x="641" d="M166 1198l147 361l156 -78l-160 -283h-143z" />
<glyph unicode="&#xb5;" horiz-adv-x="1263" d="M166 -348v1413h211v-614q0 -122 70.5 -202.5t195.5 -80.5t202 81.5t77 205.5v610h211v-1065h-160l-35 147q-103 -167 -301 -167q-98 0 -164.5 39t-95.5 106v-473h-211z" />
<glyph unicode="&#xb6;" horiz-adv-x="1187" d="M82 1004q0 89 26.5 163t69 122.5t97.5 82t110 48t109 14.5h501v-1608h-168v1442h-149v-1442h-164v739h-49q-92 1 -166.5 37t-121 97t-71 139t-24.5 166z" />
<glyph unicode="&#xb7;" horiz-adv-x="579" d="M129 616q0 66 46.5 113t111.5 47q67 0 114.5 -47t47.5 -113q0 -65 -47.5 -111t-114.5 -46q-65 0 -111.5 46.5t-46.5 110.5z" />
<glyph unicode="&#xb8;" horiz-adv-x="722" d="M164 -397l26 90q40 -12 95 -12q129 0 129 75q0 28 -21.5 48t-68.5 20l-37 -4l-43 45l57 155h111l-41 -118q89 0 138.5 -40.5t49.5 -107.5q0 -88 -69.5 -130t-174.5 -42q-69 0 -151 21z" />
<glyph unicode="&#xba;" horiz-adv-x="1124" d="M150 475v135h823v-135h-823zM150 1108q0 168 114.5 279.5t296.5 111.5t297 -111.5t115 -279.5q0 -169 -115 -281t-297 -112t-296.5 112t-114.5 281zM315 1108q0 -110 67.5 -183t178.5 -73t178.5 73t67.5 183q0 109 -67.5 181.5t-178.5 72.5t-178.5 -72.5t-67.5 -181.5z " />
<glyph unicode="&#xbb;" horiz-adv-x="1253" d="M106 920l113 114l432 -479v-45l-432 -481l-110 114l294 389zM621 920l112 114l432 -479v-45l-432 -481l-110 114l295 389z" />
<glyph unicode="&#xbf;" horiz-adv-x="985" d="M86 -16q0 64 21 117.5t54.5 89.5t73.5 67.5t80.5 59t74 56t54.5 67t21 83.5v127h182v-141q0 -59 -19 -108t-49.5 -83t-67.5 -64t-74 -57.5t-67.5 -56t-49.5 -66.5t-19 -83q0 -85 69 -139t165 -54q66 0 146 26t128 58l98 -151q-71 -53 -174 -87t-203 -34 q-117 0 -216.5 41.5t-163.5 128.5t-64 203zM416 952q0 58 37 95.5t96 37.5t99 -37.5t40 -95.5q0 -57 -40 -95t-99 -38q-58 0 -95.5 38t-37.5 95z" />
<glyph unicode="&#xc0;" d="M31 0l518 1452h282l519 -1452h-240l-127 371h-586l-127 -371h-239zM451 1812l155 78l148 -360h-144zM459 559h463l-230 672h-4z" />
<glyph unicode="&#xc1;" d="M31 0l518 1452h282l519 -1452h-240l-127 371h-586l-127 -371h-239zM459 559h463l-230 672h-4zM635 1530l147 360l156 -78l-160 -282h-143z" />
<glyph unicode="&#xc2;" d="M31 0l518 1452h282l519 -1452h-240l-127 371h-586l-127 -371h-239zM377 1530l239 272h148l240 -272h-173l-141 162l-141 -162h-172zM459 559h463l-230 672h-4z" />
<glyph unicode="&#xc3;" d="M31 0l518 1452h282l519 -1452h-240l-127 371h-586l-127 -371h-239zM362 1610q37 67 96 112t126 45q54 0 128.5 -44t121.5 -44q57 0 118 72l64 -47q-38 -69 -97.5 -114.5t-127.5 -45.5q-37 0 -71 13.5t-56 29.5t-54 29.5t-65 13.5q-53 0 -119 -71zM459 559h463l-230 672 h-4z" />
<glyph unicode="&#xc4;" d="M31 0l518 1452h282l519 -1452h-240l-127 371h-586l-127 -371h-239zM360 1649q0 45 31.5 76.5t73.5 31.5q47 0 76.5 -30.5t29.5 -77.5q0 -46 -30 -75.5t-76 -29.5q-45 0 -75 30t-30 75zM459 559h463l-230 672h-4zM803 1649q0 45 31.5 76.5t72.5 31.5q46 0 77.5 -30.5 t31.5 -77.5q0 -45 -31.5 -75t-77.5 -30q-45 0 -74.5 30t-29.5 75z" />
<glyph unicode="&#xc5;" d="M31 0l518 1452h282l519 -1452h-240l-127 371h-586l-127 -371h-239zM459 559h463l-230 672h-4zM502 1720q0 82 54 133.5t130 51.5t130 -51.5t54 -133.5t-54 -133t-130 -51t-130 51t-54 133zM588 1720q0 -49 27 -76.5t71 -27.5t71 27.5t27 76.5t-27 77t-71 28t-71 -28 t-27 -77z" />
<glyph unicode="&#xc6;" horiz-adv-x="2037" d="M2 0l682 1434h1237v-199h-774v-440h661v-191h-661v-405h795v-199h-1020v371h-498l-174 -371h-248zM502 559h420v676h-117z" />
<glyph unicode="&#xc7;" horiz-adv-x="1372" d="M96 717q0 154 57 289.5t156.5 234.5t242.5 156t308 57q117 0 237.5 -33t200.5 -80l-79 -165q-18 9 -50.5 22t-126 35t-180.5 22q-236 0 -380 -150t-144 -388q0 -239 143.5 -389t380.5 -150q87 0 176 20t135 40l46 20l79 -166q-80 -46 -200 -79t-238 -33h-6l-25 -78 q89 0 139 -40.5t50 -107.5q0 -88 -67 -129t-171 -43q-71 0 -157 21l26 86q40 -8 96 -8q127 0 127 75q0 28 -21.5 48t-68.5 20l-37 -4l-43 45l41 123q-287 37 -467 241t-180 488z" />
<glyph unicode="&#xc8;" horiz-adv-x="1300" d="M182 0v1434h1000v-199h-774v-440h661v-191h-661v-405h794v-199h-1020zM496 1812l155 78l148 -360h-144z" />
<glyph unicode="&#xc9;" horiz-adv-x="1300" d="M182 0v1434h1000v-199h-774v-440h661v-191h-661v-405h794v-199h-1020zM582 1530l147 360l156 -78l-160 -282h-143z" />
<glyph unicode="&#xca;" horiz-adv-x="1300" d="M182 0v1434h1000v-199h-774v-440h661v-191h-661v-405h794v-199h-1020zM377 1530l239 272h148l240 -272h-173l-141 162l-141 -162h-172z" />
<glyph unicode="&#xcb;" horiz-adv-x="1300" d="M182 0v1434h1000v-199h-774v-440h661v-191h-661v-405h794v-199h-1020zM371 1649q0 45 31 76.5t73 31.5q47 0 77 -30.5t30 -77.5q0 -46 -30.5 -75.5t-76.5 -29.5q-45 0 -74.5 30t-29.5 75zM813 1649q0 45 32 76.5t73 31.5q46 0 77 -30.5t31 -77.5q0 -45 -31 -75t-77 -30 q-45 0 -75 30t-30 75z" />
<glyph unicode="&#xcc;" horiz-adv-x="579" d="M53 1812l156 78l147 -360h-143zM172 0v1434h225v-1434h-225z" />
<glyph unicode="&#xcd;" horiz-adv-x="589" d="M182 0v1434h226v-1434h-226zM227 1530l148 360l155 -78l-159 -282h-144z" />
<glyph unicode="&#xce;" horiz-adv-x="604" d="M-6 1530l239 272h148l240 -272h-172l-142 162l-141 -162h-172zM195 0v1434h225v-1434h-225z" />
<glyph unicode="&#xcf;" horiz-adv-x="589" d="M-35 1649q0 45 31.5 76.5t73.5 31.5q47 0 76.5 -30.5t29.5 -77.5q0 -46 -30 -75.5t-76 -29.5q-45 0 -75 30t-30 75zM178 0v1434h225v-1434h-225zM408 1649q0 45 31.5 76.5t72.5 31.5q46 0 77.5 -30.5t31.5 -77.5q0 -45 -31.5 -75t-77.5 -30q-44 0 -74 30t-30 75z" />
<glyph unicode="&#xd0;" horiz-adv-x="1460" d="M6 664v116h187v654h497q193 0 344 -88q111 -64 185.5 -167.5t107.5 -219t33 -242.5q0 -196 -86.5 -364.5t-249.5 -262.5q-159 -90 -334 -90h-497v664h-187zM418 199h231q155 0 275 73q196 119 196 445q0 321 -196 444q-120 74 -275 74h-231v-455h287v-116h-287v-465z" />
<glyph unicode="&#xd1;" horiz-adv-x="1505" d="M182 0v1434h234l436 -668l252 -412h4l-10 490v590h225v-1434h-231l-439 696l-252 396h-4l11 -406v-686h-226zM438 1610q37 67 95.5 112t125.5 45q54 0 128.5 -44t121.5 -44q58 0 119 72l64 -47q-38 -69 -98 -114.5t-128 -45.5q-47 0 -87 21.5t-78.5 43t-79.5 21.5 q-53 0 -119 -71z" />
<glyph unicode="&#xd2;" horiz-adv-x="1685" d="M94 717q0 162 60 301t161.5 234t238.5 148.5t288 53.5q152 0 289 -53.5t238.5 -148.5t161.5 -234t60 -301t-60 -301t-161.5 -234t-238.5 -148.5t-289 -53.5q-151 0 -288 53.5t-238.5 148.5t-161.5 234t-60 301zM332 717q0 -253 141 -396t369 -143q229 0 370.5 143 t141.5 396q0 252 -142 395t-370 143q-227 0 -368.5 -143t-141.5 -395zM653 1812l156 78l147 -360h-143z" />
<glyph unicode="&#xd3;" horiz-adv-x="1683" d="M92 717q0 162 60 301t161.5 234t238.5 148.5t288 53.5q152 0 289 -53.5t238.5 -148.5t161.5 -234t60 -301t-60 -301t-161.5 -234t-238.5 -148.5t-289 -53.5q-151 0 -288 53.5t-238.5 148.5t-161.5 234t-60 301zM330 717q0 -253 141 -396t369 -143q229 0 370.5 143 t141.5 396q0 252 -142 395t-370 143q-227 0 -368.5 -143t-141.5 -395zM705 1530l147 360l156 -78l-160 -282h-143z" />
<glyph unicode="&#xd4;" horiz-adv-x="1685" d="M94 717q0 162 60 301t161.5 234t238.5 148.5t288 53.5q152 0 289 -53.5t238.5 -148.5t161.5 -234t60 -301t-60 -301t-161.5 -234t-238.5 -148.5t-289 -53.5q-151 0 -288 53.5t-238.5 148.5t-161.5 234t-60 301zM332 717q0 -253 141 -396t369 -143q229 0 370.5 143 t141.5 396q0 252 -142 395t-370 143q-227 0 -368.5 -143t-141.5 -395zM528 1530l240 272h147l240 -272h-172l-141 162l-142 -162h-172z" />
<glyph unicode="&#xd5;" horiz-adv-x="1685" d="M94 717q0 162 60 301t161.5 234t238.5 148.5t288 53.5q152 0 289 -53.5t238.5 -148.5t161.5 -234t60 -301t-60 -301t-161.5 -234t-238.5 -148.5t-289 -53.5q-151 0 -288 53.5t-238.5 148.5t-161.5 234t-60 301zM332 717q0 -253 141 -396t369 -143q229 0 370.5 143 t141.5 396q0 252 -142 395t-370 143q-227 0 -368.5 -143t-141.5 -395zM518 1610q37 67 95.5 112t125.5 45q54 0 128.5 -44t121.5 -44q58 0 119 72l63 -47q-38 -69 -97.5 -114.5t-127.5 -45.5q-37 0 -71 13.5t-56 29.5t-54 29.5t-65 13.5q-24 0 -49.5 -14t-37.5 -25.5 t-31 -31.5z" />
<glyph unicode="&#xd6;" horiz-adv-x="1685" d="M94 717q0 162 60 301t161.5 234t238.5 148.5t288 53.5q152 0 289 -53.5t238.5 -148.5t161.5 -234t60 -301t-60 -301t-161.5 -234t-238.5 -148.5t-289 -53.5q-151 0 -288 53.5t-238.5 148.5t-161.5 234t-60 301zM332 717q0 -253 141 -396t369 -143q229 0 370.5 143 t141.5 396q0 252 -142 395t-370 143q-227 0 -368.5 -143t-141.5 -395zM516 1649q0 45 31.5 76.5t73.5 31.5q47 0 76.5 -30.5t29.5 -77.5q0 -46 -30 -75.5t-76 -29.5q-45 0 -75 30t-30 75zM958 1649q0 45 32 76.5t73 31.5q46 0 77 -30.5t31 -77.5q0 -45 -31 -75t-77 -30 q-45 0 -75 30t-30 75z" />
<glyph unicode="&#xd7;" horiz-adv-x="899" d="M137 438l221 219l-221 222l90 88l222 -219l223 223l90 -90l-221 -224l219 -219l-90 -94l-221 223l-220 -223z" />
<glyph unicode="&#xd8;" horiz-adv-x="1683" d="M92 717q0 162 60 301t161.5 234t238.5 148.5t288 53.5q181 0 342 -76l82 127h186l-135 -209q128 -100 201 -249t73 -330q0 -162 -60 -301t-161.5 -234t-238.5 -148.5t-289 -53.5q-181 0 -332 71l-78 -123h-184l129 201q-133 99 -208 250.5t-75 337.5zM330 717 q0 -267 157 -414l584 905q-103 47 -231 47q-227 0 -368.5 -143t-141.5 -395zM618 219q100 -41 222 -41q229 0 370.5 143t141.5 396q0 254 -152 403z" />
<glyph unicode="&#xd9;" horiz-adv-x="1468" d="M168 518v916h225v-922q0 -153 92 -243.5t248 -90.5t249 90t93 244v922h225v-916q0 -248 -148.5 -393t-416.5 -145q-260 0 -413.5 141t-153.5 397zM549 1812l156 78l147 -360h-143z" />
<glyph unicode="&#xda;" horiz-adv-x="1468" d="M168 518v916h225v-922q0 -153 92 -243.5t248 -90.5t249 90t93 244v922h225v-916q0 -248 -148.5 -393t-416.5 -145q-260 0 -413.5 141t-153.5 397zM629 1530l147 360l156 -78l-160 -282h-143z" />
<glyph unicode="&#xdb;" horiz-adv-x="1468" d="M168 518v916h225v-922q0 -153 92 -243.5t248 -90.5t249 90t93 244v922h225v-916q0 -248 -148.5 -393t-416.5 -145q-260 0 -413.5 141t-153.5 397zM422 1530l240 272h147l240 -272h-172l-142 162l-141 -162h-172z" />
<glyph unicode="&#xdc;" horiz-adv-x="1468" d="M168 518v916h225v-922q0 -153 92 -243.5t248 -90.5t249 90t93 244v922h225v-916q0 -248 -148.5 -393t-416.5 -145q-260 0 -413.5 141t-153.5 397zM408 1649q0 45 31.5 76.5t70.5 31.5q48 0 79.5 -30.5t31.5 -77.5q0 -46 -31.5 -75.5t-79.5 -29.5q-43 0 -72.5 30t-29.5 75 zM852 1649q0 45 31.5 76.5t70.5 31.5q48 0 79.5 -30.5t31.5 -77.5q0 -46 -31.5 -75.5t-79.5 -29.5q-43 0 -72.5 30t-29.5 75z" />
<glyph unicode="&#xdd;" horiz-adv-x="1259" d="M10 1434h248l371 -621h2l370 621h248l-506 -852v-582h-225v582zM524 1530l148 360l155 -78l-159 -282h-144z" />
<glyph unicode="&#xde;" horiz-adv-x="1292" d="M182 0v1434h226v-263h393q178 0 303 -127.5t125 -312.5q0 -191 -124 -323t-298 -132h-399v-276h-226zM408 479h393q85 0 144 71t59 179q0 114 -75 175t-194 61h-327v-486z" />
<glyph unicode="&#xdf;" horiz-adv-x="1214" d="M150 0v985q0 115 34.5 206.5t94 147.5t136.5 85.5t165 29.5q198 0 313 -106.5t115 -274.5q0 -58 -17.5 -109t-38 -82.5t-38 -74.5t-17.5 -86q0 -34 19.5 -65.5t49 -55.5t63.5 -55.5t63.5 -64t49 -82.5t19.5 -109q0 -151 -92 -243.5t-278 -92.5q-81 0 -164 16.5t-119 36.5 l37 178q1 -1 13 -5t21.5 -7.5t26.5 -8.5t34.5 -9t38.5 -7.5t45.5 -5.5t49.5 -2q75 0 120.5 38.5t45.5 115.5q0 56 -27 99t-65 73t-76 60.5t-65 77t-27 106.5q0 49 26.5 106t53 115t26.5 110q0 92 -53 150.5t-145 58.5q-93 0 -155 -80.5t-62 -224.5v-944h-221z" />
<glyph unicode="&#xe0;" horiz-adv-x="1146" d="M59 319q0 91 35.5 157.5t99.5 104.5t143.5 56t176.5 18q56 0 117.5 -5t94.5 -10l34 -5v65q0 60 -18 101.5t-52 63t-73 30t-91 8.5q-162 0 -331 -49l-41 164q76 26 190.5 46.5t218.5 20.5q198 0 305 -88t107 -262v-485q0 -60 57 -60q28 0 80 9v-179q-10 -6 -62 -17 t-94 -11q-71 0 -124 38t-56 117q-38 -79 -122 -123t-210 -44q-174 0 -279.5 89.5t-105.5 249.5zM272 328q0 -84 57.5 -128t143.5 -44q112 0 199.5 61.5t87.5 151.5v112q-107 19 -209 19q-279 0 -279 -172zM367 1489l155 78l148 -361h-144z" />
<glyph unicode="&#xe1;" horiz-adv-x="1146" d="M59 319q0 91 35.5 157.5t99.5 104.5t143.5 56t176.5 18q56 0 117.5 -5t94.5 -10l34 -5v65q0 60 -18 101.5t-52 63t-73 30t-91 8.5q-162 0 -331 -49l-41 164q76 26 190.5 46.5t218.5 20.5q198 0 305 -88t107 -262v-485q0 -60 57 -60q28 0 80 9v-179q-10 -6 -62 -17 t-94 -11q-71 0 -124 38t-56 117q-38 -79 -122 -123t-210 -44q-174 0 -279.5 89.5t-105.5 249.5zM272 328q0 -84 57.5 -128t143.5 -44q112 0 199.5 61.5t87.5 151.5v112q-107 19 -209 19q-279 0 -279 -172zM453 1206l147 361l156 -78l-160 -283h-143z" />
<glyph unicode="&#xe2;" horiz-adv-x="1146" d="M59 319q0 91 35.5 157.5t99.5 104.5t143.5 56t176.5 18q56 0 117.5 -5t94.5 -10l34 -5v65q0 60 -18 101.5t-52 63t-73 30t-91 8.5q-162 0 -331 -49l-41 164q76 26 190.5 46.5t218.5 20.5q198 0 305 -88t107 -262v-485q0 -60 57 -60q28 0 80 9v-179q-10 -6 -62 -17 t-94 -11q-71 0 -124 38t-56 117q-38 -79 -122 -123t-210 -44q-174 0 -279.5 89.5t-105.5 249.5zM256 1206l240 273h147l240 -273h-172l-142 162l-141 -162h-172zM272 328q0 -84 57.5 -128t143.5 -44q112 0 199.5 61.5t87.5 151.5v112q-107 19 -209 19q-279 0 -279 -172z" />
<glyph unicode="&#xe3;" horiz-adv-x="1146" d="M59 319q0 91 35.5 157.5t99.5 104.5t143.5 56t176.5 18q56 0 117.5 -5t94.5 -10l34 -5v65q0 60 -18 101.5t-52 63t-73 30t-91 8.5q-162 0 -331 -49l-41 164q76 26 190.5 46.5t218.5 20.5q198 0 305 -88t107 -262v-485q0 -60 57 -60q28 0 80 9v-179q-10 -6 -62 -17 t-94 -11q-71 0 -124 38t-56 117q-38 -79 -122 -123t-210 -44q-174 0 -279.5 89.5t-105.5 249.5zM252 1284q37 67 96 112.5t125 45.5q54 0 128.5 -44t121.5 -44q59 0 119 71l63 -47q-38 -69 -97.5 -114t-127.5 -45q-37 0 -71 13.5t-56 29.5t-54 29.5t-65 13.5 q-24 0 -49.5 -14t-38 -26t-31.5 -32zM272 328q0 -84 57.5 -128t143.5 -44q112 0 199.5 61.5t87.5 151.5v112q-107 19 -209 19q-279 0 -279 -172z" />
<glyph unicode="&#xe4;" horiz-adv-x="1146" d="M59 319q0 91 35.5 157.5t99.5 104.5t143.5 56t176.5 18q56 0 117.5 -5t94.5 -10l34 -5v65q0 60 -18 101.5t-52 63t-73 30t-91 8.5q-162 0 -331 -49l-41 164q76 26 190.5 46.5t218.5 20.5q198 0 305 -88t107 -262v-485q0 -60 57 -60q28 0 80 9v-179q-10 -6 -62 -17 t-94 -11q-71 0 -124 38t-56 117q-38 -79 -122 -123t-210 -44q-174 0 -279.5 89.5t-105.5 249.5zM264 1319q0 45 31.5 75.5t73.5 30.5q47 0 76.5 -29.5t29.5 -76.5t-30 -77t-76 -30q-45 0 -75 30t-30 77zM272 328q0 -84 57.5 -128t143.5 -44q112 0 199.5 61.5t87.5 151.5v112 q-107 19 -209 19q-279 0 -279 -172zM707 1319q0 45 31.5 75.5t72.5 30.5q46 0 77.5 -29.5t31.5 -76.5t-31.5 -77t-77.5 -30q-45 0 -74.5 30t-29.5 77z" />
<glyph unicode="&#xe5;" horiz-adv-x="1146" d="M59 319q0 91 35.5 157.5t99.5 104.5t143.5 56t176.5 18q56 0 117.5 -5t94.5 -10l34 -5v65q0 60 -18 101.5t-52 63t-73 30t-91 8.5q-162 0 -331 -49l-41 164q76 26 190.5 46.5t218.5 20.5q198 0 305 -88t107 -262v-485q0 -60 57 -60q28 0 80 9v-179q-10 -6 -62 -17 t-94 -11q-71 0 -124 38t-56 117q-38 -79 -122 -123t-210 -44q-174 0 -279.5 89.5t-105.5 249.5zM272 328q0 -84 57.5 -128t143.5 -44q112 0 199.5 61.5t87.5 151.5v112q-107 19 -209 19q-279 0 -279 -172zM397 1391q0 82 54.5 133t130.5 51t130 -51t54 -133t-54 -133.5 t-130 -51.5t-130.5 51.5t-54.5 133.5zM483 1391q0 -49 27.5 -77t71.5 -28t71 28t27 77t-27 76.5t-71 27.5t-71.5 -28t-27.5 -76z" />
<glyph unicode="&#xe6;" horiz-adv-x="1888" d="M61 319q0 91 35.5 157.5t99.5 104.5t143.5 56t176.5 18q88 0 236 -18q3 22 10 51v12q0 60 -18 101.5t-52 63t-73 30t-91 8.5q-159 0 -331 -43l-41 158q76 26 190.5 46.5t218.5 20.5q260 0 363 -139q152 139 381 139q122 0 220 -44t159.5 -119.5t94 -172.5t32.5 -206 q0 -27 -2.5 -50.5t-4.5 -33.5l-2 -10h-807q9 -128 107 -204.5t242 -76.5q152 0 319 72l78 -166q-76 -41 -187.5 -67.5t-218.5 -26.5q-304 0 -465 194q-185 -194 -423 -194q-174 0 -282 90t-108 249zM274 328q0 -84 57.5 -128t143.5 -44q98 0 180.5 55t120.5 117 q-28 81 -33 155q-93 17 -190 17q-279 0 -279 -172zM997 610h602q-2 56 -19 105.5t-49.5 91t-86 66t-123.5 24.5q-128 0 -218.5 -80t-105.5 -207z" />
<glyph unicode="&#xe7;" horiz-adv-x="1048" d="M82 535q0 115 42 216t116.5 175t181.5 116.5t231 42.5q170 0 328 -81l-76 -160l-7 4l-16 6t-22.5 8.5t-29 9.5t-34 9t-39 8.5t-43 5.5t-46.5 2q-94 0 -166.5 -34t-113 -89.5t-60 -117t-19.5 -126.5q0 -66 21.5 -128t63 -115.5t112 -86t160.5 -32.5q120 0 239 51l68 -160 q-58 -36 -154 -57.5t-182 -21.5h-10l-25 -78q89 0 139 -40.5t50 -107.5q0 -88 -69.5 -130t-174.5 -42q-70 0 -152 21l27 86q46 -8 96 -8q127 0 127 75q0 28 -21.5 48t-68.5 20l-37 -4l-43 45l47 127q-195 37 -317.5 187.5t-122.5 355.5z" />
<glyph unicode="&#xe8;" horiz-adv-x="1208" d="M82 528q0 155 68 281.5t194 201t285 74.5q122 0 218.5 -42t156 -115t90 -168t30.5 -205q0 -43 -6 -96h-799q7 -129 106.5 -210t242.5 -81q98 0 168 18t151 54l78 -166q-75 -42 -184.5 -68t-218.5 -26q-257 0 -418.5 154t-161.5 394zM317 610h592q0 54 -15 103.5t-46 91.5 t-84.5 67t-122.5 25q-129 0 -218 -79t-106 -208zM461 1489l155 78l148 -361h-143z" />
<glyph unicode="&#xe9;" horiz-adv-x="1208" d="M82 528q0 155 68 281.5t194 201t285 74.5q122 0 218.5 -42t156 -115t90 -168t30.5 -205q0 -43 -6 -96h-799q7 -129 106.5 -210t242.5 -81q98 0 168 18t151 54l78 -166q-75 -42 -184.5 -68t-218.5 -26q-257 0 -418.5 154t-161.5 394zM317 610h592q0 54 -15 103.5t-46 91.5 t-84.5 67t-122.5 25q-129 0 -218 -79t-106 -208zM510 1206l147 361l156 -78l-160 -283h-143z" />
<glyph unicode="&#xea;" horiz-adv-x="1208" d="M82 528q0 155 68 281.5t194 201t285 74.5q122 0 218.5 -42t156 -115t90 -168t30.5 -205q0 -43 -6 -96h-799q7 -129 106.5 -210t242.5 -81q98 0 168 18t151 54l78 -166q-75 -42 -184.5 -68t-218.5 -26q-257 0 -418.5 154t-161.5 394zM317 610h592q0 54 -15 103.5t-46 91.5 t-84.5 67t-122.5 25q-129 0 -218 -79t-106 -208zM322 1206l239 273h148l239 -273h-172l-141 162l-141 -162h-172z" />
<glyph unicode="&#xeb;" horiz-adv-x="1208" d="M82 528q0 155 68 281.5t194 201t285 74.5q122 0 218.5 -42t156 -115t90 -168t30.5 -205q0 -43 -6 -96h-799q7 -129 106.5 -210t242.5 -81q98 0 168 18t151 54l78 -166q-75 -42 -184.5 -68t-218.5 -26q-257 0 -418.5 154t-161.5 394zM309 1319q0 45 31.5 75.5t73.5 30.5 q47 0 76.5 -29.5t29.5 -76.5t-30 -77t-76 -30q-45 0 -75 30t-30 77zM317 610h592q0 54 -15 103.5t-46 91.5t-84.5 67t-122.5 25q-129 0 -218 -79t-106 -208zM752 1319q0 45 31.5 75.5t72.5 30.5q46 0 77.5 -29.5t31.5 -76.5t-31.5 -77t-77.5 -30q-45 0 -74.5 30t-29.5 77z " />
<glyph unicode="&#xec;" horiz-adv-x="532" d="M12 1489l156 78l147 -361h-143zM45 909v156h340v-1065h-221v870z" />
<glyph unicode="&#xed;" horiz-adv-x="540" d="M84 909v156h340v-1065h-221v870zM195 1206l147 361l156 -78l-160 -283h-143z" />
<glyph unicode="&#xee;" horiz-adv-x="567" d="M-59 1206l239 273h148l239 -273h-172l-141 162l-141 -162h-172zM82 909v156h340v-1065h-221v870z" />
<glyph unicode="&#xef;" horiz-adv-x="555" d="M-80 1319q0 45 31.5 75.5t73.5 30.5q47 0 76.5 -29.5t29.5 -76.5t-30 -77t-76 -30q-45 0 -75 30t-30 77zM72 909v156h340v-1065h-222v870zM362 1319q0 44 32 75t73 31q46 0 77 -29.5t31 -76.5t-31 -77t-77 -30q-45 0 -75 30t-30 77z" />
<glyph unicode="&#xf0;" horiz-adv-x="1255" d="M86 498q0 155 71.5 271t188.5 174t260 58q99 0 183.5 -38.5t134.5 -106.5q-62 246 -228 418l-176 -119l-51 72l160 110q-117 97 -262 156l53 127q188 -67 342 -193l186 129l56 -75l-173 -117q154 -152 239 -353.5t85 -422.5q0 -276 -149 -442t-390 -166q-170 0 -291.5 70 t-180 185.5t-58.5 262.5zM309 496q0 -141 79.5 -233.5t227.5 -92.5q140 0 222 95t82 243q0 141 -88 226t-218 85q-142 0 -223.5 -91.5t-81.5 -231.5z" />
<glyph unicode="&#xf1;" horiz-adv-x="1234" d="M150 0v1065h172l36 -182q2 9 14 30t39.5 51t64.5 56.5t96 45.5t126 19q84 0 155 -25.5t127 -78t88 -141t32 -205.5v-635h-221v627q0 132 -63.5 201t-172.5 69q-128 0 -200 -89t-72 -218v-590h-221zM319 1286q37 67 96.5 112.5t125.5 45.5q54 0 128.5 -44t121.5 -44 q58 0 118 71l64 -47q-38 -69 -97.5 -114t-127.5 -45q-37 0 -71 13.5t-56 29.5t-54 29.5t-65 13.5q-24 0 -49.5 -14t-38 -26t-31.5 -32z" />
<glyph unicode="&#xf2;" horiz-adv-x="1320" d="M80 532q0 238 165 395.5t412 157.5q250 0 417 -157.5t167 -395.5q0 -158 -77 -285t-210.5 -197t-296.5 -70q-162 0 -293.5 70t-207.5 197t-76 285zM311 532q0 -157 92.5 -260.5t253.5 -103.5q164 0 258.5 104t94.5 260q0 159 -94.5 262t-258.5 103q-161 0 -253.5 -103 t-92.5 -262zM473 1489l156 78l147 -361h-143z" />
<glyph unicode="&#xf3;" horiz-adv-x="1320" d="M80 532q0 238 165 395.5t412 157.5q250 0 417 -157.5t167 -395.5q0 -158 -77 -285t-210.5 -197t-296.5 -70q-162 0 -293.5 70t-207.5 197t-76 285zM311 532q0 -157 92.5 -260.5t253.5 -103.5q164 0 258.5 104t94.5 260q0 159 -94.5 262t-258.5 103q-161 0 -253.5 -103 t-92.5 -262zM512 1206l147 361l156 -78l-160 -283h-143z" />
<glyph unicode="&#xf4;" horiz-adv-x="1320" d="M80 532q0 238 165 395.5t412 157.5q250 0 417 -157.5t167 -395.5q0 -158 -77 -285t-210.5 -197t-296.5 -70q-162 0 -293.5 70t-207.5 197t-76 285zM311 532q0 -157 92.5 -260.5t253.5 -103.5q164 0 258.5 104t94.5 260q0 159 -94.5 262t-258.5 103q-161 0 -253.5 -103 t-92.5 -262zM332 1206l239 273h148l239 -273h-172l-141 162l-141 -162h-172z" />
<glyph unicode="&#xf5;" horiz-adv-x="1320" d="M80 532q0 238 165 395.5t412 157.5q250 0 417 -157.5t167 -395.5q0 -158 -77 -285t-210.5 -197t-296.5 -70q-162 0 -293.5 70t-207.5 197t-76 285zM311 532q0 -157 92.5 -260.5t253.5 -103.5q164 0 258.5 104t94.5 260q0 159 -94.5 262t-258.5 103q-161 0 -253.5 -103 t-92.5 -262zM319 1286q37 67 96.5 112.5t125.5 45.5q54 0 128.5 -44t121.5 -44q58 0 118 71l64 -47q-38 -69 -97.5 -114t-127.5 -45q-37 0 -71 13.5t-56 29.5t-54 29.5t-65 13.5q-24 0 -49.5 -14t-38 -26t-31.5 -32z" />
<glyph unicode="&#xf6;" horiz-adv-x="1320" d="M80 532q0 238 165 395.5t412 157.5q250 0 417 -157.5t167 -395.5q0 -158 -77 -285t-210.5 -197t-296.5 -70q-162 0 -293.5 70t-207.5 197t-76 285zM311 532q0 -157 92.5 -260.5t253.5 -103.5q164 0 258.5 104t94.5 260q0 159 -94.5 262t-258.5 103q-161 0 -253.5 -103 t-92.5 -262zM317 1319q0 45 31.5 75.5t73.5 30.5q47 0 76.5 -29.5t29.5 -76.5t-30 -77t-76 -30q-45 0 -75 30t-30 77zM760 1319q0 45 31.5 75.5t72.5 30.5q46 0 77.5 -29.5t31.5 -76.5t-31.5 -77t-77.5 -30q-45 0 -74.5 30t-29.5 77z" />
<glyph unicode="&#xf7;" horiz-adv-x="1167" d="M129 592v147h909v-147h-909zM463 319q0 49 35.5 84t85.5 35q49 0 85 -35.5t36 -83.5q0 -51 -35.5 -85.5t-85.5 -34.5t-85.5 34t-35.5 86zM463 1016q0 49 35.5 84t85.5 35t85.5 -35t35.5 -84q0 -51 -35.5 -87t-85.5 -36t-85.5 35.5t-35.5 87.5z" />
<glyph unicode="&#xf8;" horiz-adv-x="1320" d="M80 532q0 238 165 395.5t412 157.5q130 0 250 -49l76 117h156l-117 -182q103 -75 161 -189t58 -250q0 -158 -77 -285t-210.5 -197t-296.5 -70q-133 0 -245 47l-76 -119h-154l117 182q-103 75 -161 190t-58 252zM311 532q0 -167 101 -268l389 606q-69 27 -144 27 q-161 0 -253.5 -103t-92.5 -262zM518 193q64 -25 139 -25q164 0 258.5 104t94.5 260q0 166 -101 267z" />
<glyph unicode="&#xf9;" horiz-adv-x="1228" d="M135 424v641h221v-649q0 -121 58 -184.5t174 -63.5q133 0 201.5 66.5t68.5 175.5v655h221v-1065h-176l-20 154q-102 -174 -338 -174q-202 0 -306 115t-104 329zM422 1489l156 78l147 -361h-143z" />
<glyph unicode="&#xfa;" horiz-adv-x="1228" d="M135 424v641h221v-649q0 -121 58 -184.5t174 -63.5q133 0 201.5 66.5t68.5 175.5v655h221v-1065h-176l-20 154q-102 -174 -338 -174q-202 0 -306 115t-104 329zM502 1206l147 361l156 -78l-160 -283h-143z" />
<glyph unicode="&#xfb;" horiz-adv-x="1228" d="M135 424v641h221v-649q0 -121 58 -184.5t174 -63.5q133 0 201.5 66.5t68.5 175.5v655h221v-1065h-176l-20 154q-102 -174 -338 -174q-202 0 -306 115t-104 329zM303 1206l240 273h147l240 -273h-172l-142 162l-141 -162h-172z" />
<glyph unicode="&#xfc;" horiz-adv-x="1228" d="M135 424v641h221v-649q0 -121 58 -184.5t174 -63.5q133 0 201.5 66.5t68.5 175.5v655h221v-1065h-176l-20 154q-102 -174 -338 -174q-202 0 -306 115t-104 329zM289 1319q0 45 31 75.5t73 30.5q47 0 77 -29.5t30 -76.5t-30.5 -77t-76.5 -30q-45 0 -74.5 30t-29.5 77z M731 1319q0 44 32 75t73 31q46 0 77 -29.5t31 -76.5t-31 -77t-77 -30q-45 0 -75 30t-30 77z" />
<glyph unicode="&#xfd;" horiz-adv-x="1193" d="M57 1065h242l301 -805h4l301 805h234l-449 -1120q-62 -150 -132 -221.5t-191 -71.5q-114 0 -217 33l34 180q90 -23 160 -23q47 0 77 43.5t54 114.5zM500 1206l147 361l156 -78l-160 -283h-143z" />
<glyph unicode="&#xfe;" horiz-adv-x="1304" d="M150 -348v1782h221v-527q57 91 147 134.5t193 43.5q149 0 266.5 -73.5t180.5 -199.5t63 -282q0 -109 -35 -208t-99 -175.5t-162 -121.5t-216 -45q-237 0 -338 153v-481h-221zM346 530q0 -160 91 -261t237 -101q135 0 227 102t92 260q0 159 -92.5 263t-226.5 104 q-140 0 -234 -101.5t-94 -265.5z" />
<glyph unicode="&#xff;" horiz-adv-x="1193" d="M57 1065h242l301 -805h4l301 805h234l-449 -1120q-62 -150 -132 -221.5t-191 -71.5q-114 0 -217 33l34 180q90 -23 160 -23q47 0 77 43.5t54 114.5zM272 1319q0 45 31.5 75.5t73.5 30.5q47 0 76.5 -29.5t29.5 -76.5t-30 -77t-76 -30q-45 0 -75 30t-30 77zM715 1319 q0 45 31.5 75.5t72.5 30.5q46 0 77.5 -29.5t31.5 -76.5t-31.5 -77t-77.5 -30q-45 0 -74.5 30t-29.5 77z" />
<glyph unicode="&#x152;" horiz-adv-x="2480" d="M96 717q0 162 60 301t161.5 234t238.5 148.5t288 53.5t284 -52.5t234 -148.5v181h999v-211h-774v-422h662v-203h-662v-389h795v-209h-1020v180q-100 -97 -233 -148.5t-285 -51.5q-151 0 -288 53.5t-238.5 148.5t-161.5 234t-60 301zM334 717q0 -253 141 -396t369 -143 q229 0 370.5 143t141.5 396q0 252 -142 395t-370 143q-227 0 -368.5 -143t-141.5 -395z" />
<glyph unicode="&#x153;" horiz-adv-x="2236" d="M80 532q0 238 165 395.5t412 157.5q170 0 307 -77t210 -209q68 132 194.5 209t290.5 77q122 0 220 -44t159.5 -119.5t94 -172.5t32.5 -206q0 -27 -2 -50.5t-4 -33.5l-2 -10h-807q9 -128 106.5 -204.5t241.5 -76.5q152 0 319 72l78 -166q-76 -41 -186 -67.5t-217 -26.5 q-176 0 -312 76t-206 208q-72 -131 -210 -207.5t-307 -76.5q-162 0 -293.5 70t-207.5 197t-76 285zM311 532q0 -157 92.5 -260.5t253.5 -103.5q164 0 258.5 104t94.5 260q0 159 -94.5 262t-258.5 103q-161 0 -253.5 -103t-92.5 -262zM1348 610h602q-2 56 -19.5 105.5 t-49.5 91t-86 66t-124 24.5q-128 0 -218 -80t-105 -207z" />
<glyph unicode="&#x178;" horiz-adv-x="1259" d="M10 1434h248l371 -621h2l370 621h248l-506 -852v-582h-225v582zM305 1649q0 45 31.5 76.5t73.5 31.5q47 0 76.5 -30.5t29.5 -77.5q0 -46 -30 -75.5t-76 -29.5q-45 0 -75 30t-30 75zM748 1649q0 45 31.5 76.5t72.5 31.5q46 0 77.5 -30.5t31.5 -77.5q0 -45 -31.5 -75 t-77.5 -30q-44 0 -74 30t-30 75z" />
<glyph unicode="&#x2c6;" horiz-adv-x="1046" d="M195 1253l249 271h152l258 -271h-170l-160 140l-166 -140h-163z" />
<glyph unicode="&#x2dc;" horiz-adv-x="987" d="M168 1280q41 70 101.5 115.5t129.5 42.5q50 -2 124.5 -42t121.5 -40q62 0 115 67l63 -49q-40 -71 -101.5 -116t-131.5 -41q-53 2 -123 40.5t-119 38.5q-25 0 -49.5 -13t-35.5 -23t-30 -31z" />
<glyph unicode="&#x2000;" horiz-adv-x="952" />
<glyph unicode="&#x2001;" horiz-adv-x="1905" />
<glyph unicode="&#x2002;" horiz-adv-x="952" />
<glyph unicode="&#x2003;" horiz-adv-x="1905" />
<glyph unicode="&#x2004;" horiz-adv-x="635" />
<glyph unicode="&#x2005;" horiz-adv-x="476" />
<glyph unicode="&#x2006;" horiz-adv-x="317" />
<glyph unicode="&#x2007;" horiz-adv-x="317" />
<glyph unicode="&#x2008;" horiz-adv-x="238" />
<glyph unicode="&#x2009;" horiz-adv-x="381" />
<glyph unicode="&#x200a;" horiz-adv-x="105" />
<glyph unicode="&#x2010;" horiz-adv-x="1028" d="M141 612v148h746v-148h-746z" />
<glyph unicode="&#x2011;" horiz-adv-x="1028" d="M141 612v148h746v-148h-746z" />
<glyph unicode="&#x2012;" horiz-adv-x="1028" d="M141 612v148h746v-148h-746z" />
<glyph unicode="&#x2013;" horiz-adv-x="1452" d="M141 612v148h1168v-148h-1168z" />
<glyph unicode="&#x2014;" horiz-adv-x="1759" d="M141 612v148h1477v-148h-1477z" />
<glyph unicode="&#x2018;" horiz-adv-x="567" d="M123 1130q0 110 70 192.5t176 135.5l55 -88q-10 -6 -30.5 -22.5t-52.5 -45.5t-53 -67t-18 -72q17 19 54 19q51 0 79.5 -35t28.5 -88q0 -57 -41 -95t-96 -38q-79 0 -125.5 61t-46.5 143z" />
<glyph unicode="&#x2019;" horiz-adv-x="567" d="M141 1325q0 57 41 95t97 38q79 0 125.5 -61.5t46.5 -143.5q0 -110 -70 -192t-176 -135l-55 88q9 6 30 22.5t52.5 45.5t52.5 67t18 72q-16 -19 -53 -19q-51 0 -80 35t-29 88z" />
<glyph unicode="&#x201a;" horiz-adv-x="569" d="M133 121q0 57 41 95t96 38q79 0 125.5 -61.5t46.5 -143.5q0 -109 -70 -190.5t-175 -134.5l-56 88q7 4 21 14t39.5 32t46 45.5t35 54t12.5 58.5q-16 -16 -53 -16q-51 0 -80 34.5t-29 86.5z" />
<glyph unicode="&#x201c;" horiz-adv-x="1013" d="M125 1133q0 109 70.5 190.5t177.5 134.5l55 -88q-9 -4 -31.5 -21.5t-53 -45.5t-51.5 -66t-18 -72q17 17 52 17q52 0 80 -34.5t28 -86.5q0 -57 -40 -95t-95 -38q-79 0 -126.5 61.5t-47.5 143.5zM569 1133q0 109 70.5 190.5t177.5 134.5l55 -88q-8 -4 -31 -21.5 t-53.5 -45.5t-51 -66t-17.5 -72q16 17 51 17q52 0 80.5 -34.5t28.5 -86.5q0 -57 -40.5 -95t-95.5 -38q-79 0 -126.5 61.5t-47.5 143.5z" />
<glyph unicode="&#x201d;" horiz-adv-x="1009" d="M139 1325q0 57 41 95t96 38q79 0 126 -61.5t47 -143.5q0 -75 -38 -141t-89.5 -108t-118.5 -76l-56 88q10 6 30.5 22t52.5 45t53 66.5t18 71.5q-18 -17 -53 -17q-51 0 -80 34.5t-29 86.5zM584 1325q0 57 41 95t96 38q79 0 125.5 -61.5t46.5 -143.5q0 -75 -38 -141 t-89.5 -108t-118.5 -76l-55 88q10 6 30.5 22t52 45t52.5 66.5t18 71.5q-18 -17 -53 -17q-51 0 -79.5 34.5t-28.5 86.5z" />
<glyph unicode="&#x201e;" horiz-adv-x="1013" d="M133 121q0 57 41 95t96 38q79 0 125.5 -61.5t46.5 -143.5q0 -109 -70 -190.5t-175 -134.5l-56 88q7 4 21 14t39.5 32t46 45.5t35 54t12.5 58.5q-18 -16 -53 -16q-51 0 -80 34.5t-29 86.5zM578 121q0 57 41 95t96 38q79 0 125.5 -61.5t46.5 -143.5q0 -75 -38 -141 t-89.5 -108t-118.5 -76l-55 88q10 6 30 21.5t52 44.5t53 66.5t18 71.5q-18 -16 -53 -16q-51 0 -79.5 34.5t-28.5 86.5z" />
<glyph unicode="&#x2022;" horiz-adv-x="792" d="M172 715q0 89 68 155t159 66t156.5 -66.5t65.5 -158.5q0 -91 -65.5 -156.5t-156.5 -65.5q-92 0 -159.5 66.5t-67.5 159.5z" />
<glyph unicode="&#x2026;" horiz-adv-x="1425" d="M133 123q0 55 38.5 94t94.5 39q57 0 96 -38.5t39 -94.5q0 -55 -39.5 -94t-95.5 -39t-94.5 39t-38.5 94zM563 123q0 55 38.5 94t94.5 39q57 0 96 -38.5t39 -94.5q0 -55 -39.5 -94t-95.5 -39t-94.5 39t-38.5 94zM1024 123q0 55 39 94t94 39q57 0 96 -38.5t39 -94.5 q0 -55 -39 -94t-96 -39q-55 0 -94 39t-39 94z" />
<glyph unicode="&#x202f;" horiz-adv-x="381" />
<glyph unicode="&#x2039;" horiz-adv-x="739" d="M88 508v45l434 481l111 -116l-297 -388l295 -391l-109 -110z" />
<glyph unicode="&#x203a;" horiz-adv-x="739" d="M106 918l113 116l432 -481v-45l-432 -479l-110 110l294 391z" />
<glyph unicode="&#x205f;" horiz-adv-x="476" />
<glyph unicode="&#x20ac;" horiz-adv-x="1536" d="M100 791l41 112h154q55 259 242.5 405t459.5 146q117 -3 227.5 -32.5t188.5 -75.5l-63 -177q-18 9 -49.5 23t-121.5 37.5t-171 23.5q-172 0 -290.5 -93.5t-166.5 -256.5h614l-41 -112h-596q-6 -37 -6 -74q0 -48 8 -84h543l-41 -113h-479q47 -160 166 -250t287 -90 q73 0 157 18t128.5 34t68.5 28v-207q-166 -73 -367 -73q-265 0 -451.5 142.5t-244.5 397.5h-186l41 113h127q-7 47 -7 84q0 30 7 74h-179z" />
<glyph unicode="&#x2122;" horiz-adv-x="1593" d="M135 1307v127h559v-127h-213v-514h-135v514h-211zM784 793v641h119l205 -369l203 369h116v-641h-127v374l-151 -290h-84l-156 288v-372h-125z" />
<glyph unicode="&#x25fc;" horiz-adv-x="1064" d="M0 0v1065h1065v-1065h-1065z" />
</font>
</defs>
</svg>
