<?xml version="1.0" standalone="no"?>
<!DOCTYPE svg PUBLIC "-//W3C//DTD SVG 1.1//EN" "http://www.w3.org/Graphics/SVG/1.1/DTD/svg11.dtd" >
<svg xmlns="http://www.w3.org/2000/svg">
<metadata></metadata>
<defs>
<font id="centrale_sansxlight" horiz-adv-x="1347" >
<font-face units-per-em="2048" ascent="1536" descent="-512" />
<missing-glyph horiz-adv-x="542" />
<glyph unicode="&#xfb01;" horiz-adv-x="1077" d="M68 989v62l139 14v100q0 162 89 256.5t261 94.5q163 0 305 -91l-41 -71q-122 80 -268 80q-67 0 -117 -25.5t-77 -68t-39.5 -89t-12.5 -96.5v-90h592v-1065h-100v989h-492v-989h-100v989h-139z" />
<glyph unicode="&#xfb02;" horiz-adv-x="1114" d="M68 989v60l137 16v76q0 174 92.5 274.5t247.5 100.5q156 0 252 -98t96 -275v-1008q0 -37 17 -51t51 -14q31 0 71 8v-80q-54 -14 -112 -14q-34 0 -59 11.5t-37.5 27t-20 37t-9 36t-1.5 29.5v1024q0 134 -67 209.5t-179 75.5t-177 -75t-65 -210v-84h268v-76h-268v-989h-100 v989h-137z" />
<glyph unicode="&#xfb03;" horiz-adv-x="1607" d="M68 989v60l137 16v137q0 159 64.5 236.5t222.5 77.5q60 0 126 -15l-14 -80q-54 13 -112 13q-187 0 -187 -220v-149h434v113q0 160 86 257t238 97q180 0 332 -94l-39 -72q-132 84 -289 84q-51 0 -91.5 -17.5t-65.5 -45.5t-41 -66.5t-22.5 -76t-6.5 -77.5v-102h592v-1065 h-101v989h-491v-989h-101v989h-434v-989h-100v989h-137z" />
<glyph unicode="&#xfb04;" horiz-adv-x="1650" d="M68 989v62l139 14v137q0 159 64.5 236.5t222.5 77.5q74 0 127 -15l-15 -80q-71 13 -112 13q-187 0 -187 -220v-149h434v88q0 174 93 276.5t249 102.5q155 0 251 -100t96 -277v-1020q0 -37 16.5 -51t50.5 -14q32 0 72 8v-80q-54 -14 -113 -14q-34 0 -59 11.5t-37.5 27 t-20 37t-9 36t-1.5 29.5v1040q0 134 -67 209.5t-179 75.5t-176.5 -75t-64.5 -210v-100h268v-76h-268v-989h-101v989h-434v-989h-100v989h-139z" />
<glyph horiz-adv-x="0" />
<glyph horiz-adv-x="0" />
<glyph horiz-adv-x="682" />
<glyph unicode="&#xd;" horiz-adv-x="587" />
<glyph unicode=" "  horiz-adv-x="542" />
<glyph unicode="&#x09;" horiz-adv-x="542" />
<glyph unicode="&#xa0;" horiz-adv-x="542" />
<glyph unicode="!" horiz-adv-x="548" d="M193 59q0 35 22 57.5t57 22.5q34 0 57 -22.5t23 -57.5q0 -32 -22.5 -53.5t-57.5 -21.5t-57 20.5t-22 54.5zM207 1434h129l-21 -1082h-86z" />
<glyph unicode="&#x22;" horiz-adv-x="989" d="M287 944l24 490h121l-90 -492q-9 0 -27.5 1t-27.5 1zM588 944l24 490h121l-90 -492q-9 0 -27.5 1t-27.5 1z" />
<glyph unicode="#" horiz-adv-x="1581" d="M113 346l18 88h291l98 543h-293l17 88h291l69 369h88l-67 -369h465l69 369h90l-69 -369h288l-18 -88h-285l-96 -543h293l-16 -88h-293l-68 -346h-86l66 346h-467l-68 -346h-90l68 346h-295zM512 434h467l96 543h-467z" />
<glyph unicode="$" horiz-adv-x="1185" d="M139 90l29 82q240 -98 432 -98q183 0 278 72.5t95 211.5q0 33 -7.5 62.5t-18 52.5t-31.5 44.5t-39 37t-49.5 31.5t-53 26t-60.5 23t-62 20t-66 19q-177 56 -251 96q-161 88 -185 245q-5 32 -5 66q0 174 112 268.5t310 100.5v152h74v-152q104 -5 204.5 -31.5t168.5 -56.5 l-27 -82q-23 9 -62 22.5t-140.5 35.5t-180.5 22q-161 0 -260.5 -69.5t-99.5 -203.5q0 -59 25 -107t49 -75.5t92 -58.5t95.5 -40.5t117.5 -36.5q5 -2 8 -3q59 -18 92.5 -29.5t87 -33t85 -41t69.5 -51t58.5 -65.5t35 -81.5t14.5 -102.5q0 -180 -115.5 -275t-316.5 -103v-152 h-74v152q-129 5 -242.5 38.5t-185.5 67.5z" />
<glyph unicode="%" horiz-adv-x="1617" d="M98 1100q0 151 89.5 250.5t230.5 99.5t229 -99t88 -249t-88 -248t-231 -98q-141 0 -229.5 98t-88.5 246zM197 1102q0 -112 62 -186t161 -74q98 0 157.5 74t59.5 186q0 109 -62.5 185.5t-158.5 76.5q-99 0 -159 -74.5t-60 -187.5zM336 0l825 1434h115l-825 -1434h-115z M885 328q0 151 89 250.5t230 99.5t229.5 -99t88.5 -249t-88.5 -248t-231.5 -98q-141 0 -229 98t-88 246zM983 330q0 -112 62 -186t161 -74q98 0 157.5 74t59.5 186q0 109 -62.5 185.5t-158.5 76.5q-99 0 -159 -74.5t-60 -187.5z" />
<glyph unicode="&#x26;" horiz-adv-x="1318" d="M106 387q0 76 24 139t72 115t100 90.5t128 83.5q-12 15 -49 58.5t-52 64t-38 57.5t-32 72.5t-9 75.5q0 140 90 223.5t221 83.5t222 -80t91 -221q0 -193 -307 -356l418 -467q7 12 18 34t29.5 88t20.5 130h84q-1 -82 -23 -163t-44 -121l-21 -40l217 -254h-113l-164 190 q-86 -99 -196 -152.5t-234 -53.5q-88 0 -168 25.5t-144 74t-102.5 127t-38.5 176.5zM201 389q0 -102 51 -175t130.5 -106.5t176.5 -33.5q213 0 367 182l-441 496q-68 -37 -115.5 -72t-88 -79t-60.5 -96.5t-20 -115.5zM342 1141q0 -33 11 -66.5t21.5 -54.5t41.5 -58.5 t42.5 -49.5t53.5 -56q57 29 97.5 55t83.5 62.5t66 80.5t23 93q0 106 -61.5 162.5t-159.5 56.5q-100 0 -159.5 -61t-59.5 -164z" />
<glyph unicode="'" horiz-adv-x="462" d="M170 944l33 490h119l-97 -492q-9 0 -27.5 1t-27.5 1z" />
<glyph unicode="(" horiz-adv-x="698" d="M117 602q0 118 28 231.5t72.5 203t105 171t120 139t122.5 103.5l49 -59q-43 -37 -74 -66.5t-74.5 -77.5t-74.5 -92.5t-65 -107.5t-55 -127.5t-34.5 -147.5t-13.5 -172q-1 -123 25.5 -234.5t63 -189t96 -154.5t103 -120t105.5 -97l-51 -67q-63 46 -122.5 104.5t-120 141.5 t-105 174.5t-72.5 207.5t-28 236z" />
<glyph unicode=")" horiz-adv-x="700" d="M82 -195q62 53 106.5 97t103 120.5t95.5 154t63.5 189t26.5 234.5q0 89 -13.5 172t-34.5 147.5t-55 127.5t-65 107.5t-74.5 92.5t-74.5 77.5t-74 66.5l47 59q63 -46 122.5 -103.5t120.5 -139t106 -171t73.5 -203t28.5 -231.5q0 -120 -28.5 -236t-73.5 -207.5 t-105.5 -174.5t-120.5 -141.5t-123 -104.5z" />
<glyph unicode="*" horiz-adv-x="892" d="M156 1104l250 125l-250 123l39 65l231 -153l-16 276h75l-18 -276l231 153l39 -65l-250 -123l250 -125l-39 -66l-231 154l18 -277h-75l16 277l-231 -154z" />
<glyph unicode="+" horiz-adv-x="1073" d="M145 612v80h351v350h79v-350h353v-80h-353v-352h-79v352h-351z" />
<glyph unicode="," horiz-adv-x="518" d="M152 -199q53 32 98 94.5t26 122.5q-14 -24 -47 -24q-37 0 -54 23t-17 53q0 36 28.5 61t61.5 25q55 0 88 -47.5t33 -104.5q0 -81 -55 -144t-136 -102z" />
<glyph unicode="-" horiz-adv-x="1048" d="M162 614v78h725v-78h-725z" />
<glyph unicode="." horiz-adv-x="495" d="M160 80q0 37 25.5 62.5t62.5 25.5t62.5 -25.5t25.5 -62.5q0 -35 -25.5 -60.5t-62.5 -25.5t-62.5 25.5t-25.5 60.5z" />
<glyph unicode="/" horiz-adv-x="978" d="M82 -68l721 1567h92l-721 -1567h-92z" />
<glyph unicode="0" horiz-adv-x="1433" d="M135 717q0 157 38.5 290.5t111 232t183.5 154.5t249 56q183 0 316 -96t199 -259.5t66 -373.5q0 -212 -65.5 -376.5t-199 -262.5t-316.5 -98q-137 0 -248 55.5t-183.5 153.5t-111.5 232t-39 292zM244 719q0 -187 52 -330.5t160.5 -228t260.5 -84.5q153 0 261.5 85 t160 227.5t51.5 328.5q0 185 -51.5 327.5t-160 228t-261.5 85.5q-151 0 -259.5 -84.5t-161 -227t-52.5 -327.5z" />
<glyph unicode="1" horiz-adv-x="643" d="M80 1280l268 154h76v-1434h-100v1315l-209 -105z" />
<glyph unicode="2" horiz-adv-x="1153" d="M109 0v86l491 477q281 275 281 469q0 147 -102.5 235.5t-266.5 88.5q-145 0 -322 -90l-34 77q78 42 181.5 74.5t192.5 32.5q196 0 324.5 -113.5t128.5 -296.5q0 -65 -22.5 -133t-54.5 -121t-77.5 -108.5t-79.5 -91t-73 -72.5q-5 -4 -7 -6.5t-5.5 -5.5t-6.5 -6l-426 -408 h795v-88h-917z" />
<glyph unicode="3" horiz-adv-x="1144" d="M135 80l31 74q68 -32 166 -55t194 -23q106 0 194 36.5t144 112t56 178.5t-63.5 180.5t-157.5 114.5t-199 37h-117v78h143q62 0 119 16t105.5 47t78 84t29.5 121q0 89 -48 153.5t-122.5 94t-165.5 29.5q-149 0 -313 -53l-27 77q190 68 359 68q175 0 297.5 -97t122.5 -266 q0 -123 -84.5 -209t-200.5 -110q150 -28 248 -130t98 -241q0 -132 -67.5 -227.5t-177 -140.5t-247.5 -45q-113 0 -217 28.5t-178 67.5z" />
<glyph unicode="4" horiz-adv-x="1226" d="M86 375v76l778 983h80v-979h186v-80h-186v-375h-100v375h-758zM195 455h649v817z" />
<glyph unicode="5" horiz-adv-x="1177" d="M131 88l33 78q190 -88 371 -88q183 0 303 110t120 273q0 164 -112 265t-283 101q-169 0 -303 -102l-74 37l84 672h736v-88h-660l-67 -527q139 92 301 92q215 0 348 -124t133 -328q0 -140 -70 -249.5t-188.5 -167.5t-263.5 -58q-204 0 -408 104z" />
<glyph unicode="6" horiz-adv-x="1271" d="M135 662q0 70 6.5 139t24.5 148.5t45.5 149.5t73 135.5t104.5 112.5t143 75t185 28q197 0 383 -84l-43 -82q-173 74 -340 74q-79 0 -149 -22.5t-133 -75t-108.5 -131t-72.5 -198t-27 -269.5v-13q45 123 169.5 200t265.5 77q139 0 248.5 -52t175 -158.5t65.5 -252.5 q0 -97 -33.5 -183t-95 -152.5t-156 -105t-209.5 -38.5q-252 0 -387 179.5t-135 498.5zM260 461q0 -101 45 -188.5t136.5 -145t211.5 -57.5q183 0 287 111t104 276q0 179 -106 280t-285 101q-162 0 -277.5 -104.5t-115.5 -272.5z" />
<glyph unicode="7" horiz-adv-x="1075" d="M104 1346v88h910v-84l-611 -1350h-102l606 1346h-803z" />
<glyph unicode="8" horiz-adv-x="1257" d="M121 387q0 145 90 241t246 132q-126 34 -191 121.5t-65 205.5q0 112 58.5 195.5t154 125.5t213.5 42t213.5 -42t154 -125.5t58.5 -195.5t-64.5 -200.5t-179.5 -126.5q153 -38 240.5 -133t87.5 -240q0 -126 -71 -219t-185.5 -138.5t-253.5 -45.5q-137 0 -250 45 t-184.5 138.5t-71.5 219.5zM227 389q0 -139 110 -228t290 -89q182 0 292.5 89t110.5 228q0 145 -109 232.5t-294 87.5q-186 0 -293 -87t-107 -233zM305 1079q0 -119 86.5 -198.5t235.5 -79.5q148 0 234.5 80t86.5 198q0 134 -91 208.5t-230 74.5q-138 0 -230 -74.5 t-92 -208.5z" />
<glyph unicode="9" horiz-adv-x="1275" d="M123 971q0 130 56.5 237.5t170.5 174.5t266 67q252 0 387.5 -179.5t135.5 -498.5q0 -72 -6.5 -142.5t-24 -150.5t-45 -150t-72.5 -135t-103 -111t-141 -73t-182 -26q-207 3 -387 84l39 82q153 -65 348 -74q76 -3 144.5 18t131 72.5t108 130.5t72 201t26.5 274v12 q-45 -123 -169 -198.5t-266 -75.5q-214 0 -351.5 121.5t-137.5 339.5zM229 977q0 -179 106.5 -280t285.5 -101q162 0 277.5 104.5t115.5 272.5q0 101 -45 188.5t-136.5 145t-211.5 57.5q-183 0 -287.5 -111.5t-104.5 -275.5z" />
<glyph unicode=":" horiz-adv-x="497" d="M162 80q0 37 25.5 62.5t60.5 25.5q37 0 62.5 -25.5t25.5 -62.5q0 -35 -25.5 -60.5t-62.5 -25.5q-35 0 -60.5 25.5t-25.5 60.5zM162 862q0 37 25.5 62.5t60.5 25.5q37 0 62.5 -25.5t25.5 -62.5q0 -35 -25.5 -59.5t-62.5 -24.5q-35 0 -60.5 25t-25.5 59z" />
<glyph unicode=";" horiz-adv-x="575" d="M184 -201q32 20 63 51t52.5 79t7.5 89q-12 -24 -49 -24q-34 0 -51 23t-17 51q0 36 28.5 60t62.5 24q52 0 84 -46.5t32 -103.5q0 -79 -54.5 -142.5t-133.5 -99.5zM195 862q0 37 25.5 62.5t60.5 25.5q37 0 62.5 -25.5t25.5 -62.5q0 -35 -25.5 -59.5t-62.5 -24.5 q-35 0 -60.5 25t-25.5 59z" />
<glyph unicode="&#x3c;" horiz-adv-x="907" d="M135 647v74l584 299v-94l-492 -242l494 -240v-98z" />
<glyph unicode="=" horiz-adv-x="1034" d="M170 467v80h694v-80h-694zM170 782v80h694v-80h-694z" />
<glyph unicode="&#x3e;" horiz-adv-x="907" d="M184 346v98l496 240l-494 242v94l586 -299v-74z" />
<glyph unicode="?" horiz-adv-x="968" d="M111 1346q62 47 156.5 75.5t181.5 28.5q115 0 208 -38t151 -118t58 -190q0 -61 -22 -113t-57 -90t-77 -72.5t-84.5 -67.5t-77.5 -67.5t-57 -81t-22 -100.5v-160h-86v164q0 63 21 115.5t55 90t74.5 71.5t81.5 66t75 66t55 79.5t21 99.5q0 81 -46 141t-116.5 87.5 t-154.5 27.5q-72 0 -153 -24t-138 -62zM346 59q0 35 23.5 57.5t58.5 22.5q34 0 57 -22.5t23 -57.5q0 -32 -22.5 -53.5t-57.5 -21.5q-36 0 -59 21t-23 54z" />
<glyph unicode="@" horiz-adv-x="1902" d="M119 594q0 175 65.5 331t178 267.5t271 176.5t337.5 65q103 0 203 -22t193 -64t171.5 -109t137 -152.5t91.5 -199.5t33 -244q0 -99 -19.5 -179.5t-59.5 -143.5t-108 -97.5t-159 -34.5q-113 0 -173.5 50t-66.5 129q-39 -83 -117.5 -131t-178.5 -48q-124 0 -213 71t-89 192 q0 71 33 121.5t87 75t105.5 34.5t106.5 10q61 0 124 -5.5t96 -10.5l32 -6v82q0 120 -59 167.5t-180 47.5q-114 0 -246 -39l-19 61q149 45 283 45q154 0 228.5 -69.5t74.5 -212.5v-349q0 -147 166 -147q64 0 113 24t79 61.5t49 91t26 105.5t7 111q0 144 -44.5 263.5t-118 200 t-171 136.5t-202 81.5t-213.5 25.5q-218 0 -396.5 -101t-279 -276t-100.5 -387q0 -206 94.5 -376.5t266 -271t384.5 -100.5q149 0 285 54l26 -70q-155 -61 -315 -61q-173 0 -325.5 64.5t-260.5 175t-170.5 263.5t-62.5 324zM692 455q0 -91 68 -144t162 -53q109 0 193.5 71.5 t84.5 170.5v108q-101 21 -227 21q-281 0 -281 -174z" />
<glyph unicode="A" d="M68 0l540 1450h131l541 -1450h-106l-154 408h-692l-154 -408h-106zM358 494h631l-313 849h-4z" />
<glyph unicode="B" horiz-adv-x="1351" d="M215 0v1434h549q167 0 280 -105.5t113 -275.5q0 -117 -54.5 -202.5t-141.5 -117.5q120 -37 196 -124.5t76 -223.5q0 -171 -112.5 -278t-282.5 -107h-623zM317 88h514q125 0 212 84.5t87 214.5q0 121 -84.5 209t-211.5 88h-517v-596zM317 768h476q120 0 191 71.5t71 196.5 q0 140 -81 225t-212 85h-445v-578z" />
<glyph unicode="C" horiz-adv-x="1370" d="M117 717q0 121 36 233t104 202.5t159.5 157.5t207 103.5t242.5 36.5q207 0 406 -104l-39 -78q-19 10 -52 25t-131.5 40t-191.5 25q-134 0 -252 -49.5t-202 -135t-132.5 -204t-48.5 -252.5t48.5 -252.5t132.5 -204t202 -135t252 -49.5q91 0 185 23t142 46l48 23l39 -82 q-206 -102 -416 -102q-154 0 -291.5 57.5t-235.5 155t-155 233.5t-57 287z" />
<glyph unicode="D" horiz-adv-x="1452" d="M215 0v1434h481q58 0 143.5 -20t174.5 -71q315 -186 315 -626q0 -206 -76.5 -369.5t-238.5 -257.5q-154 -90 -318 -90h-481zM317 88h365q148 0 287 82q258 149 258 547q0 188 -63 329t-195 218q-139 82 -287 82h-365v-1258z" />
<glyph unicode="E" horiz-adv-x="1323" d="M215 0v1434h967v-88h-865v-605h744v-88h-744v-565h900v-88h-1002z" />
<glyph unicode="F" horiz-adv-x="1247" d="M215 0v1434h967v-88h-865v-615h744v-88h-744v-643h-102z" />
<glyph unicode="G" horiz-adv-x="1531" d="M119 717q0 203 97 371t269 265t381 97q107 0 227 -30t218 -79l-39 -73q-202 90 -395 90q-140 0 -263 -52t-207.5 -139.5t-133 -204.5t-48.5 -245q0 -176 79.5 -322t225.5 -232.5t328 -86.5q255 0 447 168v364h-406v90h502v-485q-234 -229 -543 -229q-156 0 -293.5 56.5 t-235 154t-154 233.5t-56.5 289z" />
<glyph unicode="H" horiz-adv-x="1515" d="M215 0v1434h102v-666h883v666h103v-1434h-103v682h-883v-682h-102z" />
<glyph unicode="I" horiz-adv-x="530" d="M215 0v1434h102v-1434h-102z" />
<glyph unicode="J" horiz-adv-x="1077" d="M18 231l70 52q41 -90 127 -148.5t201 -58.5q70 0 131 23.5t109 68t76 117t28 164.5v985h102v-873q0 -51 -4 -145q-9 -205 -130 -318.5t-306 -113.5q-79 0 -149.5 23.5t-120 61.5t-83.5 79t-51 83z" />
<glyph unicode="K" horiz-adv-x="1273" d="M215 0v1434h102l-4 -891h2l748 891h121l-533 -639l606 -795h-124l-553 725l-263 -305v-420h-102z" />
<glyph unicode="L" horiz-adv-x="1177" d="M215 0v1434h102v-1346h822v-88h-924z" />
<glyph unicode="M" horiz-adv-x="1847" d="M215 0v1434h143l562 -1225h4l563 1225h145v-1434h-102v1286h-4l-557 -1202h-92l-558 1206h-2v-1290h-102z" />
<glyph unicode="N" horiz-adv-x="1490" d="M215 0v1434h104l476 -703l383 -575h4l-6 501v777h102v-1434h-109l-479 717l-375 561h-4l6 -502v-776h-102z" />
<glyph unicode="O" horiz-adv-x="1691" d="M117 717q0 164 58 303t156.5 232.5t231 145.5t281.5 52t281.5 -52t232 -145.5t157.5 -232.5t58 -303q0 -217 -99 -386t-264 -258t-366 -89q-148 0 -281 52.5t-231.5 146t-156.5 232.5t-58 302zM219 719q0 -143 49.5 -264.5t134.5 -204t199.5 -128.5t243.5 -46t243.5 45.5 t198.5 127.5t133 203.5t49 264.5q0 145 -49 266.5t-133.5 203t-199 126.5t-244.5 45q-129 0 -243 -45.5t-198.5 -127t-134 -202.5t-49.5 -264z" />
<glyph unicode="P" horiz-adv-x="1286" d="M215 0v1434h588q113 0 206.5 -57t146 -153.5t52.5 -209.5q0 -174 -114.5 -298t-282.5 -124h-494v-592h-102zM317 680h486q129 0 216 98.5t87 233.5q0 144 -93 239t-233 95h-463v-666z" />
<glyph unicode="Q" horiz-adv-x="1693" d="M119 717q0 164 58 303t156.5 232.5t231 145.5t281.5 52t281.5 -52t232 -145.5t157.5 -232.5t58 -303q0 -267 -142.5 -454.5t-373.5 -250.5q79 -44 188.5 -87.5t173.5 -64t88 -26.5l-34 -86q-76 16 -241 85t-308 155q-54 -4 -80 -4q-148 0 -281 52.5t-231.5 146 t-156.5 232.5t-58 302zM221 719q0 -143 49.5 -264.5t134.5 -204t199.5 -128.5t243.5 -46t243.5 45.5t199 127.5t133.5 203.5t49 264.5q0 145 -49 266.5t-134 203t-199.5 126.5t-244.5 45q-129 0 -243 -45.5t-198.5 -127t-134 -202.5t-49.5 -264z" />
<glyph unicode="R" horiz-adv-x="1359" d="M215 0v1434h604q177 0 291.5 -113t114.5 -285q0 -148 -87.5 -254.5t-228.5 -134.5l367 -647h-117l-356 635h-486v-635h-102zM317 723h502q133 0 218 90t85 223q0 139 -92 224.5t-233 85.5h-480v-623z" />
<glyph unicode="S" horiz-adv-x="1208" d="M121 90l26 82q250 -98 463 -98q192 0 291.5 73t99.5 213q0 33 -8 62.5t-19 52.5t-33 44.5t-40.5 37t-52 31.5t-56 25.5t-63.5 23t-64.5 20t-68.5 19.5q-187 54 -265 95q-165 85 -192 240q-6 33 -6 70q0 181 125.5 275t347.5 94q121 0 239 -27t195 -61l-24 -82 q-24 9 -65 22.5t-147.5 35.5t-189.5 22q-169 0 -272.5 -69.5t-103.5 -203.5q0 -33 7.5 -63t18.5 -53t32.5 -44.5t40 -37t50.5 -32t55 -26.5t62.5 -23t63.5 -20t68 -20q5 -1 7 -2q47 -13 75 -21.5t72.5 -23.5t72 -28t64.5 -32.5t60 -39.5t48 -47.5t39 -58t23 -69t9 -81.5 q0 -190 -132 -285.5t-360 -95.5q-144 0 -277 34.5t-216 71.5z" />
<glyph unicode="T" horiz-adv-x="1202" d="M29 1346v88h1145v-88h-523v-1346h-102v1346h-520z" />
<glyph unicode="U" horiz-adv-x="1456" d="M201 451v983h102v-985q0 -163 119.5 -268t306.5 -105t306.5 105t119.5 268v985h102v-983q-2 -146 -73.5 -253.5t-189 -160.5t-265.5 -53t-265.5 53t-189 160.5t-73.5 253.5z" />
<glyph unicode="V" horiz-adv-x="1310" d="M63 1434h107l481 -1309h6l482 1309h106l-538 -1434h-105z" />
<glyph unicode="W" horiz-adv-x="1972" d="M82 1434h111l368 -1272h4l369 1272h104l369 -1272h4l367 1272h112l-432 -1434h-102l-369 1270h-2l-369 -1270h-102z" />
<glyph unicode="X" horiz-adv-x="1300" d="M47 0l545 711l-545 723h121l481 -641h4l480 641h120l-542 -723l542 -711h-120l-480 629h-4l-479 -629h-123z" />
<glyph unicode="Y" horiz-adv-x="1224" d="M53 1434h113l444 -750h2l445 750h114l-507 -846v-588h-103v588z" />
<glyph unicode="Z" horiz-adv-x="1232" d="M76 0v76l946 1270l-2 4l-356 -4h-562v88h1047v-88l-938 -1258l2 -4l356 4h580v-88h-1073z" />
<glyph unicode="[" horiz-adv-x="595" d="M197 -377v1827h297v-84h-213v-1659h213v-84h-297z" />
<glyph unicode="\" horiz-adv-x="978" d="M82 1499h92l723 -1567h-94z" />
<glyph unicode="]" horiz-adv-x="598" d="M102 -295h213v1661h-213v84h299v-1827h-299v82z" />
<glyph unicode="_" horiz-adv-x="1128" d="M162 -184h805v-78h-805v78z" />
<glyph unicode="`" horiz-adv-x="559" d="M182 1477l90 41l121 -301h-69z" />
<glyph unicode="a" horiz-adv-x="1148" d="M82 322q0 84 37 146.5t101.5 98.5t143.5 53t171 17q44 0 91 -3t85.5 -7.5t68.5 -8.5t52.5 -8t23.5 -4v127q0 145 -79 202.5t-230 57.5q-190 0 -336 -47l-23 78q195 57 375 57q201 0 296 -79.5t95 -260.5v-606q0 -49 60 -49q41 0 76 4v-82q-49 -14 -109 -14q-49 0 -87 29 t-38 90v90q-44 -101 -149.5 -160t-239.5 -59q-77 0 -144.5 19.5t-122.5 58.5t-86.5 105.5t-31.5 154.5zM178 322q0 -86 45 -144.5t110.5 -83t145.5 -24.5q147 0 262 96.5t115 224.5v133q-165 33 -313 33q-45 0 -86 -4.5t-83.5 -14t-76.5 -27.5t-61.5 -43.5t-42.5 -62.5 t-15 -83z" />
<glyph unicode="b" horiz-adv-x="1316" d="M178 0v1499h101v-665q58 115 170.5 181t248.5 66q114 0 211.5 -44.5t162.5 -120t101.5 -176t36.5 -210.5q0 -112 -37 -212t-103 -174t-162.5 -117t-209.5 -43q-135 0 -251.5 69.5t-174.5 196.5l-16 -250h-78zM268 530q0 -126 54.5 -231.5t151 -167t214.5 -61.5 q181 0 300.5 131.5t119.5 328.5q0 130 -54 236t-150.5 167.5t-215.5 61.5q-177 0 -298.5 -135t-121.5 -330z" />
<glyph unicode="c" horiz-adv-x="1062" d="M104 532q0 151 71.5 276.5t200 199t288.5 73.5q166 0 307 -67l-33 -76l-14 6q-15 6 -39.5 14t-56 16.5t-73.5 14.5t-83 6q-105 0 -193 -38.5t-146.5 -102.5t-91 -147.5t-32.5 -174.5q0 -122 55 -226.5t162.5 -170t247.5 -65.5q40 0 81.5 5.5t73 14t56.5 16.5t40 14l15 5 l31 -74q-141 -67 -307 -67q-160 0 -288.5 73t-200 198.5t-71.5 276.5z" />
<glyph unicode="d" horiz-adv-x="1316" d="M106 530q0 110 36.5 210.5t101.5 176t162.5 120t211.5 44.5q136 0 249 -66t171 -181v665h101v-1499h-78l-17 250q-58 -127 -174.5 -196.5t-251.5 -69.5q-113 0 -209.5 43t-162.5 117t-103 174t-37 212zM209 530q0 -197 119 -328.5t301 -131.5q118 0 214.5 62t151 167 t54.5 231q0 195 -121.5 330t-298.5 135q-182 0 -301 -133.5t-119 -331.5z" />
<glyph unicode="e" horiz-adv-x="1200" d="M104 532q0 147 69 273t193 201t275 75q115 0 206 -42t148 -114.5t87 -167t30 -202.5l-4 -61h-897q9 -179 136.5 -301.5t318.5 -122.5q158 0 350 80l33 -74q-204 -92 -383 -92q-166 0 -295 72.5t-198 197t-69 278.5zM211 571h801q0 85 -22.5 160t-66.5 134.5t-116.5 94.5 t-165.5 35q-176 0 -298.5 -122t-131.5 -302z" />
<glyph unicode="f" horiz-adv-x="661" d="M68 989v62l139 14v139q0 155 64 233.5t216 78.5q69 0 148 -17l-8 -78q-57 13 -127 13q-104 0 -148.5 -59t-44.5 -171v-139h305v-76h-305v-989h-100v989h-139z" />
<glyph unicode="g" horiz-adv-x="1085" d="M106 -53q0 133 138 221q-94 47 -94 151q0 53 33.5 98.5t74.5 74.5q-52 41 -79 107.5t-27 139.5q0 161 107 251.5t288 90.5q70 0 129 -16h323v-64l-180 -22q58 -35 90.5 -98.5t32.5 -141.5q0 -154 -101 -245t-292 -91q-133 0 -221 46q-12 -5 -29 -17t-37 -42t-20 -64 q0 -24 11 -43.5t29.5 -33t43.5 -23.5t53.5 -15.5t59.5 -9.5t61 -4.5t57.5 -1.5t50.5 0h7.5h6.5h7q85 0 148.5 -11.5t113.5 -39t76 -77t26 -120.5q0 -70 -27 -123.5t-69.5 -85t-102 -52t-116 -27.5t-119.5 -7q-453 0 -453 295zM203 -53q0 -213 358 -213q336 0 336 213 q0 93 -69.5 130.5t-213.5 37.5q-199 0 -284 20q-127 -73 -127 -188zM248 739q0 -118 78 -187t223 -69q144 0 220.5 68.5t76.5 187.5q0 124 -78.5 193t-208.5 69q-144 0 -227.5 -68.5t-83.5 -193.5z" />
<glyph unicode="h" horiz-adv-x="1236" d="M178 0v1499h101v-670q6 30 31.5 69.5t70.5 82t121 71.5t166 29q195 0 299 -120t104 -338v-623h-100v625q0 176 -81.5 273t-236.5 97q-75 0 -138.5 -25t-106 -66t-72.5 -94t-43.5 -108.5t-13.5 -109.5v-592h-101z" />
<glyph unicode="i" horiz-adv-x="512" d="M113 995v70h204v-1065h-98v969zM174 1346q0 36 24 60t62 24q37 0 61.5 -24.5t24.5 -59.5q0 -37 -24 -63t-62 -26t-62 26t-24 63z" />
<glyph unicode="j" horiz-adv-x="509" d="M-63 -330l18 76q48 -16 106 -16q152 0 152 176v1063l-107 26v70h207v-1161q0 -47 -11.5 -89.5t-37 -82t-73 -63t-111.5 -23.5q-83 0 -143 24zM158 1343q0 36 24.5 61.5t59.5 25.5t62.5 -25t27.5 -59q0 -36 -27 -62.5t-63 -26.5q-35 0 -59.5 25.5t-24.5 60.5z" />
<glyph unicode="k" horiz-adv-x="985" d="M178 0v1499h101l-3 -1059l531 625h125l-426 -492l430 -573h-117l-375 504l-165 -191v-313h-101z" />
<glyph unicode="l" horiz-adv-x="509" d="M186 125v1374h101v-1364q0 -37 16.5 -51t50.5 -14q32 0 72 8v-80q-54 -14 -113 -14q-34 0 -59 11.5t-37.5 27t-20 37t-9 36t-1.5 29.5z" />
<glyph unicode="m" horiz-adv-x="1835" d="M178 0v1065h76l18 -195q29 74 87.5 124t119.5 68.5t125 18.5q130 0 216.5 -64.5t123.5 -164.5q35 92 135.5 160.5t214.5 68.5q189 0 282 -103t93 -288v-690h-100v705q0 145 -75.5 217.5t-207.5 72.5q-136 0 -225.5 -94t-89.5 -239v-662h-101v707q0 142 -79 215t-203 73 q-131 0 -220 -99t-89 -241v-655h-101z" />
<glyph unicode="n" horiz-adv-x="1236" d="M178 0v1065h76l18 -240q5 23 21.5 53.5t50 66.5t77 66t109 50t138.5 20q195 0 299 -120t104 -338v-623h-100v627q0 174 -81.5 271t-236.5 97q-93 0 -167.5 -38t-118 -98.5t-66 -129.5t-22.5 -139v-590h-101z" />
<glyph unicode="o" horiz-adv-x="1320" d="M102 532q0 159 75 285.5t202 195t280 68.5q152 0 279 -67.5t203 -193.5t76 -285t-75.5 -286t-202.5 -196t-280 -69q-114 0 -216.5 40t-177.5 111t-119 174t-44 223zM205 532q0 -202 129.5 -332t322.5 -130q194 0 325.5 130t131.5 332q0 203 -131 333t-326 130 q-193 0 -322.5 -130t-129.5 -333z" />
<glyph unicode="p" horiz-adv-x="1316" d="M178 -348v1413h78l16 -248q39 89 112 151t151.5 87.5t160.5 25.5q149 0 267.5 -73t182.5 -198t64 -278q0 -149 -62 -273t-181 -199.5t-271 -75.5q-88 0 -170 28.5t-149.5 87.5t-97.5 140v-588h-101zM268 532q0 -197 121 -329.5t297 -132.5q180 0 301 133.5t121 328.5 q0 197 -121 330t-301 133q-176 0 -297 -134.5t-121 -328.5z" />
<glyph unicode="q" horiz-adv-x="1316" d="M106 532q0 153 64.5 278t183 198t267.5 73q81 0 159.5 -26t151.5 -88.5t112 -151.5l17 250h78v-1413h-101v588q-30 -81 -97.5 -140t-149.5 -87.5t-170 -28.5q-152 0 -271 75.5t-181.5 199.5t-62.5 273zM209 532q0 -195 121 -328.5t301 -133.5q176 0 297 132.5t121 329.5 q0 194 -121 328.5t-297 134.5q-180 0 -301 -133t-121 -330z" />
<glyph unicode="r" horiz-adv-x="669" d="M178 0v1065h76l18 -209q42 103 133 160t207 57v-96q-142 0 -237.5 -83.5t-95.5 -244.5v-649h-101z" />
<glyph unicode="s" horiz-adv-x="960" d="M109 68l22 79q31 -14 72.5 -29t122.5 -32.5t153 -17.5q139 0 214 55t75 147q0 58 -36 100t-93 66.5t-126 45t-138.5 44t-126.5 55.5t-93 87t-36 131q0 135 104.5 208.5t257.5 73.5q94 0 186.5 -20.5t151.5 -46.5l-24 -82q-17 7 -47 18t-111.5 29t-149.5 18 q-124 0 -198 -52.5t-74 -145.5q0 -59 36 -100.5t93.5 -65t127 -43.5t139.5 -43t127.5 -54.5t93.5 -87.5t36 -133q0 -137 -103.5 -212.5t-277.5 -75.5q-110 0 -212 27t-166 57z" />
<glyph unicode="t" horiz-adv-x="686" d="M51 989v62l162 14l18 307h82v-307h324v-76h-324v-672q0 -124 43.5 -186.5t145.5 -62.5q15 0 28.5 1t28.5 4t23.5 5t26.5 7t26 7l6 -78q-88 -30 -160 -30q-148 0 -208 86t-60 256v663h-162z" />
<glyph unicode="u" horiz-adv-x="1241" d="M166 426v639h100v-627q0 -179 81 -273.5t267 -94.5q141 0 244 104.5t103 255.5v635h100v-1065h-76l-16 207q-54 -111 -152 -167t-219 -56q-218 0 -325 113.5t-107 328.5z" />
<glyph unicode="v" horiz-adv-x="1075" d="M86 1065h109l340 -940h4l342 940h108l-399 -1065h-109z" />
<glyph unicode="w" horiz-adv-x="1669" d="M90 1065h105l301 -932h6l278 932h105l280 -932h6l302 932h104l-354 -1065h-107l-282 922h-3l-280 -922h-107z" />
<glyph unicode="x" horiz-adv-x="1077" d="M55 0l420 541l-407 524h120l349 -459h6l346 459h123l-408 -528l420 -537h-121l-358 469h-6l-361 -469h-123z" />
<glyph unicode="y" horiz-adv-x="1120" d="M84 1065h106l371 -930h6l361 930h108l-430 -1094q-20 -51 -37 -88.5t-46 -84t-59 -76t-74 -50t-93 -20.5q-73 0 -168 31l23 86q77 -25 139 -25q35 0 65.5 16.5t52 39t42.5 60.5t33 67.5t28 72.5z" />
<glyph unicode="z" horiz-adv-x="1038" d="M78 0v76l749 905l-2 4l-356 -2h-367v82h850v-78l-741 -903l2 -4l356 2h383v-82h-874z" />
<glyph unicode="{" horiz-adv-x="669" d="M88 500v78q72 2 111 35.5t39 111.5v459q3 137 65 201.5t211 64.5h57v-82h-57q-99 0 -142.5 -43t-43.5 -139v-467q0 -74 -23 -119t-84 -61q60 -16 83.5 -61.5t23.5 -119.5v-471q0 -96 43.5 -138t142.5 -42h57v-84h-57q-149 0 -211 64.5t-65 201.5v463q0 148 -150 148z" />
<glyph unicode="|" horiz-adv-x="475" d="M195 -301v1933h86v-1933h-86z" />
<glyph unicode="}" horiz-adv-x="669" d="M98 -293h58q99 0 142.5 42t43.5 138v471q0 74 23.5 119.5t83.5 61.5q-61 16 -84 61t-23 119v467q0 96 -43.5 139t-142.5 43h-58v82h58q149 0 211 -64.5t65 -201.5v-459q0 -78 39 -111.5t111 -35.5v-78q-150 0 -150 -148v-463q-3 -137 -65 -201.5t-211 -64.5h-58v84z" />
<glyph unicode="&#xa1;" horiz-adv-x="507" d="M172 1006q0 34 22.5 54.5t57.5 20.5q36 0 58 -21t22 -54q0 -35 -22.5 -57.5t-57.5 -22.5t-57.5 22.5t-22.5 57.5zM186 -369l23 1082h80l24 -1082h-127z" />
<glyph unicode="&#xa2;" horiz-adv-x="1163" d="M102 700q0 218 144 374t362 173v170h64v-168q166 -6 297 -67l-35 -72l-8 3q-7 3 -20.5 7.5t-32 10t-42.5 11.5t-50 10.5t-57 7.5t-62 3q-133 0 -238.5 -65.5t-161 -170.5t-55.5 -227q0 -91 33 -174.5t91 -147.5t144.5 -102t186.5 -38q31 0 62 3t57 7.5t50 10.5t42.5 11.5 t32 10t20.5 7.5l8 3l35 -72q-138 -64 -297 -67v-168h-64v170q-218 15 -362 171t-144 375z" />
<glyph unicode="&#xa3;" horiz-adv-x="1159" d="M115 0v86q5 3 12.5 8t27 23.5t34.5 40.5t27.5 59t12.5 78v356h-112v66h112v327q0 184 109 295t295 111q94 0 183 -44.5t147 -117.5l-70 -67q-47 60 -116 93.5t-144 33.5q-148 0 -224.5 -86.5t-76.5 -233.5v-311h522v-66h-522v-344q0 -64 -26 -124.5t-79 -94.5h791v-88 h-903z" />
<glyph unicode="&#xa5;" horiz-adv-x="1265" d="M74 1434h114l275 -459l168 -285h4l170 287l274 457h113l-508 -846v-64h274v-67h-274v-105h274v-67h-274v-285h-102v285h-275v67h275v105h-275v67h275v64z" />
<glyph unicode="&#xa7;" horiz-adv-x="1228" d="M135 580q0 56 20.5 109.5t54 94.5t59 65.5t50.5 43.5q-75 38 -122 97t-47 132q0 312 475 312q209 0 428 -93l-33 -79q-216 81 -393 81q-369 0 -369 -223q0 -65 46 -112.5t120 -77t163 -54.5t178 -53.5t163 -66t120 -100.5t46 -148q0 -53 -22 -107t-56 -96t-60 -68 t-49 -44q78 -38 125 -96t47 -132q0 -313 -477 -313q-204 0 -426 94l33 80q213 -84 391 -84q371 0 371 223q0 64 -46 111.5t-120 76t-163 53.5t-178 54t-163 67t-120 102.5t-46 150.5zM227 580q0 -46 21 -85t60.5 -67.5t85.5 -51.5t107 -43t114 -35t117 -33.5t106 -33.5 q66 52 113.5 125.5t47.5 149.5q0 52 -30 96t-75 72.5t-114 56t-128.5 44.5t-137.5 39.5t-125 39.5q-162 -135 -162 -274z" />
<glyph unicode="&#xa8;" horiz-adv-x="911" d="M207 1294q0 29 18.5 48.5t46.5 19.5q27 0 45.5 -19.5t18.5 -48.5t-19 -47t-47 -18t-45.5 18t-17.5 47zM569 1294q0 29 19 48.5t47 19.5q26 0 44.5 -19.5t18.5 -48.5t-18.5 -47t-46.5 -18t-46 18t-18 47z" />
<glyph unicode="&#xa9;" horiz-adv-x="1722" d="M131 717q0 145 58.5 278t156.5 229t233 153t283 57t283 -57t233 -153t156.5 -229t58.5 -278t-58.5 -278t-157 -229t-233.5 -153t-282 -57t-282 57t-233.5 153t-157 229t-58.5 278zM186 715q0 -180 90.5 -333t246 -242t339.5 -89q137 0 262 52.5t215.5 141.5t144.5 212 t54 258q0 179 -91 332t-247 242t-338 89q-137 0 -262.5 -52.5t-216 -141.5t-144 -212t-53.5 -257zM516 719q0 156 106 257t265 101q140 0 231 -84l-49 -67q-80 65 -186 65q-112 0 -195.5 -79.5t-83.5 -192.5t83.5 -193t195.5 -80q104 0 186 66l49 -68q-91 -84 -231 -84 q-159 0 -265 101.5t-106 257.5z" />
<glyph unicode="&#xaa;" horiz-adv-x="1013" d="M168 977q5 215 317 215q38 0 89 -8t82 -16l32 -9v55q-1 43 -6.5 72.5t-19 57.5t-37 44.5t-62.5 26.5t-94 10q-60 0 -203 -34l-16 67q151 41 233 41q146 0 213.5 -61t67.5 -193v-405q0 -25 37 -25q5 0 23 2t20 2v-61q-33 -17 -76 -17q-33 0 -52.5 18.5t-19.5 47.5v78 q-36 -68 -102.5 -106t-155.5 -38q-55 0 -101.5 13t-85.5 39.5t-61 73.5t-22 110zM174 475v72h668v-72h-668zM246 977q0 -84 57 -124t143 -40q101 0 170 60.5t72 150.5v74q-20 9 -83 22t-118 13q-106 0 -173.5 -36t-67.5 -120z" />
<glyph unicode="&#xab;" horiz-adv-x="1110" d="M111 524v17l413 458l54 -53l-342 -414l339 -415l-51 -54zM516 524v17l412 458l53 -53l-342 -414l340 -415l-51 -54z" />
<glyph unicode="&#xad;" horiz-adv-x="1048" d="M162 614v78h725v-78h-725z" />
<glyph unicode="&#xae;" horiz-adv-x="1253" d="M166 975q0 191 134.5 325t328.5 134q193 0 327 -134t134 -325q0 -188 -135 -323.5t-326 -135.5q-194 0 -328.5 134.5t-134.5 324.5zM213 975q0 -171 121.5 -291.5t294.5 -120.5q168 0 291.5 120t123.5 292q0 169 -122.5 291.5t-292.5 122.5q-172 0 -294 -122t-122 -292z M467 729v492h209q59 0 99 -40.5t40 -101.5q0 -49 -29.5 -84.5t-74.5 -46.5l127 -219h-54l-125 215h-145v-215h-47zM514 987h162q38 0 66 26.5t28 65.5q0 42 -28 70.5t-66 28.5h-162v-191z" />
<glyph unicode="&#xaf;" horiz-adv-x="931" d="M170 1245v68h598v-68h-598z" />
<glyph unicode="&#xb0;" horiz-adv-x="684" d="M152 1264q0 81 54.5 132.5t137.5 51.5q81 0 136 -51.5t55 -132.5t-55 -133t-136 -52q-82 0 -137 52t-55 133zM213 1264q0 -61 37.5 -99.5t93.5 -38.5q55 0 93 39t38 99t-38 98.5t-93 38.5q-56 0 -93.5 -38t-37.5 -99z" />
<glyph unicode="&#xb1;" horiz-adv-x="1001" d="M168 725v74h295v272h76v-272h295v-74h-295v-272h-76v272h-295zM170 215v76h664v-76h-664z" />
<glyph unicode="&#xb4;" horiz-adv-x="559" d="M168 1217l121 301l90 -41l-141 -260h-70z" />
<glyph unicode="&#xb5;" horiz-adv-x="1263" d="M193 -348v1413h100v-635q0 -162 96.5 -261t249.5 -99q174 0 272.5 92t98.5 266v637h100v-1065h-78l-18 178q-47 -92 -145 -143t-230 -51q-123 0 -217.5 56t-128.5 148v-536h-100z" />
<glyph unicode="&#xb6;" horiz-adv-x="1003" d="M92 1042q0 116 51.5 207t134.5 138t181 47h327v-1608h-81v1526h-115v-1526h-82v809h-66q-67 2 -124 25t-98 61.5t-70.5 89.5t-43.5 109.5t-14 121.5z" />
<glyph unicode="&#xb7;" horiz-adv-x="534" d="M158 610q0 46 32 78.5t76 32.5q46 0 78.5 -32.5t32.5 -78.5q0 -44 -32.5 -76t-78.5 -32q-44 0 -76 32t-32 76z" />
<glyph unicode="&#xb8;" horiz-adv-x="659" d="M162 -379l16 49q31 -6 63 -8.5t74 0t68.5 24t26.5 60.5q0 76 -86 76l-43 -4l-31 37l51 145h70l-35 -119q65 8 112.5 -29.5t47.5 -103.5q0 -59 -35 -95t-89 -45t-108 -5t-102 18z" />
<glyph unicode="&#xba;" horiz-adv-x="1126" d="M172 475v72h778v-72h-778zM172 1120q0 160 107.5 269.5t281.5 109.5t281.5 -109.5t107.5 -269.5t-107.5 -269.5t-281.5 -109.5t-281.5 109.5t-107.5 269.5zM258 1120q0 -124 86 -214.5t217 -90.5t217 90.5t86 214.5t-86 214.5t-217 90.5t-217 -90.5t-86 -214.5z" />
<glyph unicode="&#xbb;" horiz-adv-x="1112" d="M129 946l51 53l416 -458v-17l-416 -461l-49 54l340 415zM535 946l53 53l413 -458v-17l-413 -461l-51 54l340 415z" />
<glyph unicode="&#xbf;" horiz-adv-x="942" d="M94 -29q0 61 22 112.5t56.5 89t77 71.5t84.5 67t76.5 67t56.5 80t22 99v156h86v-160q0 -62 -21 -114.5t-54.5 -90t-74 -70.5t-81 -65t-74 -65.5t-54.5 -78.5t-21 -98q0 -120 92.5 -186t222.5 -66q70 0 150 23.5t137 60.5l47 -69q-63 -47 -156 -76t-178 -29 q-114 0 -206.5 37t-151 116.5t-58.5 188.5zM451 1006q0 33 22 54t57 21q34 0 57 -21.5t23 -53.5q0 -36 -23 -58t-57 -22t-56.5 22t-22.5 58z" />
<glyph unicode="&#xc0;" d="M68 0l540 1450h131l541 -1450h-106l-154 408h-692l-154 -408h-106zM358 494h631l-313 849h-4zM481 1778l90 41l121 -301h-69z" />
<glyph unicode="&#xc1;" d="M68 0l540 1450h131l541 -1450h-106l-154 408h-692l-154 -408h-106zM358 494h631l-313 849h-4zM647 1518l121 301l90 -41l-141 -260h-70z" />
<glyph unicode="&#xc2;" d="M68 0l540 1450h131l541 -1450h-106l-154 408h-692l-154 -408h-106zM358 494h631l-313 849h-4zM432 1520l193 219h73l193 -219h-96l-133 155l-134 -155h-96z" />
<glyph unicode="&#xc3;" d="M68 0l540 1450h131l541 -1450h-106l-154 408h-692l-154 -408h-106zM358 494h631l-313 849h-4zM403 1565q67 114 175 114q48 0 122.5 -40t122.5 -40q71 0 121 66l35 -27q-65 -114 -176 -114q-48 0 -122.5 40t-123.5 40q-38 0 -63 -16t-54 -50z" />
<glyph unicode="&#xc4;" d="M68 0l540 1450h131l541 -1450h-106l-154 408h-692l-154 -408h-106zM358 494h631l-313 849h-4zM426 1597q0 29 19 48.5t47 19.5q26 0 44.5 -19.5t18.5 -48.5t-19 -47t-47 -18t-45.5 18t-17.5 47zM788 1597q0 29 19 48.5t47 19.5q27 0 45.5 -19.5t18.5 -48.5t-19 -47 t-47 -18t-46 18t-18 47z" />
<glyph unicode="&#xc5;" d="M68 0l540 1450h131l541 -1450h-106l-154 408h-692l-154 -408h-106zM358 494h631l-313 849h-4zM508 1686q0 70 46.5 113.5t117.5 43.5t117.5 -43.5t46.5 -113.5t-46.5 -114t-117.5 -44t-117.5 44t-46.5 114zM573 1686q0 -46 25 -75.5t74 -29.5q48 0 73 29.5t25 75.5 t-24.5 75t-73.5 29t-74 -29.5t-25 -74.5z" />
<glyph unicode="&#xc6;" horiz-adv-x="1982" d="M43 0l678 1434h1124v-88h-864v-605h743v-88h-743v-565h899v-88h-1001v408h-533l-190 -408h-113zM381 494h498v852h-99z" />
<glyph unicode="&#xc7;" horiz-adv-x="1374" d="M119 717q0 121 36 233t104 202.5t159.5 157.5t207 103.5t242.5 36.5q207 0 406 -104l-39 -78q-19 10 -52 25.5t-131.5 41t-191.5 25.5q-178 0 -324 -85t-228.5 -232t-82.5 -326q0 -134 48.5 -252.5t132.5 -204t202 -135t252 -49.5q91 0 185 23t142 46l48 23l39 -82 q-206 -102 -416 -102h-2l-29 -103q13 2 25 2q57 0 96 -37.5t39 -97.5q0 -78 -55.5 -112.5t-140.5 -34.5q-73 0 -138 20l17 51q62 -10 104 -10q127 0 127 84q0 76 -86 76l-43 -4l-31 37l45 133q-189 16 -341.5 116t-239 261t-86.5 352z" />
<glyph unicode="&#xc8;" horiz-adv-x="1323" d="M215 0v1434h967v-88h-865v-605h744v-88h-744v-565h900v-88h-1002zM567 1778l90 41l121 -301h-69z" />
<glyph unicode="&#xc9;" horiz-adv-x="1323" d="M215 0v1434h967v-88h-865v-605h744v-88h-744v-565h900v-88h-1002zM637 1518l121 301l90 -41l-141 -260h-70z" />
<glyph unicode="&#xca;" horiz-adv-x="1323" d="M215 0v1434h967v-88h-865v-605h744v-88h-744v-565h900v-88h-1002zM500 1520l192 219h74l192 -219h-96l-133 155l-133 -155h-96z" />
<glyph unicode="&#xcb;" horiz-adv-x="1323" d="M215 0v1434h967v-88h-865v-605h744v-88h-744v-565h900v-88h-1002zM483 1597q0 29 19 48.5t47 19.5q26 0 44.5 -19.5t18.5 -48.5t-18.5 -47t-46.5 -18t-46 18t-18 47zM846 1597q0 29 18.5 48.5t46.5 19.5q27 0 45.5 -19.5t18.5 -48.5t-19 -47t-47 -18t-45.5 18t-17.5 47z " />
<glyph unicode="&#xcc;" horiz-adv-x="530" d="M84 1778l90 41l121 -301h-70zM215 0v1434h102v-1434h-102z" />
<glyph unicode="&#xcd;" horiz-adv-x="538" d="M215 0v1434h102v-1434h-102zM238 1518l120 301l91 -41l-142 -260h-69z" />
<glyph unicode="&#xce;" horiz-adv-x="528" d="M37 1518l192 219h74l193 -219h-97l-133 155l-133 -155h-96zM215 0v1434h102v-1434h-102z" />
<glyph unicode="&#xcf;" horiz-adv-x="557" d="M33 1597q0 29 18.5 48.5t46.5 19.5q27 0 45.5 -19.5t18.5 -48.5t-19 -47t-47 -18t-45.5 18t-17.5 47zM227 0v1434h103v-1434h-103zM395 1597q0 29 19 48.5t47 19.5q26 0 44.5 -19.5t18.5 -48.5t-18.5 -47t-46.5 -18t-46 18t-18 47z" />
<glyph unicode="&#xd0;" horiz-adv-x="1456" d="M25 694v54h192v686h481q58 0 143.5 -20t174.5 -71q315 -186 315 -626q0 -206 -76.5 -369.5t-238.5 -257.5q-154 -90 -318 -90h-481v694h-192zM319 88h365q148 0 287 82q258 149 258 547q0 188 -63 329t-195 218q-139 82 -287 82h-365v-598h359v-54h-359v-606z" />
<glyph unicode="&#xd1;" horiz-adv-x="1490" d="M215 0v1434h104l476 -703l383 -575h4l-6 501v777h102v-1434h-109l-479 717l-375 561h-4l6 -502v-776h-102zM487 1565q67 114 175 114q48 0 122.5 -40t122.5 -40q71 0 121 66l35 -27q-65 -114 -176 -114q-48 0 -122.5 40t-123.5 40q-38 0 -63 -16t-54 -50z" />
<glyph unicode="&#xd2;" horiz-adv-x="1693" d="M119 717q0 164 58 303t156.5 232.5t231 145.5t281.5 52t281.5 -52t232 -145.5t157.5 -232.5t58 -303q0 -217 -99 -386t-264 -258t-366 -89q-148 0 -281 52.5t-231.5 146t-156.5 232.5t-58 302zM221 719q0 -143 49.5 -264.5t134.5 -204t199.5 -128.5t243.5 -46t243.5 45.5 t199 127.5t133.5 203.5t49 264.5q0 145 -49 266.5t-134 203t-199.5 126.5t-244.5 45q-129 0 -243 -45.5t-198.5 -127t-134 -202.5t-49.5 -264zM694 1778l90 41l121 -301h-69z" />
<glyph unicode="&#xd3;" horiz-adv-x="1691" d="M117 717q0 164 58 303t156.5 232.5t231 145.5t281.5 52t281.5 -52t232 -145.5t157.5 -232.5t58 -303q0 -217 -99 -386t-264 -258t-366 -89q-148 0 -281 52.5t-231.5 146t-156.5 232.5t-58 302zM219 719q0 -143 49.5 -264.5t134.5 -204t199.5 -128.5t243.5 -46t243.5 45.5 t198.5 127.5t133 203.5t49 264.5q0 145 -49 266.5t-133.5 203t-199 126.5t-244.5 45q-129 0 -243 -45.5t-198.5 -127t-134 -202.5t-49.5 -264zM793 1518l120 301l91 -41l-142 -260h-69z" />
<glyph unicode="&#xd4;" horiz-adv-x="1693" d="M119 717q0 164 58 303t156.5 232.5t231 145.5t281.5 52t281.5 -52t232 -145.5t157.5 -232.5t58 -303q0 -217 -99 -386t-264 -258t-366 -89q-148 0 -281 52.5t-231.5 146t-156.5 232.5t-58 302zM221 719q0 -143 49.5 -264.5t134.5 -204t199.5 -128.5t243.5 -46t243.5 45.5 t199 127.5t133.5 203.5t49 264.5q0 145 -49 266.5t-134 203t-199.5 126.5t-244.5 45q-129 0 -243 -45.5t-198.5 -127t-134 -202.5t-49.5 -264zM616 1520l193 219h74l192 -219h-96l-133 155l-133 -155h-97z" />
<glyph unicode="&#xd5;" horiz-adv-x="1693" d="M119 717q0 164 58 303t156.5 232.5t231 145.5t281.5 52t281.5 -52t232 -145.5t157.5 -232.5t58 -303q0 -217 -99 -386t-264 -258t-366 -89q-148 0 -281 52.5t-231.5 146t-156.5 232.5t-58 302zM221 719q0 -143 49.5 -264.5t134.5 -204t199.5 -128.5t243.5 -46t243.5 45.5 t199 127.5t133.5 203.5t49 264.5q0 145 -49 266.5t-134 203t-199.5 126.5t-244.5 45q-129 0 -243 -45.5t-198.5 -127t-134 -202.5t-49.5 -264zM557 1565q68 114 174 114q48 0 123 -40t123 -40q71 0 121 66l35 -27q-31 -54 -77 -84t-100 -30q-48 0 -122 40t-123 40 q-38 0 -63 -16t-54 -50z" />
<glyph unicode="&#xd6;" horiz-adv-x="1693" d="M119 717q0 164 58 303t156.5 232.5t231 145.5t281.5 52t281.5 -52t232 -145.5t157.5 -232.5t58 -303q0 -217 -99 -386t-264 -258t-366 -89q-148 0 -281 52.5t-231.5 146t-156.5 232.5t-58 302zM221 719q0 -143 49.5 -264.5t134.5 -204t199.5 -128.5t243.5 -46t243.5 45.5 t199 127.5t133.5 203.5t49 264.5q0 145 -49 266.5t-134 203t-199.5 126.5t-244.5 45q-129 0 -243 -45.5t-198.5 -127t-134 -202.5t-49.5 -264zM602 1597q0 29 19 48.5t47 19.5q26 0 44.5 -19.5t18.5 -48.5t-18.5 -47t-46.5 -18t-46 18t-18 47zM965 1597q0 29 18.5 48.5 t46.5 19.5q27 0 45.5 -19.5t18.5 -48.5t-19 -47t-47 -18t-45.5 18t-17.5 47z" />
<glyph unicode="&#xd7;" horiz-adv-x="903" d="M166 428l233 231l-233 236l49 49l236 -233l237 237l49 -51l-235 -238l233 -231l-49 -53l-235 235l-234 -235z" />
<glyph unicode="&#xd8;" horiz-adv-x="1691" d="M117 717q0 164 58 303t156.5 232.5t231 145.5t281.5 52q196 0 366 -92l86 133h101l-115 -178q136 -98 213.5 -251.5t77.5 -344.5q0 -217 -99 -386t-264 -258t-366 -89t-361 86l-84 -131h-102l115 176q-138 98 -216.5 253t-78.5 349zM219 719q0 -168 65 -301t181 -219 l694 1081q-141 78 -315 78q-129 0 -243 -45.5t-198.5 -127t-134 -202.5t-49.5 -264zM537 152q140 -76 309 -76q129 0 243.5 45.5t198.5 127.5t133 203.5t49 264.5q0 166 -63.5 299t-175.5 217z" />
<glyph unicode="&#xd9;" horiz-adv-x="1456" d="M201 451v983h102v-985q0 -163 119.5 -268t306.5 -105t306.5 105t119.5 268v985h102v-983q-2 -146 -73.5 -253.5t-189 -160.5t-265.5 -53t-265.5 53t-189 160.5t-73.5 253.5zM604 1778l90 41l121 -301h-70z" />
<glyph unicode="&#xda;" horiz-adv-x="1456" d="M201 451v983h102v-985q0 -163 119.5 -268t306.5 -105t306.5 105t119.5 268v985h102v-983q-2 -146 -73.5 -253.5t-189 -160.5t-265.5 -53t-265.5 53t-189 160.5t-73.5 253.5zM653 1518l121 301l90 -41l-141 -260h-70z" />
<glyph unicode="&#xdb;" horiz-adv-x="1456" d="M201 451v983h102v-985q0 -163 119.5 -268t306.5 -105t306.5 105t119.5 268v985h102v-983q-2 -146 -73.5 -253.5t-189 -160.5t-265.5 -53t-265.5 53t-189 160.5t-73.5 253.5zM500 1518l192 219h74l192 -219h-96l-133 155l-133 -155h-96z" />
<glyph unicode="&#xdc;" horiz-adv-x="1456" d="M201 451v983h102v-985q0 -163 119.5 -268t306.5 -105t306.5 105t119.5 268v985h102v-983q-2 -146 -73.5 -253.5t-189 -160.5t-265.5 -53t-265.5 53t-189 160.5t-73.5 253.5zM504 1597q0 29 18.5 48.5t46.5 19.5q27 0 45.5 -19.5t18.5 -48.5t-19 -47t-47 -18t-45.5 18 t-17.5 47zM866 1597q0 29 19 48.5t47 19.5q26 0 44.5 -19.5t18.5 -48.5t-18.5 -47t-46.5 -18t-46 18t-18 47z" />
<glyph unicode="&#xdd;" horiz-adv-x="1224" d="M53 1434h113l444 -750h2l445 750h114l-507 -846v-588h-103v588zM530 1518l121 301l90 -41l-141 -260h-70z" />
<glyph unicode="&#xde;" horiz-adv-x="1288" d="M215 0v1434h102v-285h496q166 0 278.5 -121t112.5 -299q0 -112 -50 -208.5t-138.5 -155t-194.5 -58.5h-504v-307h-102zM317 399h496q123 0 206 96.5t83 231.5q0 145 -89 237.5t-222 92.5h-474v-658z" />
<glyph unicode="&#xdf;" horiz-adv-x="1161" d="M178 0v1016q0 107 27 188.5t67 126.5t93.5 73.5t97.5 37t88 8.5q175 0 276 -95t101 -249q0 -57 -20 -110.5t-44.5 -89.5t-44.5 -87t-20 -104q0 -47 29.5 -87.5t71.5 -73.5t84 -69.5t71.5 -93.5t29.5 -129q0 -149 -85 -232t-252 -83q-88 0 -176.5 19.5t-120.5 35.5l18 84 q133 -53 274 -53q112 0 177 61.5t65 173.5q0 52 -21 95t-52.5 70.5t-68 57.5t-68 57t-52.5 69.5t-21 93.5q0 50 19 103t41.5 91.5t41.5 92.5t19 106q0 113 -74 183.5t-194 70.5q-26 0 -56 -6t-71 -28.5t-72.5 -58.5t-54 -103.5t-22.5 -155.5v-1006h-101z" />
<glyph unicode="&#xe0;" horiz-adv-x="1148" d="M82 322q0 84 37 146.5t101.5 98.5t143.5 53t171 17q44 0 91 -3t85.5 -7.5t68.5 -8.5t52.5 -8t23.5 -4v127q0 145 -79 202.5t-230 57.5q-190 0 -336 -47l-23 78q195 57 375 57q201 0 296 -79.5t95 -260.5v-606q0 -49 60 -49q41 0 76 4v-82q-49 -14 -109 -14q-49 0 -87 29 t-38 90v90q-44 -101 -149.5 -160t-239.5 -59q-77 0 -144.5 19.5t-122.5 58.5t-86.5 105.5t-31.5 154.5zM178 322q0 -86 45 -144.5t110.5 -83t145.5 -24.5q147 0 262 96.5t115 224.5v133q-165 33 -313 33q-45 0 -86 -4.5t-83.5 -14t-76.5 -27.5t-61.5 -43.5t-42.5 -62.5 t-15 -83zM430 1460l90 41l121 -301h-70z" />
<glyph unicode="&#xe1;" horiz-adv-x="1148" d="M82 322q0 84 37 146.5t101.5 98.5t143.5 53t171 17q44 0 91 -3t85.5 -7.5t68.5 -8.5t52.5 -8t23.5 -4v127q0 145 -79 202.5t-230 57.5q-190 0 -336 -47l-23 78q195 57 375 57q201 0 296 -79.5t95 -260.5v-606q0 -49 60 -49q41 0 76 4v-82q-49 -14 -109 -14q-49 0 -87 29 t-38 90v90q-44 -101 -149.5 -160t-239.5 -59q-77 0 -144.5 19.5t-122.5 58.5t-86.5 105.5t-31.5 154.5zM178 322q0 -86 45 -144.5t110.5 -83t145.5 -24.5q147 0 262 96.5t115 224.5v133q-165 33 -313 33q-45 0 -86 -4.5t-83.5 -14t-76.5 -27.5t-61.5 -43.5t-42.5 -62.5 t-15 -83zM492 1200l120 301l90 -41l-141 -260h-69z" />
<glyph unicode="&#xe2;" horiz-adv-x="1148" d="M82 322q0 84 37 146.5t101.5 98.5t143.5 53t171 17q44 0 91 -3t85.5 -7.5t68.5 -8.5t52.5 -8t23.5 -4v127q0 145 -79 202.5t-230 57.5q-190 0 -336 -47l-23 78q195 57 375 57q201 0 296 -79.5t95 -260.5v-606q0 -49 60 -49q41 0 76 4v-82q-49 -14 -109 -14q-49 0 -87 29 t-38 90v90q-44 -101 -149.5 -160t-239.5 -59q-77 0 -144.5 19.5t-122.5 58.5t-86.5 105.5t-31.5 154.5zM178 322q0 -86 45 -144.5t110.5 -83t145.5 -24.5q147 0 262 96.5t115 224.5v133q-165 33 -313 33q-45 0 -86 -4.5t-83.5 -14t-76.5 -27.5t-61.5 -43.5t-42.5 -62.5 t-15 -83zM342 1200l193 219h73l193 -219h-96l-134 156l-133 -156h-96z" />
<glyph unicode="&#xe3;" horiz-adv-x="1148" d="M82 322q0 84 37 146.5t101.5 98.5t143.5 53t171 17q44 0 91 -3t85.5 -7.5t68.5 -8.5t52.5 -8t23.5 -4v127q0 145 -79 202.5t-230 57.5q-190 0 -336 -47l-23 78q195 57 375 57q201 0 296 -79.5t95 -260.5v-606q0 -49 60 -49q41 0 76 4v-82q-49 -14 -109 -14q-49 0 -87 29 t-38 90v90q-44 -101 -149.5 -160t-239.5 -59q-77 0 -144.5 19.5t-122.5 58.5t-86.5 105.5t-31.5 154.5zM178 322q0 -86 45 -144.5t110.5 -83t145.5 -24.5q147 0 262 96.5t115 224.5v133q-165 33 -313 33q-45 0 -86 -4.5t-83.5 -14t-76.5 -27.5t-61.5 -43.5t-42.5 -62.5 t-15 -83zM291 1237q68 115 174 115q48 0 123 -40t123 -40q71 0 120 65l35 -26q-31 -55 -77 -85t-99 -30q-48 0 -122.5 40t-123.5 40q-38 0 -62.5 -16t-53.5 -50z" />
<glyph unicode="&#xe4;" horiz-adv-x="1148" d="M82 322q0 84 37 146.5t101.5 98.5t143.5 53t171 17q44 0 91 -3t85.5 -7.5t68.5 -8.5t52.5 -8t23.5 -4v127q0 145 -79 202.5t-230 57.5q-190 0 -336 -47l-23 78q195 57 375 57q201 0 296 -79.5t95 -260.5v-606q0 -49 60 -49q41 0 76 4v-82q-49 -14 -109 -14q-49 0 -87 29 t-38 90v90q-44 -101 -149.5 -160t-239.5 -59q-77 0 -144.5 19.5t-122.5 58.5t-86.5 105.5t-31.5 154.5zM178 322q0 -86 45 -144.5t110.5 -83t145.5 -24.5q147 0 262 96.5t115 224.5v133q-165 33 -313 33q-45 0 -86 -4.5t-83.5 -14t-76.5 -27.5t-61.5 -43.5t-42.5 -62.5 t-15 -83zM346 1266q0 29 19 48t47 19q27 0 45 -19t18 -48t-18.5 -47.5t-46.5 -18.5t-46 18.5t-18 47.5zM709 1266q0 29 18.5 48t46.5 19q27 0 45.5 -19t18.5 -48t-19 -47.5t-47 -18.5t-45.5 18.5t-17.5 47.5z" />
<glyph unicode="&#xe5;" horiz-adv-x="1148" d="M82 322q0 84 37 146.5t101.5 98.5t143.5 53t171 17q44 0 91 -3t85.5 -7.5t68.5 -8.5t52.5 -8t23.5 -4v127q0 145 -79 202.5t-230 57.5q-190 0 -336 -47l-23 78q195 57 375 57q201 0 296 -79.5t95 -260.5v-606q0 -49 60 -49q41 0 76 4v-82q-49 -14 -109 -14q-49 0 -87 29 t-38 90v90q-44 -101 -149.5 -160t-239.5 -59q-77 0 -144.5 19.5t-122.5 58.5t-86.5 105.5t-31.5 154.5zM178 322q0 -86 45 -144.5t110.5 -83t145.5 -24.5q147 0 262 96.5t115 224.5v133q-165 33 -313 33q-45 0 -86 -4.5t-83.5 -14t-76.5 -27.5t-61.5 -43.5t-42.5 -62.5 t-15 -83zM440 1366q0 70 46.5 114t117.5 44t117.5 -44t46.5 -114t-46.5 -114t-117.5 -44t-117.5 44t-46.5 114zM506 1366q0 -46 24.5 -75t73.5 -29t73.5 29t24.5 75t-24.5 75t-73.5 29t-73.5 -29t-24.5 -75z" />
<glyph unicode="&#xe6;" horiz-adv-x="1900" d="M84 322q0 84 37 146.5t101.5 98.5t143.5 53t171 17q102 0 247 -19q15 103 66 195q-21 99 -96.5 139.5t-204.5 40.5q-190 0 -336 -47l-23 78q195 57 375 57q144 0 233 -40t128 -128q73 79 172 123.5t213 44.5t210 -45.5t158 -121t96.5 -171t34.5 -196.5l-4 -53h-921 q9 -179 136 -301.5t318 -122.5q161 0 353 80l32 -74q-204 -92 -385 -92q-147 0 -264.5 59.5t-191.5 163.5q-57 -95 -172.5 -159t-241.5 -64q-77 0 -144.5 19.5t-122.5 58.5t-86.5 105.5t-31.5 154.5zM180 322q0 -86 45 -144.5t110.5 -83t145.5 -24.5q114 0 213.5 61 t141.5 154q-58 116 -58 247v7q-133 18 -233 18q-45 0 -86 -4.5t-83.5 -14t-76.5 -27.5t-61.5 -43.5t-42.5 -62.5t-15 -83zM885 571h825q0 77 -26.5 151.5t-74.5 136t-125 99t-169 37.5q-176 0 -298.5 -122t-131.5 -302z" />
<glyph unicode="&#xe7;" horiz-adv-x="1062" d="M104 532q0 151 71.5 276.5t200 199t288.5 73.5q166 0 307 -67l-33 -76l-14 6q-15 6 -39.5 14t-56 16.5t-73.5 14.5t-83 6q-105 0 -193 -38.5t-146.5 -102.5t-91 -147.5t-32.5 -174.5q0 -122 55 -226.5t162.5 -170t247.5 -65.5q40 0 81.5 5.5t73 14t56.5 16.5t40 14l15 5 l31 -74q-141 -67 -307 -67h-2l-27 -103q10 2 20 2q59 0 99.5 -37.5t40.5 -97.5q0 -77 -56 -112t-139 -35q-74 0 -139 20l16 51q63 -10 105 -10q127 0 127 84q0 76 -86 76l-43 -4l-31 37l47 133q-217 23 -354.5 176t-137.5 368z" />
<glyph unicode="&#xe8;" horiz-adv-x="1200" d="M104 532q0 147 69 273t193 201t275 75q115 0 206 -42t148 -114.5t87 -167t30 -202.5l-4 -61h-897q9 -179 136.5 -301.5t318.5 -122.5q158 0 350 80l33 -74q-204 -92 -383 -92q-166 0 -295 72.5t-198 197t-69 278.5zM211 571h801q0 85 -22.5 160t-66.5 134.5t-116.5 94.5 t-165.5 35q-176 0 -298.5 -122t-131.5 -302zM506 1460l90 41l121 -301h-70z" />
<glyph unicode="&#xe9;" horiz-adv-x="1200" d="M104 532q0 147 69 273t193 201t275 75q115 0 206 -42t148 -114.5t87 -167t30 -202.5l-4 -61h-897q9 -179 136.5 -301.5t318.5 -122.5q158 0 350 80l33 -74q-204 -92 -383 -92q-166 0 -295 72.5t-198 197t-69 278.5zM211 571h801q0 85 -22.5 160t-66.5 134.5t-116.5 94.5 t-165.5 35q-176 0 -298.5 -122t-131.5 -302zM559 1200l121 301l90 -41l-141 -260h-70z" />
<glyph unicode="&#xea;" horiz-adv-x="1200" d="M104 532q0 147 69 273t193 201t275 75q115 0 206 -42t148 -114.5t87 -167t30 -202.5l-4 -61h-897q9 -179 136.5 -301.5t318.5 -122.5q158 0 350 80l33 -74q-204 -92 -383 -92q-166 0 -295 72.5t-198 197t-69 278.5zM211 571h801q0 85 -22.5 160t-66.5 134.5t-116.5 94.5 t-165.5 35q-176 0 -298.5 -122t-131.5 -302zM399 1194l201 219h76l205 -219h-88l-152 143l-158 -143h-84z" />
<glyph unicode="&#xeb;" horiz-adv-x="1200" d="M104 532q0 147 69 273t193 201t275 75q115 0 206 -42t148 -114.5t87 -167t30 -202.5l-4 -61h-897q9 -179 136.5 -301.5t318.5 -122.5q158 0 350 80l33 -74q-204 -92 -383 -92q-166 0 -295 72.5t-198 197t-69 278.5zM211 571h801q0 85 -22.5 160t-66.5 134.5t-116.5 94.5 t-165.5 35q-176 0 -298.5 -122t-131.5 -302zM399 1266q0 29 19 48t47 19q27 0 45 -19t18 -48t-18.5 -47.5t-46.5 -18.5t-46 18.5t-18 47.5zM762 1266q0 29 18.5 48t46.5 19q27 0 45.5 -19t18.5 -48t-19 -47.5t-47 -18.5t-45.5 18.5t-17.5 47.5z" />
<glyph unicode="&#xec;" horiz-adv-x="468" d="M37 1460l90 41l121 -301h-70zM84 995v70h205v-1065h-99v969z" />
<glyph unicode="&#xed;" horiz-adv-x="489" d="M113 995v70h204v-1065h-98v969zM201 1200l121 301l90 -41l-142 -260h-69z" />
<glyph unicode="&#xee;" horiz-adv-x="468" d="M-27 1200l193 219h74l192 -219h-96l-133 156l-133 -156h-97zM90 995v70h205v-1065h-98v969z" />
<glyph unicode="&#xef;" horiz-adv-x="499" d="M-35 1266q0 29 19 48t47 19q27 0 45 -19t18 -48t-18.5 -47.5t-46.5 -18.5t-46 18.5t-18 47.5zM111 995v70h204v-1065h-98v969zM328 1266q0 29 18.5 48t46.5 19q27 0 45.5 -19t18.5 -48t-19 -47.5t-47 -18.5t-45.5 18.5t-17.5 47.5z" />
<glyph unicode="&#xf0;" horiz-adv-x="1198" d="M92 485q0 230 135 363t344 133q130 0 245.5 -66t160.5 -170h2q-77 362 -309 582l-201 -137l-29 43l189 129q-115 98 -262 164l26 59q170 -73 299 -180l203 137l31 -41l-193 -131q82 -75 145 -164t99.5 -170t60 -168t31.5 -153t8 -129q0 -276 -133.5 -439t-361.5 -163 q-115 0 -208.5 39t-154.5 107t-94 159t-33 196zM195 483q0 -82 25.5 -155.5t73 -131.5t122 -92t166.5 -34q170 0 276.5 124t106.5 302q0 179 -109.5 289t-275.5 110q-92 0 -166 -32.5t-121.5 -89t-72.5 -131t-25 -159.5z" />
<glyph unicode="&#xf1;" horiz-adv-x="1236" d="M178 0v1065h76l18 -240q5 23 21.5 53.5t50 66.5t77 66t109 50t138.5 20q195 0 299 -120t104 -338v-623h-100v627q0 174 -81.5 271t-236.5 97q-93 0 -167.5 -38t-118 -98.5t-66 -129.5t-22.5 -139v-590h-101zM336 1237q68 115 174 115q48 0 123 -40t123 -40q72 0 121 65 l34 -26q-31 -55 -77 -85t-99 -30q-48 0 -122.5 40t-123.5 40q-38 0 -62.5 -16t-53.5 -50z" />
<glyph unicode="&#xf2;" horiz-adv-x="1320" d="M102 532q0 159 75 285.5t202 195t280 68.5q152 0 279 -67.5t203 -193.5t76 -285t-75.5 -286t-202.5 -196t-280 -69q-114 0 -216.5 40t-177.5 111t-119 174t-44 223zM205 532q0 -202 129.5 -332t322.5 -130q194 0 325.5 130t131.5 332q0 203 -131 333t-326 130 q-193 0 -322.5 -130t-129.5 -333zM545 1460l90 41l121 -301h-70z" />
<glyph unicode="&#xf3;" horiz-adv-x="1320" d="M102 532q0 159 75 285.5t202 195t280 68.5q152 0 279 -67.5t203 -193.5t76 -285t-75.5 -286t-202.5 -196t-280 -69q-114 0 -216.5 40t-177.5 111t-119 174t-44 223zM205 532q0 -202 129.5 -332t322.5 -130q194 0 325.5 130t131.5 332q0 203 -131 333t-326 130 q-193 0 -322.5 -130t-129.5 -333zM559 1200l121 301l90 -41l-141 -260h-70z" />
<glyph unicode="&#xf4;" horiz-adv-x="1320" d="M102 532q0 159 75 285.5t202 195t280 68.5q152 0 279 -67.5t203 -193.5t76 -285t-75.5 -286t-202.5 -196t-280 -69q-114 0 -216.5 40t-177.5 111t-119 174t-44 223zM205 532q0 -202 129.5 -332t322.5 -130q194 0 325.5 130t131.5 332q0 203 -131 333t-326 130 q-193 0 -322.5 -130t-129.5 -333zM449 1192l192 219h74l192 -219h-96l-133 156l-133 -156h-96z" />
<glyph unicode="&#xf5;" horiz-adv-x="1320" d="M102 532q0 159 75 285.5t202 195t280 68.5q152 0 279 -67.5t203 -193.5t76 -285t-75.5 -286t-202.5 -196t-280 -69q-114 0 -216.5 40t-177.5 111t-119 174t-44 223zM205 532q0 -202 129.5 -332t322.5 -130q194 0 325.5 130t131.5 332q0 203 -131 333t-326 130 q-193 0 -322.5 -130t-129.5 -333zM371 1237q68 115 174 115q48 0 123 -40t123 -40q71 0 120 65l35 -26q-31 -55 -77 -85t-99 -30q-48 0 -122.5 40t-123.5 40q-38 0 -62.5 -16t-53.5 -50z" />
<glyph unicode="&#xf6;" horiz-adv-x="1320" d="M102 532q0 159 75 285.5t202 195t280 68.5q152 0 279 -67.5t203 -193.5t76 -285t-75.5 -286t-202.5 -196t-280 -69q-114 0 -216.5 40t-177.5 111t-119 174t-44 223zM205 532q0 -202 129.5 -332t322.5 -130q194 0 325.5 130t131.5 332q0 203 -131 333t-326 130 q-193 0 -322.5 -130t-129.5 -333zM414 1266q0 29 18.5 48t46.5 19q27 0 45.5 -19t18.5 -48t-19 -47.5t-47 -18.5t-45.5 18.5t-17.5 47.5zM776 1266q0 29 19 48t47 19q27 0 45 -19t18 -48t-18.5 -47.5t-46.5 -18.5t-46 18.5t-18 47.5z" />
<glyph unicode="&#xf7;" horiz-adv-x="1165" d="M162 608v78h839v-78h-839zM496 326q0 37 25.5 61.5t62.5 24.5q34 0 59 -25.5t25 -60.5t-25 -60.5t-59 -25.5q-37 0 -62.5 23.5t-25.5 62.5zM496 971q0 35 25.5 60.5t62.5 25.5q34 0 59 -25.5t25 -60.5q0 -36 -25 -62t-59 -26q-36 0 -62 24.5t-26 63.5z" />
<glyph unicode="&#xf8;" horiz-adv-x="1320" d="M102 532q0 159 75 285.5t202 195t280 68.5q144 0 267 -63l73 115h88l-98 -152q106 -74 167 -189.5t61 -256.5q0 -159 -75.5 -286t-202.5 -196t-280 -69q-147 0 -270 63l-74 -115h-88l99 154q-105 74 -164.5 189t-59.5 257zM205 532q0 -116 45 -211.5t125 -158.5l502 780 q-95 53 -220 53q-193 0 -322.5 -130t-129.5 -333zM438 123q95 -53 219 -53q194 0 325.5 130t131.5 332q0 117 -46 212.5t-128 158.5z" />
<glyph unicode="&#xf9;" horiz-adv-x="1241" d="M166 426v639h100v-627q0 -179 81 -273.5t267 -94.5q141 0 244 104.5t103 255.5v635h100v-1065h-76l-16 207q-54 -111 -152 -167t-219 -56q-218 0 -325 113.5t-107 328.5zM481 1460l90 41l121 -301h-69z" />
<glyph unicode="&#xfa;" horiz-adv-x="1241" d="M166 426v639h100v-627q0 -179 81 -273.5t267 -94.5q141 0 244 104.5t103 255.5v635h100v-1065h-76l-16 207q-54 -111 -152 -167t-219 -56q-218 0 -325 113.5t-107 328.5zM543 1200l121 301l90 -41l-142 -260h-69z" />
<glyph unicode="&#xfb;" horiz-adv-x="1241" d="M166 426v639h100v-627q0 -179 81 -273.5t267 -94.5q141 0 244 104.5t103 255.5v635h100v-1065h-76l-16 207q-54 -111 -152 -167t-219 -56q-218 0 -325 113.5t-107 328.5zM389 1200l193 219h73l193 -219h-96l-134 156l-133 -156h-96z" />
<glyph unicode="&#xfc;" horiz-adv-x="1241" d="M166 426v639h100v-627q0 -179 81 -273.5t267 -94.5q141 0 244 104.5t103 255.5v635h100v-1065h-76l-16 207q-54 -111 -152 -167t-219 -56q-218 0 -325 113.5t-107 328.5zM369 1266q0 29 18.5 48t46.5 19q27 0 45.5 -19t18.5 -48t-19 -47.5t-47 -18.5t-45.5 18.5 t-17.5 47.5zM731 1266q0 29 19 48t47 19q27 0 45 -19t18 -48t-18.5 -47.5t-46.5 -18.5t-46 18.5t-18 47.5z" />
<glyph unicode="&#xfd;" horiz-adv-x="1120" d="M84 1065h106l371 -930h6l361 930h108l-430 -1094q-20 -51 -37 -88.5t-46 -84t-59 -76t-74 -50t-93 -20.5q-73 0 -168 31l23 86q77 -25 139 -25q35 0 65.5 16.5t52 39t42.5 60.5t33 67.5t28 72.5zM489 1200l121 301l90 -41l-141 -260h-70z" />
<glyph unicode="&#xfe;" horiz-adv-x="1323" d="M178 -348v1784h101v-621q39 89 112 151.5t151.5 88.5t159.5 26q149 0 267.5 -73t183 -198t64.5 -278q0 -149 -62.5 -273t-181.5 -199.5t-271 -75.5q-88 0 -170 28.5t-149.5 87.5t-97.5 140v-588h-107zM274 532q0 -196 121.5 -329t296.5 -133q182 0 302 133t120 329 q0 198 -120 330.5t-302 132.5q-176 0 -297 -135t-121 -328z" />
<glyph unicode="&#xff;" horiz-adv-x="1120" d="M84 1065h106l371 -930h6l361 930h108l-430 -1094q-20 -51 -37 -88.5t-46 -84t-59 -76t-74 -50t-93 -20.5q-73 0 -168 31l23 86q77 -25 139 -25q35 0 65.5 16.5t52 39t42.5 60.5t33 67.5t28 72.5zM315 1266q0 29 19 48t47 19q27 0 45 -19t18 -48t-18.5 -47.5t-46.5 -18.5 t-46 18.5t-18 47.5zM678 1266q0 29 18.5 48t46.5 19q27 0 45.5 -19t18.5 -48t-19 -47.5t-47 -18.5t-45.5 18.5t-17.5 47.5z" />
<glyph unicode="&#x152;" horiz-adv-x="2578" d="M119 717q0 164 58 303t156.5 232.5t231 145.5t281.5 52q203 0 368 -95t256 -265v344h967v-88h-864v-605h743v-88h-743v-565h899v-88h-1002v342q-91 -169 -255.5 -263.5t-368.5 -94.5q-148 0 -281 52.5t-231.5 146t-156.5 232.5t-58 302zM221 719q0 -143 49.5 -264.5 t134.5 -204t199.5 -128.5t243.5 -46q124 0 235.5 42.5t198 122t137.5 202.5t51 274q0 153 -51 276.5t-137.5 202t-198.5 120.5t-237 42q-129 0 -243 -45.5t-198.5 -127t-134 -202.5t-49.5 -264z" />
<glyph unicode="&#x153;" horiz-adv-x="2244" d="M104 532q0 159 75.5 285.5t202.5 195t280 68.5q169 0 306 -84.5t203 -230.5q65 142 194.5 228.5t291.5 86.5q92 0 172.5 -29.5t140 -81t102 -119.5t64 -145.5t21.5 -158.5q0 -16 -1.5 -29.5t-2.5 -18.5l-1 -5h-925q9 -178 138 -301t321 -123q160 0 352 80l33 -74 q-204 -92 -385 -92q-179 0 -314.5 87t-200.5 230q-66 -147 -202.5 -232t-306.5 -85q-153 0 -280 68t-202.5 194.5t-75.5 285.5zM207 532q0 -202 129.5 -332t322.5 -130q194 0 325.5 130t131.5 332q0 203 -131 333t-326 130q-193 0 -322.5 -130t-129.5 -333zM1227 571h829 q0 77 -26.5 151.5t-74.5 136t-125 99t-169 37.5q-176 0 -300.5 -122.5t-133.5 -301.5z" />
<glyph unicode="&#x178;" horiz-adv-x="1224" d="M53 1434h113l444 -750h2l445 750h114l-507 -846v-588h-103v588zM365 1597q0 29 18.5 48.5t46.5 19.5q27 0 45.5 -19.5t18.5 -48.5t-19 -47t-47 -18t-45.5 18t-17.5 47zM727 1597q0 29 19 48.5t47 19.5q26 0 44.5 -19.5t18.5 -48.5t-18.5 -47t-46.5 -18t-46 18t-18 47z " />
<glyph unicode="&#x2c6;" horiz-adv-x="825" d="M184 1288l193 219h74l192 -219h-96l-133 156l-133 -156h-97z" />
<glyph unicode="&#x2dc;" horiz-adv-x="915" d="M170 1319q33 54 79.5 84.5t100.5 30.5q41 0 118.5 -40t129.5 -40q71 0 115 63l39 -28q-29 -53 -77 -84t-102 -31q-44 0 -122 39t-127 39q-38 0 -63.5 -17t-49.5 -47z" />
<glyph unicode="&#x2000;" horiz-adv-x="921" />
<glyph unicode="&#x2001;" horiz-adv-x="1843" />
<glyph unicode="&#x2002;" horiz-adv-x="921" />
<glyph unicode="&#x2003;" horiz-adv-x="1843" />
<glyph unicode="&#x2004;" horiz-adv-x="614" />
<glyph unicode="&#x2005;" horiz-adv-x="460" />
<glyph unicode="&#x2006;" horiz-adv-x="307" />
<glyph unicode="&#x2007;" horiz-adv-x="307" />
<glyph unicode="&#x2008;" horiz-adv-x="230" />
<glyph unicode="&#x2009;" horiz-adv-x="368" />
<glyph unicode="&#x200a;" horiz-adv-x="102" />
<glyph unicode="&#x2010;" horiz-adv-x="1048" d="M162 614v78h725v-78h-725z" />
<glyph unicode="&#x2011;" horiz-adv-x="1048" d="M162 614v78h725v-78h-725z" />
<glyph unicode="&#x2012;" horiz-adv-x="1048" d="M162 614v78h725v-78h-725z" />
<glyph unicode="&#x2013;" horiz-adv-x="1458" d="M162 614v78h1134v-78h-1134z" />
<glyph unicode="&#x2014;" horiz-adv-x="1562" d="M162 614v78h1239v-78h-1239z" />
<glyph unicode="&#x2018;" horiz-adv-x="532" d="M156 1206q0 77 55 140.5t135 101.5l25 -39q-58 -33 -104.5 -99.5t-16.5 -123.5q8 22 45 22q35 0 51 -22t16 -51q0 -37 -28 -60.5t-62 -23.5q-52 0 -84 47.5t-32 107.5z" />
<glyph unicode="&#x2019;" horiz-adv-x="534" d="M172 1090q24 15 49 37.5t49 54.5t30.5 64.5t-7.5 66.5q-10 -23 -47 -23q-34 0 -51 23.5t-17 52.5q0 37 29 59.5t63 22.5q52 0 83.5 -47.5t31.5 -106.5q0 -78 -54.5 -141t-133.5 -102z" />
<glyph unicode="&#x201a;" horiz-adv-x="514" d="M152 -201q33 19 66 53.5t54.5 81.5t-0.5 89q-10 -23 -47 -23q-34 0 -50.5 22.5t-16.5 51.5q0 37 29 60.5t63 23.5q52 0 83.5 -48t31.5 -108q0 -77 -55 -140.5t-134 -101.5z" />
<glyph unicode="&#x201c;" horiz-adv-x="868" d="M158 1204q0 79 55 142.5t135 101.5l25 -39q-59 -35 -105 -100.5t-16 -122.5q10 22 45 22t51.5 -23t16.5 -52q0 -37 -28.5 -59.5t-62.5 -22.5q-52 0 -84 47t-32 106zM492 1204q0 79 55 142.5t135 101.5l25 -39q-59 -35 -105 -100.5t-16 -122.5q10 22 45 22t51 -22.5 t16 -52.5q0 -37 -28 -59.5t-62 -22.5q-52 0 -84 47t-32 106z" />
<glyph unicode="&#x201d;" horiz-adv-x="870" d="M172 1090q58 33 104.5 99.5t16.5 123.5q-10 -23 -45 -23t-51.5 22.5t-16.5 51.5q0 37 28 60.5t62 23.5q52 0 84.5 -48t32.5 -108q0 -77 -55 -140t-135 -101zM506 1090q58 33 104.5 99.5t16.5 123.5q-10 -23 -45 -23t-51.5 22.5t-16.5 51.5q0 37 28 60.5t62 23.5 q52 0 84.5 -48t32.5 -108q0 -77 -55.5 -140t-135.5 -101z" />
<glyph unicode="&#x201e;" horiz-adv-x="849" d="M152 -201q34 19 67.5 53.5t54.5 81.5t-2 89q-10 -23 -45 -23t-51 22.5t-16 51.5q0 37 28 60.5t62 23.5q52 0 84.5 -48t32.5 -108q0 -77 -55.5 -140.5t-135.5 -101.5zM485 -201q58 33 104.5 100t16.5 124q-10 -23 -45 -23t-51 22.5t-16 51.5q0 37 28 60.5t62 23.5 q52 0 84 -48t32 -108q0 -77 -55 -140.5t-135 -101.5z" />
<glyph unicode="&#x2022;" horiz-adv-x="716" d="M205 721q0 62 45 106.5t108 44.5t108.5 -45.5t45.5 -109.5q0 -62 -45.5 -107t-108.5 -45t-108 46t-45 110z" />
<glyph unicode="&#x2026;" horiz-adv-x="1245" d="M160 80q0 37 25.5 62.5t62.5 25.5t62.5 -25.5t25.5 -62.5q0 -35 -25.5 -60.5t-62.5 -25.5t-62.5 25.5t-25.5 60.5zM528 80q0 37 25.5 62.5t62.5 25.5t63 -25.5t26 -62.5q0 -35 -26 -60.5t-63 -25.5t-62.5 25.5t-25.5 60.5zM911 80q0 37 25.5 62.5t60.5 25.5 q37 0 62.5 -25.5t25.5 -62.5q0 -35 -25.5 -60.5t-62.5 -25.5q-35 0 -60.5 25.5t-25.5 60.5z" />
<glyph unicode="&#x202f;" horiz-adv-x="368" />
<glyph unicode="&#x2039;" horiz-adv-x="708" d="M111 526v15l413 458l54 -55l-342 -412l339 -415l-51 -54z" />
<glyph unicode="&#x203a;" horiz-adv-x="704" d="M129 944l53 55l412 -458v-15l-412 -463l-51 54l340 415z" />
<glyph unicode="&#x205f;" horiz-adv-x="460" />
<glyph unicode="&#x20ac;" horiz-adv-x="1542" d="M137 813l19 57h159q45 258 224 417t448 159q210 0 391 -96l-28 -76l-18 9t-49.5 20.5t-77 25.5t-97 20t-113.5 9q-225 0 -375 -132.5t-194 -355.5h704l-20 -57h-692q-6 -49 -6 -96q0 -51 6 -101h624l-18 -57h-598q36 -215 190.5 -349t374.5 -134q107 0 210.5 27.5 t156.5 54.5v-92q-173 -78 -371 -78q-268 0 -446.5 156.5t-225.5 414.5h-163l20 57h137q-6 50 -6 101q0 30 4 96h-170z" />
<glyph unicode="&#x2122;" horiz-adv-x="1574" d="M150 1364v70h497v-70h-213v-557h-69v557h-215zM801 807v627h65l232 -396l223 396h65v-627h-65v489l-201 -360h-45l-209 377v-506h-65z" />
<glyph unicode="&#x25fc;" horiz-adv-x="1064" d="M0 0v1065h1065v-1065h-1065z" />
</font>
</defs>
</svg>
